<?xml version="1.0" encoding="UTF-8"?>
<svg id="Layer_2" data-name="Layer 2" xmlns="http://www.w3.org/2000/svg" viewBox="0 0 385.63 487">
  <defs>
    <style>
      .cls-1 {
        fill: #000;
      }

      .cls-1, .cls-2, .cls-3, .cls-4, .cls-5, .cls-6, .cls-7, .cls-8, .cls-9 {
        stroke-width: 0px;
      }

      .cls-2 {
        fill: #80160c;
      }

      .cls-3 {
        fill: #aa7a4e;
      }

      .cls-4 {
        fill: #3b3c39;
      }

      .cls-5 {
        fill: #c54;
      }

      .cls-6 {
        fill: #fefdfc;
      }

      .cls-7 {
        fill: #f18077;
      }

      .cls-8 {
        fill: #b73a2a;
      }

      .cls-10 {
        fill: #fff;
        stroke: #fff;
        stroke-width: 25px;
      }

      .cls-10, .cls-11 {
        stroke-miterlimit: 10;
      }

      .cls-9, .cls-11 {
        fill: #fab6ac;
      }

      .cls-11 {
        stroke: #000;
        stroke-width: 2px;
      }
    </style>
  </defs>
  <g id="Layer_1-2" data-name="Layer 1">
    <g>
      <path class="cls-10" d="M13.37,47.81c.87-4.96,2.5-8.96,5.43-13.03,14.23-4.65,31.93,0,44.89,6.54,5.56,2.83,10.86,6.07,15.92,9.72,3.84,2.82,7.56,6.74,11.88,8.7,7.88-3.27,15.31-7.22,23.53-9.71,20.86-6.32,54.46-7.56,75.13-.97,10.96-16.63,29.6-32.05,49.55-36.08,4.24-.86,8.61-.74,12.21,1.91,8.53,6.27,11.31,23.3,12.48,33.12,2.2,18.48,1.16,40.35-8.57,56.73,18.3,28.03,31.39,67.82,24.4,101.06-5.54,26.34-23.69,46.8-45.85,61.04-1.78,1.15-3.59,2.26-5.43,3.32,20.15,12.85,34.71,31.8,51.41,48.56,2.1-8.03,8.36-49.25,12.72-51.75,2.2-1.27,5.48-1.5,7.98-1.61,6.59-.28,65.37,1.16,67.99,2.14,1.9.72,3.22,1.83,3.98,3.75-4.2,97.56-16.11,62.31-34.86,69.54-7.35,2.83-25.22,54.4-78.4,48.68,0,0,6.45,49.43,4.07,65.71-1.98,13.52-52.42,24.4-82.42,16.81-77.69-19.64-57.03,7.58-134.12-10.33-.83-.19-4.99-43.09-5.29-43.84-.82-2.06-12.42-13.73-15.48-18.7-4.1-6.66-5.82-12.91-7.3-20.52-1.07-5.5-2.09-10.95-2.03-16.57.26-23.7,12.22-50.48,27.04-68.61,9.41-11.52,21.11-19.61,34.56-25.82-23.66-16.72-39.67-36.11-44.76-65.41-3.9-22.41-1.23-46.09,5.12-67.84-14.67-20.74-24.87-41-26.38-66.86-.38-6.45-.53-13.3.59-19.69Z"/>
      <g>
        <path class="cls-1" d="M263.83,455.19c-1.98,13.52-52.42,24.4-82.42,16.81-77.69-19.64-57.03,7.58-134.12-10.33-.83-.19-4.99-43.09-5.29-43.84-.82-2.06-12.42-13.73-15.48-18.7-4.1-6.66-5.82-12.91-7.3-20.52-1.07-5.5-2.09-10.95-2.03-16.57.26-23.7,12.22-50.48,27.04-68.61,9.41-11.52,21.11-19.61,34.56-25.82-23.66-16.72-39.67-36.11-44.76-65.41-3.9-22.41-1.23-46.09,5.12-67.84-14.67-20.74-24.87-41-26.38-66.86-.38-6.45-.53-13.3.59-19.69.87-4.96,2.5-8.96,5.43-13.03,14.23-4.65,31.93,0,44.89,6.54,5.56,2.83,10.86,6.07,15.92,9.72,3.84,2.82,7.56,6.74,11.88,8.7,7.88-3.27,15.31-7.22,23.53-9.71,20.86-6.32,54.46-7.56,75.13-.97,10.96-16.63,29.6-32.05,49.55-36.08,4.24-.86,8.61-.74,12.21,1.91,8.53,6.27,11.31,23.3,12.48,33.12,2.2,18.48,1.16,40.35-8.57,56.73,18.3,28.03,31.39,67.82,24.4,101.06-5.54,26.34-23.69,46.8-45.85,61.04-1.78,1.15-3.59,2.26-5.43,3.32,20.15,12.85,34.71,31.8,51.41,48.56,2.1-8.03,8.36-49.25,12.72-51.75,2.2-1.27,5.48-1.5,7.98-1.61,6.59-.28,65.37,1.16,67.99,2.14,1.9.72,3.22,1.83,3.98,3.75-4.2,97.56-16.11,62.31-34.86,69.54-7.35,2.83-25.22,54.4-78.4,48.68,0,0,6.45,49.43,4.07,65.71Z"/>
        <path class="cls-6" d="M223.21,274.25c-.13,6.25-1.11,30.27-5.4,33.85-1.3,1.08-2.8,1.26-4.4.97-7.27-1.32-19.47-9.91-26.52-13.57-2.28,4.36-5.03,8.59-7.12,13.02,4.22,12.14,8.12,24.61,8.66,37.54,8.84-1.28,18.04-3.1,26.99-3.14,7.94,7.6,17.74,11.69,26.19,18.43,1.03,2.49,2.77,5.75,2.89,8.45.26,5.67-.65,11.65-.76,17.35-.22,12.13,1.45,33.26-1.32,43.89-9.19,4.68-32.41,5.47-44.13,7.73.89,9.74.98,19.5.78,29.28,21.28.33,41.42-3.61,60.12-14.19-.18-37.1-1.44-76.1-12.41-111.86-1.77-5.78-3.78-11.64-6.26-17.16-1.57-3.49-4.54-7.82-5.43-11.43-.42-1.7.05-2.26.74-3.78.67-.33,1.09-.81,1.85-.49,5.67,2.46,12.65,24.44,14.67,30.62,7.14-7.04,13.44-13.24,22.76-17.35l-.78-.76c-17.12-16.81-27.74-36.55-51.1-47.4Z"/>
        <path class="cls-6" d="M47.3,420.45c.28,8.92.93,17.87,1.41,26.78.57,3.63.6,7.77,3.85,10.09,3.94,2.81,9.51,3.63,14.22,4.33,15.71,2.33,31.05,1.28,46.72-.49,8.64-.98,17.56-2.37,26.26-1.84,17.83,1.08,35.82,5.61,53.48,8.36-.07-9.46-.16-18.9-.62-28.34-6.24.64-12.4,1.84-18.58,2.86-10.98,1.82-15.92,2.13-25.26-4.55-3.07,3.03-6.03,5.12-10.2,6.4-6.7,2.06-14.9,1.69-21.77.51-6.6-1.13-12.42-4.12-18.72-6.18-4.94-1.61-10.11-2.54-15.1-3.98-12.09-3.47-24.6-7.99-35.67-13.96Z"/>
        <path class="cls-9" d="M163.3,51.38c-.92-.07-1.84-.12-2.76-.16-29.85-1.34-60.5,6.93-82.81,27.43-26.11,23.99-38.26,63.67-39.45,98.47-.86,25.33,5.91,49.57,23.55,68.34,22.47,23.91,55.79,35.23,87.95,36.4,34.46.16,68.14-7.85,95.16-30.21,17.12-14.16,28.64-33.15,30.66-55.49,3.24-35.97-16.58-82.11-39.57-109.19-19.34-22.78-43.35-33.1-72.73-35.59Z"/>
        <path class="cls-1" d="M223.37,120.46c-2.67.15-5.25.46-7.78,1.35-5.87,2.08-10.28,6.58-12.73,12.25-4.22,9.78-2.29,19.4,1.64,28.8-11.28-.28-21.12,1.26-31.02,7-9.94,5.77-17.41,14.59-20.27,25.84-.15.58-.29,1.17-.41,1.75-.12.59-.23,1.18-.32,1.77-.09.59-.17,1.19-.23,1.79-.06.6-.11,1.2-.14,1.79-.03.6-.05,1.2-.05,1.8,0,.6.01,1.2.04,1.8.03.6.07,1.2.13,1.8.06.6.13,1.19.22,1.79.09.59.19,1.18.31,1.77.12.59.25,1.17.4,1.75.15.58.31,1.16.49,1.73.18.57.37,1.14.58,1.71.21.56.43,1.12.66,1.67.23.55.48,1.1.75,1.64.26.54.54,1.07.83,1.6.29.53.59,1.04.91,1.56,6.2,9.99,15.92,15.14,26.96,17.86,13.5,2.81,27.74,1.39,39.86-5.47,9.59-5.43,17.97-14.32,20.83-25.17,3-11.39-.27-20.68-5.93-30.42,7.43-6.05,12.47-13.53,13.42-23.27.05-.56.09-1.12.12-1.68.03-.56.04-1.12.04-1.68,0-.56-.02-1.12-.05-1.68-.03-.56-.07-1.12-.13-1.68-.06-.56-.13-1.11-.21-1.67-.08-.55-.18-1.1-.29-1.65-.11-.55-.24-1.1-.38-1.64-.14-.54-.29-1.08-.46-1.62s-.34-1.07-.54-1.59c-.19-.53-.4-1.05-.61-1.56-.22-.52-.45-1.03-.69-1.53-.24-.5-.5-1-.77-1.5-.27-.49-.55-.98-.84-1.46-.29-.48-.59-.95-.91-1.41-.32-.46-.64-.92-.98-1.37-.34-.45-.68-.89-1.04-1.32-5.55-6.67-12.88-10.55-21.44-11.47Z"/>
        <path class="cls-7" d="M204.81,168.84c-11.77-.99-23.45,1.58-32.95,8.83-7.41,5.66-12.52,13.86-13.59,23.21-.06.5-.11,1-.15,1.5-.04.5-.06,1-.07,1.51-.01.5,0,1.01,0,1.51.01.5.04,1.01.08,1.51.04.5.09,1,.16,1.5.07.5.14,1,.24,1.49.09.5.19.99.31,1.48s.24.98.38,1.46c.14.48.29.96.46,1.44.16.48.34.95.53,1.41.19.47.39.93.6,1.39.21.46.43.91.67,1.35.23.45.48.89.74,1.32s.52.86.8,1.28c.28.42.57.83.87,1.24.3.4.61.8.93,1.19,7.39,8.99,17.75,12.27,28.9,13.25,11.46.78,23.3-1.96,32.52-9.02,7.25-5.55,12.85-13.65,13.94-22.86.05-.48.1-.96.13-1.44.03-.48.05-.96.06-1.44,0-.48,0-.96-.02-1.44-.02-.48-.05-.96-.09-1.44-.04-.48-.09-.96-.16-1.43-.06-.48-.14-.95-.23-1.42-.09-.47-.19-.94-.3-1.41-.11-.47-.24-.93-.37-1.39-.14-.46-.28-.92-.44-1.38-.16-.45-.33-.9-.51-1.35-.18-.45-.37-.89-.57-1.32-.2-.44-.41-.87-.64-1.29-.22-.43-.46-.85-.7-1.26-.24-.41-.5-.82-.76-1.22-.26-.4-.54-.8-.82-1.18s-.58-.77-.88-1.14c-7.02-8.83-18.17-13.09-29.07-14.42Z"/>
        <path class="cls-2" d="M219.74,190.59c-1.4-.06-2.93-.18-4.31.1-2.36.48-4.65,2.33-5.96,4.31-1.93,2.92-2.34,6.51-1.64,9.89.88,4.22,2.95,6.51,6.49,8.79.89.09,1.9.24,2.81.19,2.36-.13,4.62-1.29,6.19-3.04,2.34-2.59,2.95-6.24,2.59-9.62-.51-4.78-2.49-7.68-6.17-10.62Z"/>
        <path class="cls-2" d="M183.53,194.46c-.89.09-1.8.15-2.68.39-2.67.72-5.04,2.85-6.21,5.33-1.64,3.47-1.39,7.58.08,11.05,1.54,3.63,3.75,5.28,7.3,6.78.78-.08,1.74-.12,2.5-.36,2.66-.83,4.8-2.82,6.05-5.28,1.56-3.07,1.53-6.72.46-9.94-1.34-4.05-3.73-6.2-7.5-7.97Z"/>
        <path class="cls-6" d="M225.76,126.13c-1.89-.1-3.9-.2-5.77.13-.54.09-1.06.21-1.59.35-.52.14-1.04.31-1.54.51-.51.2-1,.42-1.48.67-.48.25-.95.52-1.4.82-.45.3-.89.62-1.31.97-.42.34-.82.71-1.2,1.1s-.74.79-1.08,1.22c-.34.42-.65.87-.95,1.32-5.14,8.16-3.43,17.91-1.18,26.65.19-4.35.28-8.41,2.51-12.31,1.86-3.26,4.66-5.84,8.42-6.61,2.92-.6,6.01.09,8.47,1.75,5.06,3.41,6.55,8.92,7.48,14.57-.43,6.1-1.95,9.54-6.22,13.97l6.62,4.9c5.02-3.61,8.71-8.09,10.61-14.06.14-.45.27-.89.39-1.35.12-.45.22-.91.32-1.36.09-.46.18-.92.25-1.38.07-.46.13-.92.18-1.39s.09-.93.11-1.4c.02-.47.04-.93.04-1.4,0-.47,0-.93-.03-1.4-.02-.47-.05-.93-.1-1.4s-.1-.93-.17-1.39c-.07-.46-.15-.92-.24-1.38-.09-.46-.19-.91-.31-1.37-.11-.45-.24-.9-.37-1.35s-.28-.89-.44-1.33c-.16-.44-.33-.87-.51-1.31-.18-.43-.37-.86-.57-1.28-.2-.42-.41-.84-.63-1.25-3.98-7.53-10.35-11.79-18.29-14.22Z"/>
        <path class="cls-1" d="M129.58,131.27c-6.01-.4-11.4-.22-17.01,2.36-7.13,3.28-12.35,9.47-14.96,16.82-3.09,8.68-2.48,19.12,1.62,27.38,4.04,8.15,11.06,13.53,19.56,16.4,6.21,1.43,12.25.93,17.93-2.08,7.24-3.84,12.4-11.05,14.65-18.83,2.64-9.12,1.33-19.33-3.3-27.6-4.17-7.45-10.42-12.04-18.49-14.44Z"/>
        <path class="cls-6" d="M128.2,136.43c-4.5-.22-8.47-.21-12.68,1.61-5.92,2.55-10.33,7.58-12.63,13.55-.18.47-.34.95-.5,1.43-.15.48-.29.97-.42,1.46-.13.49-.25.98-.35,1.48-.11.49-.2.99-.28,1.49-.08.5-.15,1-.2,1.5-.05.5-.1,1.01-.13,1.51-.03.51-.04,1.01-.05,1.52,0,.51,0,1.01.03,1.52s.06,1.01.1,1.51c.05.5.11,1.01.18,1.51.07.5.16,1,.25,1.5.1.5.21.99.33,1.48.12.49.25.98.4,1.46.15.48.3.97.47,1.44.17.48.35.95.54,1.42.19.47.4.93.62,1.39,3.26,6.75,8.87,11.54,15.91,13.97,4.86,1.18,9.3.84,13.83-1.37,6.04-2.95,10.49-8.97,12.45-15.3,2.45-7.91,1.32-17.22-2.66-24.45-3.5-6.36-8.31-9.76-15.21-11.61Z"/>
        <path class="cls-1" d="M128.1,150.6c-2.09-.25-4.29-.41-6.34.12-3.61.93-6.61,3.53-8.29,6.82-2.26,4.41-2.45,10.04-.79,14.68,1.88,5.26,4.87,7.94,9.85,10.25,1.55.18,3.16.37,4.7.02.46-.11.91-.24,1.35-.39.44-.15.88-.33,1.3-.53.42-.2.84-.42,1.24-.66.4-.24.79-.51,1.16-.79.37-.28.73-.59,1.07-.91.34-.32.67-.66.97-1.01.31-.35.59-.72.86-1.11.27-.38.51-.78.74-1.19,2.44-4.37,2.91-9.91,1.46-14.67-1.59-5.22-4.55-8.16-9.29-10.62Z"/>
        <path class="cls-1" d="M159.93,257.87c5.22,1.39,10.31,2.34,15.72,2.5,11.13.34,22.49-2.25,30.8-10.07.43-1.44.47-1.4-.14-2.76-4.31-2.09-13.84,4.52-18.47,5.6-3.37.79-7.52.7-10.96.47-14.82-.96-32.3-8.92-42.88-19.38-3.1-3.06-5.11-6.81-7.97-10.04-1.62-.31-2.32-.56-3.85.33-1.46.84-1.83,2.3-2.22,3.79.27,1.49.64,2.3,1.54,3.47,1.22,1.59,2.29,3.22,3.36,4.91,3.81,8.37,9.56,18.04,18.65,21.33,5.64,2.04,10.78,1,16.43-.15Z"/>
        <path class="cls-4" d="M124.85,236.69c3.81,8.37,9.56,18.04,18.65,21.33,5.64,2.04,10.78,1,16.43-.15-9.03-.96-19.26-8.57-26.09-14.07-2.99-2.41-5.62-5.22-8.99-7.12Z"/>
        <path class="cls-1" d="M222.29,95.82c-5.28-.52-10.78-.71-15.67,1.72-2.39,1.19-5.09,3.17-5.93,5.79l.84.88c5.46.57,10.8-2.21,16.47-2.14l1.02.02c6.09,1.16,12.45,4.9,18.44,5.19,1.54.08.99.3,1.94-.59-.14-.23-.27-.48-.42-.7-3.72-5.47-10.47-8.72-16.68-10.18Z"/>
        <path class="cls-1" d="M128.58,100.99c-3.31-.11-6.55-.04-9.77.78-4.74,1.2-17.97,8.12-19.88,12.93-.66,1.66-.32,2.3.34,3.8l1.27.37,1.61-1.11c7.07-5.77,12.93-10.15,22.5-9.55,2.97.19,6.03.3,8.88-.74,1.37-.5,1.37-.44,1.99-1.83-.12-.24-.22-.49-.36-.72-1.49-2.41-3.98-3.25-6.58-3.95Z"/>
        <path class="cls-6" d="M87.32,271.84c-7.39-.6-19.71,7.88-25.21,12.3-24.15,19.4-36,50.15-39.14,80.21,20.18-8.98,38.83-10.3,60.38-5.84.09-3.23.35-6.45.77-9.65.57-4.51,1.93-19.53,5.56-22.33,1.1.06,1.56.28,2.2,1.28,2.44,3.85-2.4,27.51-3.7,32.99-.52,2.19-1.72,4.08-2.36,6.23,1.03,2.51,4.4,4.52,6.51,6.18,3.07,2.52,6.15,5.02,9.26,7.49,5.86-5.47,12.04-8.87,20.13-9.55.02-4.91-1.36-11.5,1.09-15.94,6.99-4,50.29-7.44,60.55-8.61-.33-3.96-.85-7.91-1.56-11.82-.71-3.92-1.6-7.79-2.67-11.62-.58-2.05-2.3-9.77-3.79-10.6l.67.53-.8-2.4c-5.79-3.14-11.28-7.02-16.81-10.59-9.32,5.84-18.89,11.26-28.19,17.16-13.7-11.17-25.53-25.73-34.42-40.96-2.87-1.37-5.65-2.95-8.46-4.46Z"/>
        <path class="cls-1" d="M170.56,321.41c-.15-.05-.31-.1-.47-.13-.16-.04-.32-.07-.48-.09-.16-.02-.32-.04-.49-.04s-.33,0-.49,0c-.16.01-.32.03-.49.05-.16.03-.32.06-.48.1-.16.04-.31.09-.47.15s-.3.12-.45.19c-.15.07-.29.15-.43.23-.14.09-.27.18-.4.27-.13.1-.26.2-.38.31-.12.11-.24.23-.34.35-.11.12-.21.25-.31.38-.1.13-.19.27-.27.41-.08.14-.16.28-.23.43-.07.15-.13.3-.19.45-.06.15-.1.31-.14.47-.04.16-.07.32-.1.48-.03.16-.04.32-.05.49,0,.16-.01.33,0,.49,0,.16.02.33.04.49.02.16.05.32.09.48.04.16.08.31.14.47.05.15.11.31.18.45.07.15.14.29.22.43.08.14.17.28.26.41.09.13.2.26.3.38.11.12.22.24.34.35.12.11.24.22.37.32.13.1.26.19.4.28.14.09.28.17.43.24.15.07.29.14.45.2.21.08.42.15.64.2.22.05.44.09.66.11.22.02.45.03.67.02.22,0,.44-.03.66-.06.22-.04.44-.09.65-.15.21-.07.42-.14.62-.24.2-.09.4-.2.59-.32.19-.12.37-.25.54-.39.17-.14.33-.3.48-.46.15-.16.29-.34.42-.52.13-.18.24-.37.35-.57.1-.2.19-.4.27-.61.08-.21.14-.42.18-.64.05-.22.08-.44.1-.66.02-.22.02-.45.01-.67-.01-.22-.04-.44-.08-.66-.04-.22-.1-.44-.17-.65-.07-.21-.15-.42-.25-.62s-.21-.4-.33-.58c-.12-.19-.26-.36-.4-.53-.15-.17-.3-.33-.47-.47-.17-.15-.34-.28-.53-.41-.19-.12-.38-.24-.58-.33-.2-.1-.41-.18-.62-.26Z"/>
        <path class="cls-3" d="M238.18,370.29c-25.34,3.48-50.66,7.17-75.94,11.08-.01,18.8,1.59,37.66.98,56.45,6.03.34,13.47-1.53,19.57-2.41,18.54-2.69,36.87-6.34,55.58-7.68.21-11.34.15-22.69.2-34.03.03-7.69.49-15.76-.39-23.4Z"/>
        <path class="cls-8" d="M362.83,301.11c1.78-9.32,3.78-18.59,6-27.81-23.26-1.23-46.54-1.11-69.8-2.4-.83,0-1.55.25-2.35.46-3.08,3.72-8.58,37.38-10.26,45.38,1.89-.69,3.91-1.41,5.9-1.76,3.93-.69,8.49.17,11.75,2.5,4.33,3.09,5.79,7.59,6.49,12.62,9.08.76,39.35,6.59,45.54,5.54,1.52-1.08,2.18-1.6,2.99-3.35"/>
        <path class="cls-9" d="M347.21,291.86c-2.73-.2-5.38.07-7.39,2.18-1.39,1.46-1.8,3.41-1.61,5.36.34,3.46,2.16,5.37,4.67,7.56,1.09.27,2.53.66,3.66.56.2-.02.4-.04.6-.08.2-.04.39-.08.58-.14.19-.06.38-.12.57-.2.19-.08.37-.16.54-.25.18-.09.35-.2.52-.31.17-.11.33-.23.48-.36.15-.13.3-.26.44-.41.14-.14.27-.29.4-.45,1.21-1.5,1.46-3.48,1.32-5.34-.28-3.83-1.95-5.77-4.79-8.15Z"/>
        <path class="cls-9" d="M68.88,362.52c-3.81-.31-7.69-.26-11.5-.07-10.8.53-26.26,2.14-33.95,10.59,1.16,4.35,2.41,8.85,3.99,13.07,6.24,16.64,17.78,26.61,33.68,33.8,9.63,3.79,19.24,7.57,29.3,10.08-.34-1.04-.66-2.06-.95-3.12-4.33-15.81-.73-28.13,7.25-42.01-5.32-4.81-11.49-9.01-16.48-14.12-1.92-1.97-1.48-3.44-1.5-6.06-2.94-1.51-6.59-1.68-9.84-2.15Z"/>
        <path class="cls-9" d="M85.13,64.44c-16.71-14.43-36.45-26.47-59.44-24.95-1.68.11-3.08.6-4.17,1.94-5.56,6.85-2.43,30.68-.86,39.06,3.32,17.68,10.35,31.64,20.66,46.22,1.24-3.8,2.38-7.68,3.77-11.42,7.33-16.25,16.43-29.56,29.02-42.2,3.63-2.94,7.27-5.86,11.03-8.64Z"/>
        <path class="cls-5" d="M34.69,49.82c-3.9,26.55-2.13,40.92,10.39,65.46,7.33-16.25,16.43-29.56,29.02-42.2-11.27-11.34-23.82-19.57-39.41-23.26Z"/>
        <path class="cls-5" d="M252.13,97.51c9.06-17.61,7.71-43.9,3.74-62.72-1.12-5.34-2.96-12.54-7.97-15.51-2.61-1.54-5.91-1.28-8.74-.58-16.81,4.19-33.66,17.7-42.74,32.22,4.4,1.86,8.68,4.1,12.99,6.18,16.03,8.82,27.88,20.63,39.03,35.01,1.11,1.86,2.46,3.62,3.7,5.39Z"/>
        <path class="cls-9" d="M252.13,97.51c9.06-17.61,7.71-43.9,3.74-62.72-1.12-5.34-2.96-12.54-7.97-15.51-2.61-1.54-5.91-1.28-8.74-.58-16.81,4.19-33.66,17.7-42.74,32.22,4.4,1.86,8.68,4.1,12.99,6.18,7.12-13.25,19.62-22.83,33.36-28.46,7.98,19.28,9.21,43.01,5.68,63.48,1.11,1.86,2.46,3.62,3.7,5.39Z"/>
        <path class="cls-4" d="M121.98,376.85c-2.55.39-5.18.85-7.57,1.85-8.07,3.38-14.3,11.16-17.65,19.11-3.66,8.69-4.9,20.19-1.07,29.02,2.07,4.77,5.16,7.26,9.95,9.06,11.24,4.22,25.29,5.67,36.41.54.95-1.53,1.36-2.37,1.14-4.2-1.21-10.27-17.17-10.81-23.87-15.73l-.02-.98c4.94-3.37,16.27,4,22.87,2.14,1.18-.33,2.33-1.11,2.88-2.22,1.2-2.45.49-5.73-.55-8.13-3.67-8.44-15-12-22.9-15.31-.09-5.03.23-10.12.38-15.15Z"/>
        <path class="cls-3" d="M212.02,349.57c-9.02-.54-18.57,1.22-27.56,2.27-17.99,2.1-35.91,4.71-54.01,5.64,8.95,5.69,18.28,10.84,27.32,16.4,1.19.88,1.87,1.4,3.38,1.62,5.54.79,13.45-1.15,18.98-1.93,19.18-2.68,38.87-7.03,58.2-7.77-7.87-6.16-17.38-11.78-26.31-16.24Z"/>
        <path class="cls-4" d="M297.3,320.37c-3.55.22-5.84.89-8.8,2.9-4.81,3.26-7.5,8.31-8.48,13.97-1.12,6.47.38,12.52,4.17,17.85,4.13,5.82,10.64,10.71,17.87,11.64,7.76.99,13.51-2.76,19.44-7.14,3.73-3.17,8.72-8.9,9.38-13.94.27-2.05-.36-3.79-1.64-5.37-3.92-4.81-17.01-4.68-22.76-5.06-2.31,2.1-3.96,5.59-6.56,7.08-1.41.81-2.41.6-3.82.06-.29-.55-.6-1.06-.73-1.69-.79-3.92,4.3-7.15,6.32-9.93,1.12-1.54,1.49-3.27.9-5.13-.82-2.59-3.03-3.99-5.26-5.24Z"/>
        <path class="cls-11" d="M275.82,328.25c-6.86,2.82-16.96,12.56-21.09,18.89,1.81,12.21,4.71,24.47,6.8,36.69,7.64,1.85,14.44,2.24,22.19.82,7.45-2.24,14.24-6.58,20.17-11.52-2.29-.38-4.55-.81-6.78-1.5-8.59-2.63-16.7-8.5-20.86-16.58-4.53-8.82-3.13-17.77-.44-26.8Z"/>
        <path class="cls-3" d="M128.36,362.26l-.73.23c-1.64,4.76-.21,20.32.24,26.22,6.55,3.28,13.7,6.36,18.85,11.72,3.02,3.14,5.56,7.48,5.19,11.99-.39,4.7-3.4,8.27-6.9,11.11,1.98,3.66,3.73,7.54,6.85,10.38,2.07,1.17,4.15,2.3,6.25,3.41-1.15-19.24.02-38.66-1.7-57.88-9.27-5.84-18.69-11.46-28.05-17.17Z"/>
        <path class="cls-6" d="M107.12,281.01l-1.15.13c2.37,6.67,18.79,23.69,24.4,29.79,3.82-2.53,7.67-5.01,11.56-7.43l11.78-7.34-9.26-7.97c-12.92-1.03-24.92-3.4-37.33-7.18Z"/>
        <path class="cls-6" d="M218.08,275.8c-11.74,4.96-20.01,4.19-27.86,15.35l8.51,4.34c5.48,2.64,10.7,5.56,15.79,8.89.69-9.55,2.37-19.07,3.55-28.58Z"/>
        <path class="cls-7" d="M187.57,285.2c-10.89,2.13-22.31,3.74-33.43,3.28,2.68,2.34,5.54,4.49,8.34,6.68l13.19,8.42c3.43-6.65,7.19-12.55,11.9-18.38Z"/>
      </g>
    </g>
  </g>
</svg>