<?xml version="1.0" encoding="UTF-8"?>
<svg id="Layer_2" data-name="Layer 2" xmlns="http://www.w3.org/2000/svg" viewBox="0 0 346.79 487.09">
  <defs>
    <style>
      .cls-1 {
        fill: #f07364;
      }

      .cls-1, .cls-2, .cls-3, .cls-4, .cls-5, .cls-6 {
        stroke-width: 0px;
      }

      .cls-2 {
        fill: #010101;
      }

      .cls-3 {
        fill: #fdfcfb;
      }

      .cls-4 {
        fill: #31678e;
      }

      .cls-7 {
        fill: #fff;
        stroke: #fff;
        stroke-miterlimit: 10;
        stroke-width: 25px;
      }

      .cls-5 {
        fill: #5b704e;
      }

      .cls-6 {
        fill: #fdb2a5;
      }
    </style>
  </defs>
  <g id="Layer_1-2" data-name="Layer 1">
    <path class="cls-7" d="M331.96,246.65c-.93-1.46-2.02-2.85-3.06-4.23-.31-4.64-.12-10.04-3.81-13.45-1.98-1.83-4.69-2.72-7.16-3.66-1.87-3.73-3.65-6.51-7.82-7.92-4.04-1.36-8.94-.61-12.68,1.3-3.4,1.74-4.83,3.96-6.63,7.23-5.41,1.72-9.56,3.53-12.26,8.91-2.41,4.79-3.26,10.86-2.39,16.12-1.99,2.43-6.17,3.96-8.7,6.2-.42.37-.84.73-1.25,1.11-6.08-6.67-12.46-13.25-19.09-19.36-1.55-1.43-6.64-4.82-7.26-6.45,5.75-3.55,13.34-5.1,19.58-7.92,16.74-7.58,35.83-24.35,40.12-42.89,2.11-9.09,2.27-21.75-.62-30.69-1.6-4.94-4.05-9.67-5.18-14.75-2.31-10.37-3.51-21.06-6.45-31.29-1.49-5.18-5.99-14.57-5.62-19.5.28-3.82,5.22-8.65,6.84-12.26,6.02-13.45,11.76-42.15,3.47-55.59-1.4-2.26-3.12-3.51-5.35-4.87-5.02-.39-12.57.68-16.28.15l-.73.28c-2.08.77-4.23,1.14-6.3,2.02-11.59,4.93-24.63,13.75-30.78,25.09-27.19-9.27-56.49-11.94-83.07,1.03-1.48.73-2.96,1.48-4.42,2.26-3.01-1.49-6.05-6.32-8.96-8.55-.85-.65-1.72-1.28-2.59-1.89-.88-.61-1.77-1.21-2.67-1.79-.9-.58-1.81-1.14-2.74-1.68-.92-.54-1.86-1.06-2.8-1.57-.94-.5-1.9-.99-2.86-1.46-.96-.47-1.94-.91-2.92-1.34-.98-.43-1.97-.84-2.97-1.22-1-.39-2-.76-3.01-1.1-1.01-.35-2.03-.68-3.06-.98-1.02-.31-2.06-.59-3.09-.86-1.04-.27-2.08-.51-3.12-.74-1.05-.23-2.1-.43-3.15-.61-1.05-.18-2.11-.35-3.17-.49-1.06-.14-2.12-.26-3.19-.36-1.07-.1-2.13-.18-3.2-.23-1.07-.06-2.14-.09-3.21-.1-6.05,3.44-9.34,4.97-11.3,12.26-4.02,14.96-1.76,38.61,6.32,51.97,1.5,2.49,10.5,13.77,10.79,14.74.04.14-.17,1.31-.22,1.54-.95,4.16-3.7,7.86-4.91,12-4.76,16.34-9.2,42.14-5.41,58.8,1.16,5.1,3.45,9.88,6.09,14.37,4.72,8.04,8.54,13.14,15.88,18.72,1.54,1.17,5.07,3.27,5.27,5.2-4.24.59-8.65-.76-13-.45-19.83,1.38-41.21,9.64-53.6,25.84-5.29,6.92-5.93,11.27-9.79,17.88-2.04,3.49-5.6,6.12-8.23,9.15-5.14,5.93-8.2,15.56-7.24,23.27.45,3.63,2.47,9.79,5.8,11.85,1.6.99,3.5.56,5.05,1.58,1.65,1.08,2.74,3.09,4.45,4.24,4.95,3.33,13.97,7.61,19.87,7.77,2.45.06,5.2-.93,7.55-1.58,1.05-1,2.08-2.01,3.13-3,4.64-4.35,11.82-16.36,11.82-22.84,0-4.51-1.61-9.06-4.1-12.79,3.11-3.52,12.38-9.04,17.05-9.46,1.89-.17,8.91.3,10.29,1.47.67.57.65.48.57,1.43-.42,4.77-3.51,10.59-4.92,15.18-4,13.08-6.59,26.79-11.53,39.55.68,1.6,1.94,3.9,2.04,5.62.12,1.99-1.95,5.38-2.56,7.39-1.75,5.77-.13,15.96,2.21,21.31-3.59-.05-7.16-.11-10.74.09-.19-.11-.38-.21-.56-.33-8.33-5.11-14.74-18.8-26.16-16.36-10.73,2.29-17.79,12.33-23.09,21.03-6.87,11.27-15.26,30.04-11.92,43.66.94,3.82,3.22,6.92,6.67,8.82,3.94,2.17,8.6,2.34,12.83,1,6.51-2.06,16.91-9.02,21.76-13.76,11.59,5.77,20.41,12.55,33.35,15.75,15.27.19,28.22-4.07,40.99-12.54,4.28,2.11,24.64,14.09,27.01,14.5.45-.87.31-1.18.26-2.13,12.68,3.04,39.59,30.04,45.95,41.43.34.61.29,1.19.32,1.87.22,5.35,6.22,12.7,10.15,16.22,2.68,2.4,5.08,3.98,8.79,3.78,14.26-.79,34.69-20.28,43.55-30.84,5.82-6.94,13.02-16.97,12.31-26.51-.32-4.28-2.38-8.86-5.67-11.69-4.26-3.67-12.15-3.34-17.46-2.77-6.86.73-14.07,3.77-19.69,7.69-6-12.68-11.47-25.78-20.19-36.93,3.74-4.03,7.4-8.02,10.39-12.66,4.12-6.41,6.49-13.49,12.15-18.78,3.17-12.9,7.86-26.12,8.29-39.51l.03-.72c0-.14,0-.29,0-.43,9.72,5.17,17.31,8.6,28.37,5.29,9.45-2.83,18.98-8.31,25.67-15.62,2.29-2.5,4.61-6.14,7.34-8.08,2.37-1.67,5.94-1.13,9.01-3.16,8.18-5.42,16.06-11.61,18.41-21.72.93-4,.31-8-1.91-11.47Z"/>
    <g>
      <path class="cls-2" d="M270.34,12.83c3.72.53,11.26-.54,16.28-.15,2.24,1.37,3.96,2.61,5.35,4.87,8.3,13.44,2.56,42.14-3.47,55.59-1.62,3.61-6.56,8.44-6.84,12.26-.37,4.93,4.13,14.32,5.62,19.5,2.94,10.23,4.15,20.92,6.45,31.29,1.13,5.08,3.58,9.81,5.18,14.75,2.89,8.95,2.73,21.6.62,30.69-4.29,18.54-23.38,35.31-40.12,42.89-6.23,2.82-13.82,4.37-19.58,7.92.62,1.63,5.71,5.02,7.26,6.45,6.63,6.12,13.02,12.69,19.09,19.36.41-.38.83-.74,1.25-1.11,2.53-2.24,6.71-3.77,8.7-6.2-.87-5.25-.02-11.33,2.39-16.12,2.7-5.38,6.85-7.19,12.26-8.91,1.8-3.27,3.23-5.49,6.63-7.23,3.74-1.92,8.63-2.67,12.68-1.3,4.17,1.4,5.95,4.19,7.82,7.92,2.47.94,5.19,1.84,7.16,3.66,3.69,3.41,3.5,8.81,3.81,13.45,1.04,1.38,2.13,2.77,3.06,4.23,2.23,3.47,2.84,7.47,1.91,11.47-2.35,10.1-10.23,16.29-18.41,21.72-3.07,2.03-6.64,1.49-9.01,3.16-2.74,1.94-5.05,5.58-7.34,8.08-6.69,7.31-16.22,12.79-25.67,15.62-11.06,3.31-18.65-.12-28.37-5.29,0,.14,0,.29,0,.43l-.03.72c-.43,13.38-5.13,26.61-8.29,39.51-5.66,5.28-8.04,12.37-12.15,18.78-2.98,4.64-6.65,8.63-10.39,12.66,8.72,11.15,14.19,24.25,20.19,36.93,5.62-3.92,12.83-6.96,19.69-7.69,5.31-.56,13.2-.9,17.46,2.77,3.29,2.83,5.35,7.41,5.67,11.69.71,9.53-6.48,19.56-12.31,26.51-8.86,10.56-29.29,30.06-43.55,30.84-3.72.21-6.11-1.37-8.79-3.78-3.93-3.52-9.93-10.87-10.15-16.22-.03-.68.02-1.26-.32-1.87-6.35-11.39-33.27-38.38-45.95-41.43.05.95.19,1.26-.26,2.13-2.38-.42-22.73-12.39-27.01-14.5-12.77,8.46-25.72,12.73-40.99,12.54-12.93-3.19-21.76-9.98-33.35-15.75-4.86,4.74-15.25,11.71-21.76,13.76-4.23,1.34-8.89,1.17-12.83-1-3.46-1.9-5.74-5-6.67-8.82-3.34-13.63,5.05-32.39,11.92-43.66,5.3-8.69,12.36-18.73,23.09-21.03,11.42-2.44,17.83,11.25,26.16,16.36.18.11.38.22.56.33,3.58-.2,7.15-.14,10.74-.09-2.35-5.35-3.96-15.54-2.21-21.31.61-2,2.67-5.39,2.55-7.39-.1-1.71-1.36-4.02-2.04-5.62,4.94-12.76,7.54-26.47,11.53-39.55,1.4-4.59,4.5-10.41,4.92-15.18.08-.95.11-.86-.57-1.43-1.38-1.17-8.41-1.64-10.29-1.47-4.67.42-13.94,5.94-17.05,9.46,2.49,3.73,4.1,8.27,4.1,12.79,0,6.48-7.18,18.49-11.82,22.84-1.05.99-2.09,2-3.13,3-2.36.65-5.1,1.64-7.55,1.58-5.9-.15-14.92-4.43-19.87-7.77-1.71-1.15-2.8-3.16-4.45-4.24-1.55-1.02-3.46-.59-5.05-1.58-3.34-2.06-5.35-8.22-5.8-11.85-.96-7.71,2.1-17.34,7.24-23.27,2.63-3.03,6.19-5.66,8.23-9.15,3.86-6.61,4.5-10.97,9.79-17.88,12.4-16.2,33.77-24.46,53.6-25.84,4.35-.3,8.76,1.04,13,.45-.2-1.93-3.73-4.02-5.27-5.2-7.34-5.57-11.16-10.67-15.88-18.72-2.63-4.49-4.92-9.27-6.09-14.37-3.79-16.66.65-42.47,5.41-58.8,1.21-4.14,3.96-7.84,4.91-12,.05-.23.26-1.4.22-1.54-.29-.97-9.29-12.26-10.79-14.74-8.08-13.36-10.34-37.01-6.32-51.97,1.96-7.29,5.24-8.82,11.3-12.26,1.07.01,2.14.05,3.21.1,1.07.06,2.14.13,3.2.23,1.07.1,2.13.22,3.19.36,1.06.14,2.12.3,3.17.49,1.05.18,2.11.39,3.15.61,1.05.23,2.09.47,3.12.74,1.04.27,2.07.55,3.09.86,1.02.31,2.04.64,3.06.98,1.01.35,2.02.72,3.01,1.1,1,.39,1.99.8,2.97,1.22.98.43,1.95.88,2.92,1.34.96.47,1.92.95,2.86,1.46.94.5,1.88,1.03,2.8,1.57.92.54,1.84,1.1,2.74,1.68.9.58,1.79,1.17,2.67,1.79.88.61,1.74,1.24,2.59,1.89,2.91,2.24,5.95,7.07,8.96,8.55,1.46-.78,2.93-1.53,4.42-2.26,26.57-12.97,55.88-10.3,83.07-1.03,6.14-11.34,19.19-20.15,30.78-25.09,2.06-.88,4.22-1.24,6.3-2.02l.73-.28Z"/>
      <path class="cls-6" d="M86.22,23.68c14.86-2.12,37.8,6.47,48.82,16.47,4.66,4.23,8.23,10.33,13.74,13.49l.74-.73c-.35-1.69-1.71-3.34-2.66-4.78.29-.25.58-.5.88-.74,13.17-10.49,40.73-11.41,56.66-9.48,23.45,2.84,46.02,12.34,60.85,31.33,17.75,22.73,18.11,39.99,24.42,66.12,3.78,15.63,8.91,21.93,6.71,39.53-2.07,16.59-12.45,27.4-25.1,37.31-4.24,3.07-8.58,5.76-13.31,8.02-33.56,15.96-73.74,15.7-108.33,3.39-21.24-7.56-47.52-23.15-57.32-44.16-11.94-25.61-2.62-56.1,6.36-81.09.56.23,1.19.53,1.79.66,1.05.23,1.66.27,2.54-.39-.94-2.1-9.37-9.08-11.83-12.39-9.88-13.26-13.17-35.43-10.7-51.46.71-4.61,1.91-8.29,5.74-11.11Z"/>
      <path class="cls-2" d="M238.58,132.36c-2.98-3.65-3.61-8.93-3.21-13.5.03-.36.07-.72.12-1.08.05-.36.11-.72.17-1.07.07-.36.14-.71.23-1.06.08-.35.18-.7.28-1.05.1-.35.21-.69.33-1.03.12-.34.24-.68.38-1.02.14-.34.28-.67.43-1,.15-.33.31-.65.48-.98.17-.32.34-.64.52-.95s.37-.62.57-.92c.2-.3.4-.6.61-.9.21-.29.43-.58.66-.86.23-.28.46-.56.7-.83.24-.27.49-.54.74-.8.25-.26.51-.51.78-.76.27-.25.54-.49.81-.72,4.05-3.35,9.36-5.3,14.64-4.73,5.82.63,10.82,4.23,14.29,8.8,5.96,7.86,6.89,18.02,5.35,27.49-1.04,6.37-3.39,12.06-8.91,15.81-2.65,1.8-5.34,2.54-8.41,3.23,4.17,7.24,6.41,14.79,4.03,23.18-1.91,6.71-6.77,11.16-12.75,14.33-9.88,5.24-28.2,4.67-38.62,1.45-6.42-1.98-11.97-5.86-15.03-11.98-3.01-6.03-2.99-13.38-.63-19.62,3-7.95,9.92-15.19,17.72-18.53,9.21-3.94,20.27-3.65,29.74-.85-1.7-3.36-3.65-7.14-6-10.07Z"/>
      <path class="cls-3" d="M238.58,132.36c-1.66-7.26-1.95-13.61,2.34-20.16,2.67-4.09,6.69-7.75,11.6-8.77,4.04-.84,8.07.25,11.45,2.53,5.63,3.8,8.81,9.88,9.88,16.47,1.13,6.92.91,15.91-3.24,21.8-3.08,4.36-7.13,6.09-12.16,7.08-4.57-3.86-8.37-6.53-13.87-8.89-1.7-3.36-3.65-7.14-6-10.07Z"/>
      <path class="cls-2" d="M248.18,118.83c1.02-.06,2.09-.14,3.09.08,3.06.66,5.9,3.09,7.38,5.79,1.83,3.33,2.23,7.48.96,11.08-1.19,3.4-3.28,5.21-6.45,6.73-1.2,0-2.34-.17-3.5-.47-.37-.1-.73-.21-1.08-.34-.35-.13-.7-.28-1.04-.45-.34-.17-.67-.35-.99-.55-.32-.2-.63-.42-.93-.65-.3-.23-.59-.48-.86-.74-.28-.26-.54-.53-.78-.82-.25-.29-.48-.58-.7-.89-.22-.31-.42-.63-.61-.96-1.74-3.03-2.08-6.86-1.06-10.19,1.12-3.66,3.32-5.79,6.57-7.63Z"/>
      <path class="cls-1" d="M225.49,145.59c9.25-.52,17.76-.16,25.5,5.61.32.24.63.48.94.73.31.25.6.51.9.78.29.27.58.54.86.82.28.28.55.57.81.86.26.29.52.6.77.9.25.31.49.62.72.94.23.32.46.65.67.98.22.33.42.67.62,1.01.2.34.39.69.57,1.04.18.35.35.71.52,1.07s.32.72.46,1.09c.15.37.28.74.41,1.12.13.38.24.75.35,1.14.11.38.2.76.29,1.15.09.39.17.77.23,1.16.07.39.13.78.17,1.17.68,5.38-.37,10.95-3.82,15.25-4.99,6.24-12.51,7.84-20,8.67-9.79.16-21.1.56-29.35-5.64-3.9-2.93-6.5-7.12-7.1-11.99-.78-6.24,1.63-12.27,5.49-17.09,5.27-6.59,11.6-9.86,19.97-10.78Z"/>
      <path class="cls-2" d="M241.82,162.33c.81-.02,1.61-.06,2.39.19,1.28.41,2.23,1.38,2.78,2.58,1.11,2.43.68,5.05-.29,7.45-.97,2.39-1.94,3.04-4.22,3.99-.42,0-.84,0-1.26-.01-1.49-.07-2.64-.55-3.55-1.8-.8-1.1-1.02-2.53-.89-3.85.37-3.78,2.18-6.25,5.04-8.55Z"/>
      <path class="cls-2" d="M218.79,161.36l2.32.23c.93.57,1.63,1.03,2.23,1.96,1.46,2.29,1.65,5.02,1.05,7.62-.52,2.3-1.28,3.28-3.28,4.49-1.37.06-3.17.32-4.33-.55-1.42-1.06-2.16-2.87-2.21-4.61-.1-3.79,1.67-6.58,4.23-9.14Z"/>
      <path class="cls-3" d="M187.91,153.63c-1.23,2.81-3.27,4.48-6.04,5.74-5.38,2.46-13.11,1.68-18.45-.55-5.98-2.5-10.51-7.46-12.78-13.5-3.12-8.3-2.29-18.59,1.41-26.57,3.05-6.59,7.81-12.51,14.91-14.92.34-.12.69-.23,1.04-.33.35-.1.7-.19,1.06-.27.35-.08.71-.15,1.07-.22.36-.06.72-.12,1.08-.16.36-.05.72-.08,1.09-.11.36-.03.73-.04,1.09-.05.36,0,.73,0,1.09,0,.36.01.73.03,1.09.06.36.03.72.07,1.08.12.36.05.72.11,1.08.17.36.07.71.14,1.07.22.35.08.7.18,1.05.28.35.1.7.21,1.04.33.34.12.68.25,1.02.39.34.14.67.28,1,.44.33.15.65.32.98.49.34.18.68.37,1.01.56.33.2.66.4.99.61.32.21.64.43.95.66.31.23.62.46.92.71.3.24.6.5.88.75.29.26.57.53.84.8.27.27.54.55.8.84.26.29.51.58.76.88.25.3.48.6.71.92.23.31.45.63.67.95.21.32.42.65.62.98.2.33.39.67.57,1.01.18.34.35.69.52,1.04.16.35.32.71.46,1.06.15.36.28.72.41,1.09.13.37.25.73.35,1.11,1.11,3.82,2.14,15.67.08,18.88-.12.18-.25.35-.38.53-1.82,4.99-3.13,9.18-6.22,13.63-.32.46-.61.94-.91,1.4Z"/>
      <path class="cls-2" d="M187.91,153.63c-1.23,2.81-3.27,4.48-6.04,5.74-5.38,2.46-13.11,1.68-18.45-.55-5.98-2.5-10.51-7.46-12.78-13.5-3.12-8.3-2.29-18.59,1.41-26.57,3.05-6.59,7.81-12.51,14.91-14.92.34-.12.69-.23,1.04-.33.35-.1.7-.19,1.06-.27.35-.08.71-.15,1.07-.22.36-.06.72-.12,1.08-.16.36-.05.72-.08,1.09-.11.36-.03.73-.04,1.09-.05.36,0,.73,0,1.09,0,.36.01.73.03,1.09.06.36.03.72.07,1.08.12.36.05.72.11,1.08.17.36.07.71.14,1.07.22.35.08.7.18,1.05.28.35.1.7.21,1.04.33.34.12.68.25,1.02.39.34.14.67.28,1,.44.33.15.65.32.98.49.34.18.68.37,1.01.56.33.2.66.4.99.61.32.21.64.43.95.66.31.23.62.46.92.71.3.24.6.5.88.75.29.26.57.53.84.8.27.27.54.55.8.84.26.29.51.58.76.88.25.3.48.6.71.92.23.31.45.63.67.95.21.32.42.65.62.98.2.33.39.67.57,1.01.18.34.35.69.52,1.04.16.35.32.71.46,1.06.15.36.28.72.41,1.09.13.37.25.73.35,1.11,1.11,3.82,2.14,15.67.08,18.88-.12.18-.25.35-.38.53.08-9.53-.18-18.72-7.39-25.93-3.81-3.81-8.95-5.6-14.3-5.38-5.08.22-9.63,2.32-13.06,6.08-5.35,5.86-7.72,14.9-7.24,22.71.4,6.44,2.92,12.56,7.87,16.83,4.5,3.88,10.27,5.43,16.14,4.78,3.98-.44,7.52-1.86,10.85-4.06Z"/>
      <path class="cls-2" d="M168.65,121.97c1.39.2,2.96.36,4.16,1.15,2.77,1.81,4.46,5.38,5,8.55.73,4.25.01,8.99-2.65,12.48-1.93,2.53-3.84,3.05-6.89,3.49-1.74-.2-3.86-.54-5.38-1.44-2.25-1.33-3.7-3.91-4.28-6.39-.98-4.14-.26-9.07,2.05-12.66,2-3.11,4.43-4.44,7.98-5.18Z"/>
      <path class="cls-2" d="M172.96,185.14c9.11.63,12.54,7.84,20.45,10.72,5.91,2.15,13.33,1.98,19.55,3,2.68.44,6.81,1.33,8.24,3.94.55,1,.54,2.16.22,3.23-1.63,5.47-7.61,9.32-12.27,12.06-4.16,2.07-8.27,3.4-12.93,3.77-7.26.58-13.84-1.24-19.41-6.04-6.68-5.75-7.94-11.93-8.52-20.28-1.62-.59-3.11-1.11-4.54-2.09,1.81-3.11,5.67-7.36,9.2-8.3Z"/>
      <path class="cls-1" d="M179.8,203.74c3.31-.25,6.75.17,9.98.94,6.76,1.61,12.01,4.82,15.69,10.8l-5.44,1.74c-4.53.77-9.35.74-13.73-.73-3.63-1.22-10.22-4.88-11.64-8.67-.44-1.18-.17-1.73.24-2.82,1.38-1.23,3.16-1.11,4.92-1.26Z"/>
      <path class="cls-1" d="M111.88,82.57c-.38.16-.77.31-1.16.45-1.68.59-3.17.26-4.69-.57-5.47-2.97-8.79-12.25-10.52-17.91-1.86-6.09-4.77-22.48-1.34-28.04.42-.69.36-.46,1.28-.58,10.4,1.69,19.6,6.29,25.87,15.02,3.14,4.37,5.5,9.86,4.68,15.34-.95,6.38-9.13,12.59-14.1,16.29Z"/>
      <path class="cls-2" d="M95.43,35.92c10.4,1.69,19.6,6.29,25.87,15.02,3.14,4.37,5.5,9.86,4.68,15.34-.95,6.38-9.13,12.59-14.1,16.29.95-7.19,9.18-11.99,9.15-19.06-.03-8.61-10.48-18.52-17.35-22.64-2.07-1.24-6.58-2.8-7.97-4.5-.11-.14-.18-.3-.28-.45Z"/>
      <path class="cls-2" d="M171.61,78.32c3.51-.19,6.99.44,10.15,2,1.37.68,2.04,1.24,2.53,2.68-.15.41-.12.93-.44,1.21-.73.65-11-.31-12.76-.14-2.79.27-5.05,1.39-7.48,2.66-1.71,1.22-3.43,2.5-5.21,3.6-1.31.81-2.32,1.12-3.8.75-.12-1.4.27-2.14,1.05-3.31,3.62-5.41,9.81-8.2,15.96-9.45Z"/>
      <path class="cls-2" d="M248.59,77.39c2.45.06,4.95.33,7.32.98,5.5,1.51,8.25,4.98,10.92,9.69-2.83-1.09-5.56-2.43-8.31-3.72-5.91-2.29-10.32-.71-16.26-.55-.91.03-1.23.2-1.92-.46-.22-1.17-.39-1.64.46-2.65,1.78-2.12,5.21-2.88,7.79-3.29Z"/>
      <path class="cls-2" d="M140.74,225.15c7.01,2.67,13.96,5.26,21.18,7.33-.03,6.46,1.59,11.38,6.3,16.07,6.96,6.92,18.33,10.41,28,10.16,7.2-.19,14.46-2.92,19.48-8.19,3.98-4.18,5.67-9,6.65-14.57l6.11-1.23c.63,1.59,1.23,3.19,1.81,4.81.58,1.61,1.13,3.23,1.66,4.86.53,1.63,1.03,3.26,1.51,4.91.48,1.64.93,3.3,1.36,4.95s.83,3.32,1.2,4.99c.38,1.67.73,3.35,1.05,5.03.32,1.68.62,3.37.89,5.06.27,1.69.52,3.39.73,5.08.22,1.7.41,3.4.57,5.1.17,1.7.3,3.41.42,5.12.11,1.71.2,3.42.26,5.13.06,1.71.09,3.42.1,5.14,0,1.71-.01,3.42-.06,5.14-.05,1.71-.12,3.42-.22,5.13-.1,1.71-.23,3.42-.38,5.12-.15,1.71-.33,3.41-.54,5.11-.89,5.26-2.01,10.28-3.39,15.44-.8,3.22-1.68,6.42-2.63,9.6-11.53,5.93-24.39,7.24-37.21,7.5-35.29.72-80.29-5.84-106.66-31.09l2.03-6.65c1.71-5.4,3.46-10.86,4.82-16.37,1.9-5.93,3.72-11.88,5.46-17.85,7.56,3.58,15.16,5.21,23.33,2.29,7.86-2.81,13.47-9.59,16.83-17,4.24-9.36,5.53-20.67,1.87-30.43-.73-1.95-1.58-3.84-2.54-5.69Z"/>
      <path class="cls-3" d="M140.74,225.15c7.01,2.67,13.96,5.26,21.18,7.33-.03,6.46,1.59,11.38,6.3,16.07,6.96,6.92,18.33,10.41,28,10.16,7.2-.19,14.46-2.92,19.48-8.19,3.98-4.18,5.67-9,6.65-14.57l6.11-1.23c.63,1.59,1.23,3.19,1.81,4.81.58,1.61,1.13,3.23,1.66,4.86.53,1.63,1.03,3.26,1.51,4.91.48,1.64.93,3.3,1.36,4.95s.83,3.32,1.2,4.99c.38,1.67.73,3.35,1.05,5.03.32,1.68.62,3.37.89,5.06.27,1.69.52,3.39.73,5.08.22,1.7.41,3.4.57,5.1.17,1.7.3,3.41.42,5.12.11,1.71.2,3.42.26,5.13.06,1.71.09,3.42.1,5.14,0,1.71-.01,3.42-.06,5.14-.05,1.71-.12,3.42-.22,5.13-.1,1.71-.23,3.42-.38,5.12-.15,1.71-.33,3.41-.54,5.11-2.3.5-11.37,3.2-12.89,2.23-.03-.02-.05-.06-.08-.09l.14-.65c2.11-9.85,6.76-41.16,1.8-48.87-1.21-.67-32.53-.19-37.07-.4-5.75-.26-11.48-.69-17.21-1.29-5.65-.64-11.2-1.68-16.91-1.68-2.13,16.53-5.29,32.68-9.1,48.91-15.22-3.54-38.92-11.27-51.72-19.72,1.9-5.93,3.72-11.88,5.46-17.85,7.56,3.58,15.16,5.21,23.33,2.29,7.86-2.81,13.47-9.59,16.83-17,4.24-9.36,5.53-20.67,1.87-30.43-.73-1.95-1.58-3.84-2.54-5.69Z"/>
      <path class="cls-5" d="M90.98,310.2c1.71-5.4,3.46-10.86,4.82-16.37,12.8,8.45,36.5,16.18,51.72,19.72-.56,2.26-2.12,6.53-1.14,8.71.86,1.92,5.22,2.98,7.05,3.38,16.6,3.69,55.83,6.41,70.64-.2.5-2.66.9-5.36,1.8-7.92.03.03.04.07.08.09,1.52.97,10.59-1.73,12.89-2.23-.89,5.26-2.01,10.28-3.39,15.44-.8,3.22-1.68,6.42-2.63,9.6-11.53,5.93-24.39,7.24-37.21,7.5-35.29.72-80.29-5.84-106.66-31.09l2.03-6.65Z"/>
      <path class="cls-3" d="M90.98,310.2c.28.1.56.21.84.31,5.68,2.19,10.98,6.16,16.5,8.81,18.96,9.09,39.21,15.98,60.18,18.36,14.9,1.69,30.96,1.14,45.75-1.41,3.5-.6,19.21-6.03,21.2-5.45-.8,3.22-1.68,6.42-2.63,9.6-11.53,5.93-24.39,7.24-37.21,7.5-35.29.72-80.29-5.84-106.66-31.09l2.03-6.65Z"/>
      <path class="cls-3" d="M160.68,269.49c21.51,2.83,41.87,3.75,63.57,2.75,2.75,16.08-1.07,34.75-4.5,50.53l-5.62.7c-20.53,2.69-43.13.92-63.26-3.66,3.85-12.77,8.83-37.34,9.81-50.31Z"/>
      <path class="cls-2" d="M189.18,278.28c3.3-.25,6.64-.05,9.95.05-.13,10.57-2.98,21.77-4.93,32.15,2.36.74,3.85,1.35,5.2,3.53-.16,1.23-.2,1.53-1.3,2.33-3.28,2.41-7.01,1.7-10.72,1.23-1.92-.18-5.98-.11-7.5-1.12-.44-.29-.4-.39-.49-.95-.32-1.91.35-3.34,1.32-4.92,1.91-1.17,3.86-.7,6.06-.64,1.13-6.54,2.13-13.11,3.18-19.66-1.13,0-2.31.03-3.43-.11-1.26-.16-2.52-1.01-3.18-2.08-.59-.95-.66-2.09-.38-3.16.89-3.28,3.45-5.02,6.22-6.65Z"/>
      <path class="cls-6" d="M98.04,212.3c8.32-.67,19.04.51,26.4,4.69,7.21,4.1,13.05,9.63,15.21,17.89,2.45,9.33.36,20.03-4.56,28.23-3.32,5.52-8.26,9.84-14.64,11.29-6.28,1.43-12.38-.06-17.73-3.44l1.86-8.2c2.11.05,4.09.36,5.77-1.07l-.16-.94c-5.35-4.03-14.44-5.1-20.95-6.56-6.67,2.55-15.38,7.16-20.48,12.18-.46.45-1.68,1.83-1.55,2.48.46,2.25,6.3,5.06,5.98,12.98-.2,4.8-2.83,7.9-6.13,11.03-1.08.08-1.05-.02-1.96-.47-.8-1.65,0-3.7.1-5.49l-.68-.49c-1.58.4-2.64,1.33-3.49,2.71-.8,1.32-1.22,2.82-.73,4.35.76,2.35,3.14,3.44,5.12,4.63-.62,1.05-1.24,2.08-2.02,3.02-1.79,2.16-5.02,4.83-7.93,4.98-6.54.34-10.42-6.86-14.77-10.57l-.68.18c-.29,1.22-.42,2.09-1.25,3.07-6.24-.73-4.42-9.77-8.34-11.85l-1.01.51c-1.04,1.86-1.17,3.74-1.41,5.81-2.82-3.69-4.57-6.98-4.83-11.74-.72-13.06,8.44-17.29,14.44-26.59,1.51-2.34,2.5-5.15,3.64-7.69,2.13-4.76,4.86-8.97,8.31-12.9,12.36-14.11,30.18-20.73,48.51-22.03Z"/>
      <path class="cls-4" d="M89.98,325.08c5.93,2.82,11.27,7.25,17.17,10.3,30.26,15.62,87.46,23.23,119.65,12.89-3.83,8.01-9.13,15.63-15.55,21.76-3.79-3.11-15.03-12.62-20.15-12.32.23,1.42.8,1.88,1.69,2.98,2.17,1.99,4.45,3.87,6.67,5.79-6.11,1.17-12.11,3.36-17.68,6.1-15.48,7.62-24,17.19-29.45,33.4-21.54-9.3-47.25-24.85-58.68-45.95-5.9-10.9-7.17-23.1-3.68-34.95Z"/>
      <path class="cls-6" d="M288.39,231.69c.41-.03.82-.05,1.23-.06,2.93-.07,4.74.43,6.84,2.55,2.52,2.55,5.08,6.75,4.86,10.49-.09,1.54-.75,2.24-1.87,3.19-3.57.71-6.04-3.41-9.28-4.2-.71,1.07-.46,1.9-.19,3.14,2.22,9.99,9.13,2.46,13.92,5.6-.08,1.45-.13,2.9-.16,4.35-.02,2.46.69,4.91,2.53,6.64,2.6,2.45,6.81,3.03,10.24,2.9,2.35-.08,5.04-.59,6.68-2.39l-.24-.79c-3.57-1.52-7.87-.73-11.64-1.8-1.58-.45-3.21-1.21-3.95-2.77-.51-1.06-.12-2.2.38-3.19,1.88-3.66,6.96-6.46,10.71-7.65,2.7-.85,6.22-1.36,8.78.18,1.66,1,2.71,2.67,3.09,4.55.9,4.5-1.62,9.64-4.16,13.19-3.05,4.26-10.66,11.2-16.06,11.62-1.38.11-2.1-.15-3.12-1.06-.16-.15-.31-.31-.47-.47-2.53,2.12-3.95,5.48-5.97,8.09-4.3,5.55-10.2,9.91-16.01,13.75-4.71,2.64-9.69,4.78-15.06,5.62-9.36,1.46-16.81-1.51-24.23-6.84-.67-5.24-.75-10.58-1.27-15.84-.95-8.85-2.43-17.61-4.43-26.29-.78-3.31-1.65-6.67-2.82-9.87-1.15-3.12-3.57-6.65-3.98-9.86.3-.06.6-.16.9-.17,5.25-.08,25.06,22.04,29.73,26.92-2.36,1.96-4.41,3.98-6.45,6.27l1.82-.53c6.4-1.86,10.46-6.1,16.14-9.17,1.6-.87,2.27-.59,3.95-.1,1.2.35,1.91.63,3.18.37.14-.25.4-.46.42-.75.04-.48-.67-2.28-.83-2.84-1.28-4.63-1.89-9.68-.52-14.37,1.25-4.25,3.51-6.37,7.31-8.42Z"/>
      <path class="cls-6" d="M200.33,371.15c1.2-.16,2.53-.36,3.72-.07,8.51,2.06,18.57,24.18,22.24,31.99-14.82,6.42-25.82,16.11-34.85,29.44l-3.27-3.43c-9.2-9.12-18.62-16.86-30.71-21.8,1.13-5.1,3.05-9.72,6.04-14.01,8.21-11.79,22.94-19.53,36.83-22.11Z"/>
      <path class="cls-6" d="M236.72,41.52c10.68-12.92,24.57-23.71,41.94-25.17,3.04-.26,6.12.13,8.53,2.15,3.7,3.11,4.36,8.51,4.62,13.04,1,17.41-2.3,35.39-12.86,49.55-2.13-3.57-4.33-7.09-6.59-10.58-3.65-4.94-8.03-9.29-11.54-14.34,2.46-8.43,6.11-13.93,11.97-20.33,1.79-1.96,4-3.93,5.13-6.33-3.84.48-11.19,7.74-13.78,11.04-3.11,3.95-5.55,8.38-7.49,13.01-6.39-4.69-12.91-8.44-19.94-12.05Z"/>
      <path class="cls-1" d="M277.93,29.52c4.74,8.34,6.2,16.77,3.59,26.12-1.44,5.16-4.74,11.74-9.16,14.89-3.65-4.94-8.03-9.29-11.54-14.34,2.46-8.43,6.11-13.93,11.97-20.33,1.79-1.96,4-3.93,5.13-6.33Z"/>
      <path class="cls-6" d="M84.23,355.49c1.81-.08,2.18.03,3.02,1.71,8.47,17.02,21.52,28.96,37.41,39.02-6.1,4.28-12.79,6.68-19.81,8.98-15.89,3.7-24.72.43-38.47-7.86-1.73-10.26-.01-20.46,4.74-29.72,3.03-5.92,6.69-10.02,13.11-12.13Z"/>
      <path class="cls-4" d="M47.87,339.5c.93-.05,1.86-.1,2.79-.09,5.99.08,9.98,4.68,13.83,8.65-2.55,1.39-4.88,2.87-6.87,5.02-7.97,8.67-10.96,21.02-10.42,32.5,1.31,2.06,2.75,4.05,4.15,6.06-4.84,5.28-10.11,8.71-16.38,12.14-.57.31-1.14.6-1.72.88-2.98,1.44-7.21,2.12-10.39.9-2.25-.86-3.74-2.74-4.63-4.93-3.63-8.96.47-21.57,4.05-29.96,5.02-11.77,13.15-26.15,25.58-31.18Z"/>
      <path class="cls-4" d="M256.67,406.8c2.08-.18,4.21-.24,6.28.04,2.5.34,6.71.91,8.28,3.03.02,1.78-2.41,2.41-3.87,3.22-17.21,9.45-39.5,34.21-48.53,51.42l-1.89,4.1c-4.59-4.31-7.57-9.17-10.37-14.75,2.4-6.52,5.79-12.36,9.93-17.93,10.55-14.21,21.96-26.44,40.17-29.13Z"/>
      <path class="cls-4" d="M273.02,414.09c.37.58.54,1.08.62,1.79.87,7.3-4.36,15.55-8.55,21.13-8.83,11.76-28.47,30.55-43.27,32.71-.25-.24-.35-.6-.51-.91,6.46-17.38,35.92-44.12,51.71-54.71Z"/>
      <path class="cls-6" d="M166.17,233.65c17.61,3.85,33.86,4.12,51.72,2.86-1.23,4.54-2.62,7.52-5.6,11.18-3.51,3.24-7.21,5.3-11.96,6.14-8.3,1.48-19.39-1.28-26.15-6.3-4.82-3.57-7.24-8-8.01-13.88Z"/>
      <path class="cls-3" d="M228.06,407.16c1.4,1.6,2.36,4.32,3.33,6.25-11.94,8.43-20.24,21.44-27.48,33.88-1.13-.51-2.14-2.18-2.93-3.18l-6.18-8.09c9.77-13.85,18.29-21.02,33.26-28.86Z"/>
      <path class="cls-3" d="M66.86,351.76c1.92.28,4.85,2.49,6.68,3.49-6.15,8.76-11.34,18.42-11.85,29.36-.13,2.76.71,6.59-.26,9.13l-.99-.28c-2.15-1.44-4-2.85-5.45-5.03-3.12-4.69-3.76-9.94-2.54-15.37,2-8.86,6.69-16.42,14.41-21.29Z"/>
      <path class="cls-6" d="M314.08,230.75c2.97-.22,6.45-.62,8.82,1.58,2.53,2.35,2.42,6.26,2.55,9.44-4.35.8-8.41,2.15-12.51,3.79-1.6.9-4.83,3.28-6.58,2.87-.34-.54-.67-1.05-.91-1.65-1.18-2.99-1.29-7.28.15-10.21,1.74-3.52,5.03-4.61,8.48-5.82Z"/>
      <path class="cls-6" d="M300.32,221.74c3.42-.26,7.94-.95,10.99.95.94.58,1.68,1.25,1.93,2.36-1.45,1.68-5.11,2.97-7.07,4.29l-.53.36-2.84,2.55c-1.88-1.95-4.67-3.16-6.34-5.14-.68-.81-.59-1.14-.54-2.13,1.11-1.61,2.73-2.32,4.41-3.24Z"/>
    </g>
  </g>
</svg>