<?xml version="1.0" encoding="UTF-8"?>
<svg id="Layer_2" data-name="Layer 2" xmlns="http://www.w3.org/2000/svg" viewBox="0 0 308.94 487">
  <defs>
    <style>
      .cls-1 {
        fill: #d73524;
      }

      .cls-1, .cls-2, .cls-3, .cls-4, .cls-5, .cls-6, .cls-7, .cls-8, .cls-9, .cls-10, .cls-11, .cls-12, .cls-13 {
        stroke-width: 0px;
      }

      .cls-2 {
        fill: #45891d;
      }

      .cls-3 {
        fill: #000;
      }

      .cls-4 {
        fill: #fefcfb;
      }

      .cls-5 {
        fill: #ec918d;
      }

      .cls-6 {
        fill: #fcbc20;
      }

      .cls-7 {
        fill: #843912;
      }

      .cls-8 {
        fill: #6f1919;
      }

      .cls-9 {
        fill: #e97575;
      }

      .cls-10 {
        fill: #003a86;
      }

      .cls-11 {
        fill: #343c43;
      }

      .cls-12 {
        fill: #fbaba7;
      }

      .cls-14 {
        fill: #fff;
        stroke: #fff;
        stroke-miterlimit: 10;
        stroke-width: 25px;
      }

      .cls-13 {
        fill: #7cbd27;
      }
    </style>
  </defs>
  <g id="Layer_1-2" data-name="Layer 1">
    <path class="cls-14" d="M294.26,153.8c-.77-1.63-1.82-3.02-3.2-4.17-.52-.43-22.11-13.09-22.89-13.35-4-1.35-7.81-1.3-11.61.65-6.85,3.52-13.78,16.41-16.01,23.64-1.31,4.22,1.29,8.19.83,12.11-.26,2.2-11.7,14.74-14.15,16.4,6.48-11.84,2.66-37.52-1.1-50.29-2.52-8.53-6.15-17.58-11.49-24.75,5.27-10.39-.04-40.93-3.69-52.01-1.12-3.39-3.11-8.62-6.57-10.2-3.58-1.63-9.38.17-12.79,1.68-7.24,3.23-13.23,9.37-20.43,12.23.5-.94.82-1.9.77-2.99-.35-6.54-3.87-32.75-5.5-38.34-.3-1.05-.74-1.79-1.39-2.66-4.88-6.11-18.5-7.57-26-8.41-8.34-.93-17.28-1.22-25.63-.38-18.2,2.65-53.39,10.06-64.93,25.62-2.35,3.18-2.6,6.24-1.97,10,1.1,6.62,9.69,26.45,8.14,31.21-8.93-1.44-24.45-3.63-32.19,2.39-3.66,2.85-4.96,7.43-5.36,11.86-1.13,12.31.96,28.51,6.41,39.49,2.66,5.34,6.23,9.97,9.67,14.8.44.61.29.44.51,1.34.03.14.06.29.08.43.67,4.01-1,8.87-1.51,12.91-1.18,9.33-.61,19.73,1.55,28.82,1.94,8.1,5.78,16.99,11.02,23.51,2.7,3.36,16.85,15.3,17.52,17.18-.25.21-.5.43-.75.64-3.81,3.16-9.58,5.55-13.85,8.21-15.92,9.89-32.63,24.32-34.99,44.09-1.6,13.41,4.28,26.1,12.52,36.35,2.53,3.11,5.25,6.04,8.15,8.81,2.91,2.76,5.98,5.33,9.21,7.7l.29-.98c2.02,5.74,3.67,9.69,8.58,13.59,1.22.96,3.18,1.95,4.12,3.11-.85,4.12-2.15,8-3.53,11.96,2.86,2.77,8.66,5.85,10.74,8.43.91,4.4-1.55,11.9-3.66,15.82-8.98,3.01-17.33,4.75-21.97,14.02-3.14,6.24-3.95,15.28-1.53,21.9.84,2.3,2.48,4.09,3.44,6.27.13.25.26.49.38.74.5,1.02.59,1.97.75,3.08,1.22,8.66,7.04,18.66,14.03,23.94,4.81,3.64,10.9,5.67,16.94,4.8.31-.04.62-.1.93-.16.31-.06.62-.13.92-.2s.61-.16.91-.25c.3-.09.6-.19.89-.3.3-.11.59-.22.88-.34.29-.12.58-.25.86-.38.29-.14.57-.28.85-.43s.55-.31.82-.47c.27-.16.54-.33.8-.51.27-.18.52-.36.77-.55.25-.19.5-.39.75-.59.24-.2.48-.41.71-.62.23-.21.46-.43.68-.66.22-.23.43-.46.64-.69.21-.24.41-.48.6-.72.2-.25.39-.5.57-.75,3.93-5.5,4.53-12.2,3.38-18.73-.27-1.52-.86-2.89-1.57-4.25,15.76-2.1,25.3-9.86,34.81-22.23,2.81-3.66,8.85-11.86,8.74-16.52,0-.2-.06-.4-.09-.6,5.66-.26,11.33-.57,17-.76,10.38,6.82,21.51,38.71,23.82,50.78.25,1.32.47,2.54,0,3.84.09.11.17.22.24.33,3.08,4.76-.23,21.68,10.8,24.92,3.92,1.15,10.65-.96,14.11-2.93,1.06-.6,1.92-1.5,2.72-2.41,13.76-.18,29.49-2.8,39.64-13.06,2.99-3.02,5.14-6.96,4.95-11.32-.16-3.5-1.85-6.3-4.46-8.55-6.23-5.39-15.54-7.87-23.6-8.46,4.03-10.81.33-47.54-4.59-58.49-.53-1.2-1.33-2.2-2.24-3.14,3.39-1.84,10.54-5.96,11.6-9.82,1.86-6.79-5.74-73.29-9.4-79.19-.33-.53-.49-.68-.87-1.1,6.28-2.8,12.28-7.83,17.64-12.1,20.71-16.5,43.05-38.46,52.58-63.78,1.17-3.1-.43-4.93.14-6.88.21-.76,3.1-3.28,3.76-3.99,8.83-9.44,17.79-21.56,11.36-35.17Z"/>
    <g>
      <path class="cls-3" d="M113.41,13c8.35-.84,17.29-.55,25.63.38,7.5.84,21.12,2.3,26,8.41.65.86,1.09,1.61,1.39,2.66,1.63,5.59,5.15,31.79,5.5,38.34.05,1.08-.27,2.05-.77,2.99,7.21-2.86,13.19-9,20.43-12.23,3.41-1.51,9.21-3.31,12.79-1.68,3.47,1.58,5.46,6.81,6.57,10.2,3.65,11.08,8.96,41.62,3.69,52.01,5.34,7.17,8.96,16.22,11.49,24.75,3.76,12.77,7.58,38.45,1.1,50.29,2.45-1.66,13.89-14.21,14.15-16.4.47-3.92-2.14-7.89-.83-12.11,2.23-7.23,9.17-20.12,16.01-23.64,3.8-1.96,7.6-2,11.61-.65.78.26,22.37,12.92,22.89,13.35,1.38,1.15,2.43,2.54,3.2,4.17,6.43,13.6-2.53,25.73-11.36,35.17-.66.7-3.54,3.23-3.76,3.99-.56,1.95,1.03,3.79-.14,6.88-9.53,25.32-31.87,47.28-52.58,63.78-5.36,4.27-11.35,9.29-17.64,12.1.39.42.54.56.87,1.1,3.66,5.9,11.27,72.4,9.4,79.19-1.06,3.86-8.21,7.98-11.6,9.82.91.94,1.71,1.94,2.24,3.14,4.92,10.95,8.62,47.68,4.59,58.49,8.06.59,17.37,3.07,23.6,8.46,2.6,2.25,4.3,5.05,4.46,8.55.18,4.36-1.96,8.3-4.95,11.32-10.15,10.26-25.88,12.88-39.64,13.06-.8.9-1.66,1.8-2.72,2.41-3.46,1.97-10.19,4.08-14.11,2.93-11.03-3.24-7.72-20.15-10.8-24.92-.08-.11-.16-.22-.24-.33.47-1.3.25-2.52,0-3.84-2.31-12.07-13.44-43.96-23.82-50.78-5.66.19-11.33.5-17,.76.03.2.09.4.09.6.11,4.66-5.93,12.85-8.74,16.52-9.51,12.37-19.04,20.13-34.81,22.23.71,1.36,1.3,2.73,1.57,4.25,1.15,6.53.55,13.23-3.38,18.73-.18.26-.37.51-.57.75-.19.25-.4.49-.6.72-.21.24-.42.47-.64.69-.22.23-.45.45-.68.66-.23.21-.47.42-.71.62-.25.2-.5.4-.75.59-.25.19-.5.37-.77.55-.26.18-.52.35-.8.51-.27.16-.54.32-.82.47s-.56.29-.84.43c-.28.14-.57.26-.86.38-.29.12-.59.23-.88.34-.29.11-.59.2-.89.3s-.61.17-.91.25c-.3.08-.61.14-.92.2-.31.06-.62.11-.93.16-6.04.87-12.13-1.16-16.94-4.8-6.99-5.28-12.81-15.28-14.03-23.94-.16-1.11-.25-2.06-.75-3.08-.12-.25-.25-.49-.38-.74-.96-2.19-2.59-3.98-3.44-6.27-2.42-6.62-1.6-15.66,1.53-21.9,4.64-9.26,12.98-11.01,21.97-14.02,2.11-3.91,4.57-11.41,3.66-15.82-2.08-2.57-7.88-5.66-10.74-8.43,1.38-3.97,2.67-7.84,3.53-11.96-.94-1.16-2.89-2.14-4.12-3.11-4.91-3.9-6.57-7.85-8.59-13.59l-.29.98c-3.23-2.37-6.3-4.94-9.21-7.7-2.9-2.76-5.62-5.7-8.15-8.81-8.24-10.25-14.12-22.93-12.52-36.35,2.36-19.76,19.07-34.19,34.99-44.09,4.27-2.66,10.04-5.05,13.85-8.21.25-.21.5-.43.75-.64-.67-1.88-14.82-13.82-17.52-17.18-5.24-6.52-9.08-15.41-11.02-23.51-2.17-9.09-2.73-19.49-1.55-28.82.5-4.04,2.18-8.89,1.51-12.91-.02-.14-.05-.29-.08-.43-.22-.9-.08-.73-.51-1.34-3.44-4.83-7.01-9.46-9.67-14.8-5.45-10.98-7.54-27.18-6.41-39.49.4-4.43,1.7-9.01,5.36-11.86,7.74-6.02,23.26-3.84,32.19-2.39,1.55-4.76-7.04-24.59-8.14-31.21-.63-3.77-.38-6.83,1.97-10,11.55-15.56,46.73-22.98,64.93-25.62Z"/>
      <path class="cls-12" d="M36.13,180.85c2.74-6.49-.96-17.42,1.49-24.7,1.65-4.94,4.85-1.08,7.55-2.44-1.03-3.94-9.19-9.02-11.89-12.64-4.45-5.97-7.57-14.7-9.28-21.9-1.83-7.65-5.19-25.39-.61-31.84,1.4-1.98,4.88-2.72,7.17-3.12,11.3-2,34.72.63,44.43,7.49-2.63,3.15-8.25,6.14-11.64,8.75-7.61-6.44-18.64-9.4-28.39-10.04l-1.46.57c4.09,2.76,10.2,3.42,14.83,5.27,7.87,3.14,14.74,9.52,21.07,15.02.63-1.12,1.18-1.47.83-2.8-.43-1.65-1.76-2.9-2.88-4.11,36.06,1.22,77.99-5.42,113.62-11.39,15.32,5.11,27.51,17.67,34.66,31.87,10.6,21.03,13.7,47.92,6.06,70.39-2.21,6.53-7.93,19.8-14.31,23.18-.19.1-.4.19-.59.28l-.1.98c-5.62,8.54-19.39,16.16-28.61,20.22-28.98,12.77-61.93,11.06-91.08-.32-19.09-7.45-36.75-19.22-44.56-39.01-2.46-6.21-3.34-13.24-6.05-19.21-.09-.17-.17-.34-.25-.52Z"/>
      <path class="cls-9" d="M44.08,143.71c-.68-2.18-9.07-11.29-11.69-17.69-3.24-7.93-7.52-26.7-4.04-34.71.29-.66,1.1-1.14,1.79-1.33,1.63-.44,3.33-.38,4.81.44l-1.46.57c4.09,2.76,10.2,3.42,14.83,5.27,7.87,3.14,14.74,9.52,21.07,15.02-1.49,4.05-9.33,8.54-12.24,12.31-4.66,6.06-7.52,15.18-13.07,20.12Z"/>
      <path class="cls-5" d="M36.13,180.85l3.54.45c3.04,6.3,5.49,13.17,9.25,19.08,10.78,16.98,31.86,30.84,50.63,37.35.84.29,1.67.57,2.52.84.84.27,1.69.53,2.53.78.85.25,1.7.49,2.55.72.85.23,1.71.45,2.57.66.85.21,1.72.41,2.58.6.86.19,1.73.37,2.6.53.87.17,1.74.32,2.61.47.87.15,1.74.28,2.62.41.87.12,1.75.24,2.63.34.87.1,1.75.2,2.63.28.88.08,1.76.15,2.65.21.88.06,1.76.11,2.64.15.89.04,1.77.07,2.65.08.89.02,1.77.02,2.66.02.88,0,1.76-.02,2.65-.04.88-.03,1.76-.06,2.65-.11.88-.05,1.76-.11,2.65-.17.88-.07,1.76-.15,2.64-.24.88-.09,1.76-.19,2.63-.3.88-.11,1.76-.23,2.63-.37.87-.13,1.74-.28,2.61-.43.87-.15,1.74-.32,2.61-.49.87-.17,1.73-.36,2.59-.56.86-.2,1.72-.4,2.58-.62.85-.22,1.71-.45,2.56-.68.85-.24,1.7-.49,2.54-.75.84-.26,1.68-.53,2.53-.81.84-.28,1.68-.57,2.51-.87.84-.3,1.66-.61,2.49-.93.83-.32,1.65-.65,2.47-.99.82-.34,1.63-.69,2.44-1.05.81-.36,1.61-.73,2.41-1.11,4.97-2.38,20.69-14.8,24.19-14.86l.37.26-.1.98c-5.62,8.54-19.39,16.16-28.61,20.22-28.98,12.77-61.93,11.06-91.08-.32-19.09-7.45-36.75-19.22-44.56-39.01-2.46-6.21-3.34-13.24-6.05-19.21-.09-.17-.17-.34-.25-.52Z"/>
      <path class="cls-3" d="M182.29,127.38c2.81-.49,5.85-.77,8.67-.2,6.19,1.25,11.74,6,15.03,11.23,3.52,5.59,5.35,12.99,3.75,19.51-1.16,4.68-3.87,8.63-7.97,11.16.34.28.5.39.79.68,4.5,4.56,6.34,11.84,6.11,18.08-.29,7.72-3.65,14.53-9.29,19.75-11.41,10.55-26.86,12.51-41.73,11.81-5.3-1.42-11.22-2.95-16.01-5.66-6.22-3.51-11.26-10-13.03-16.9-1.97-7.66-.23-15.53,3.87-22.18,7.12-11.56,17.46-17.01,30.46-19.2,2.78-.47,5.84-.28,8.53-.96.22-.06.44-.12.66-.18-.55-5.19-1.77-10.48-.26-15.64,1.65-5.63,5.52-8.55,10.44-11.29Z"/>
      <path class="cls-9" d="M162.5,159.44c11.08-.83,20.66-.43,30.05,6.31,6.02,4.32,10.69,10.7,11.77,18.15.9,6.27-1.1,12.5-4.97,17.44-6.24,7.97-16.57,12.3-26.4,13.49-8.59,1.97-20.35.16-27.97-4.16-5.89-3.32-10.55-8.57-12.29-15.18-1.65-6.3-.37-12.93,2.89-18.49,5.9-10.08,16.03-14.81,26.91-17.56Z"/>
      <path class="cls-8" d="M178.99,176.2c1.47-.25,3.31-.68,4.79-.39,2.53.49,4.67,3.21,5.76,5.36.21.42.39.84.55,1.28.17.44.31.88.43,1.33.12.45.21.9.29,1.36.07.46.12.92.14,1.39.03.46.03.93,0,1.39-.03.46-.07.93-.15,1.39s-.17.92-.28,1.37c-.12.45-.26.89-.42,1.33-.94,2.46-2.31,3.66-4.67,4.71-.85.48-.53.38-1.56.59-1.05.21-3.2.05-4.05-.61-2.6-1.99-3.39-5.24-3.81-8.33-.68-4.94-.04-8.19,2.97-12.17Z"/>
      <path class="cls-8" d="M152.46,179.11c1.69-.24,3.66-.67,5.3-.07,2.23.82,3.95,2.9,4.93,4.99,1.6,3.45,1.59,7.53.17,11.04-1.13,2.76-2.56,3.33-5.11,4.44-.17.07-.33.17-.51.22-.96.28-3.99-.08-4.86-.68-2.11-1.44-2.91-3.55-3.29-6.01-.85-5.52.03-9.44,3.36-13.94Z"/>
      <path class="cls-4" d="M176.92,154.66c-2.08-5.85-3.17-12.23-.57-18.17,1.14-2.6,3.02-4.62,5.73-5.56,3.96-1.37,8.53-.46,12.16,1.46,5.65,2.98,10.17,8.75,11.92,14.88,1.35,4.75.85,9.26-1.57,13.58-1.4,2.48-3.01,4.71-5.45,6.25-1.39-3.06-4.03-4.57-7.02-5.82-2.61-3.78-11.05-5.6-15.19-6.62Z"/>
      <path class="cls-10" d="M176.92,154.66c.04-.32.09-.64.12-.96.59-5.24-1.15-9.73,3.54-13.95,1.67-1.5,3.69-2.1,5.91-1.85,2.83.31,5.33,2.11,7.02,4.33,2.46,3.21,3.36,7.33,2.71,11.29-.52,3.13-1.98,5.48-4.12,7.76-2.61-3.78-11.05-5.6-15.19-6.62Z"/>
      <path class="cls-3" d="M106.69,135.4c6.4-.75,11.56-.37,16.86,3.64,5.16,3.89,8.15,10.14,8.94,16.46.86,6.87-.85,14.26-5.21,19.72-3.89,4.88-8.72,6.88-14.78,7.49-2.68.56-6.35-.25-8.93-1.13-5.52-1.87-9.68-5.78-12.24-10.99-.18-.37-.35-.74-.51-1.11-.17-.38-.32-.76-.47-1.14-.14-.38-.28-.77-.4-1.16-.13-.39-.25-.78-.35-1.18-.1-.4-.2-.79-.28-1.2-.08-.4-.16-.8-.22-1.21-.06-.41-.12-.81-.17-1.22-.05-.41-.08-.82-.11-1.23-.02-.41-.03-.82-.04-1.23,0-.41,0-.82.02-1.23.02-.41.05-.82.09-1.23.04-.41.09-.82.15-1.22.06-.41.13-.81.2-1.21.08-.4.17-.8.27-1.2.1-.4.2-.79.32-1.19.12-.39.25-.78.39-1.17,2.96-8.11,8.85-12.62,16.45-16.06Z"/>
      <path class="cls-4" d="M106.84,139.04c4.82-.84,9.06-.9,13.37,1.76,4.49,2.77,7.31,7.21,8.48,12.31,1.39,6.07.55,12.85-2.88,18.11-3.09,4.72-7.21,7.05-12.62,8.18-2.53.14-4.78.1-7.23-.65-4.83-1.48-8.67-4.29-11.05-8.79-2.58-4.92-3.07-11.25-1.4-16.53,2.25-7.12,6.92-11.02,13.32-14.39Z"/>
      <path class="cls-10" d="M112.15,147.78c2.82-.16,5.44-.11,7.99,1.32,3,1.68,4.97,4.79,5.92,8.03,1.18,4.05.65,8.73-1.62,12.3-1.94,3.06-4.17,4.16-7.62,4.88-1.35.12-2.63.16-3.97-.16-3.02-.71-5.54-2.17-7.13-4.91-1.95-3.36-2.12-7.7-1.2-11.42,1.17-4.72,3.5-7.59,7.63-10.05Z"/>
      <path class="cls-4" d="M112.86,152.15c1.2-.26,2.18-.2,3.4-.13,1.69,1.43,1.87,1.62,2.47,3.75-.66,2.26-.84,2.58-2.6,4.15l-1.32.33-1.3-1.01c-.9-2.39-.72-4.58-.64-7.08Z"/>
      <path class="cls-3" d="M112.23,205.34c3,.2,11.51,7.08,15.16,8.74,9.54,4.34,20.05,6.89,30.36,8.57.09,1.11.12,1.93-.29,3-1.22,3.22-3.55,5.22-6.58,6.66-.77,1.13-1.78,1.66-2.98,2.29-6.08,3.16-12.97,3.34-19.43,1.3-6.46-2.04-12.15-6.61-15.26-12.66-3.1-6.03-2.93-11.56-.97-17.88Z"/>
      <path class="cls-8" d="M115.83,221.06c-1.39-3.46-1.89-5.82-1.3-9.49l1.32-.95c1.08.85,1.57,1.89,2.21,3.07,6.71,2.74,13.17,5.44,20.08,7.71,4.62,1.52,9.66,2.49,14.11,4.43-1,2.11-2.41,3.52-4.62,4.36-1.12.42-2.32.75-3.51.92-.11.11-.19.24-.32.34-1.56,1.26-5.43,1.51-7.42,1.41-8.05-.4-14.56-4.68-19.87-10.42l-.69-1.38Z"/>
      <path class="cls-1" d="M116.52,222.44c5-1.88,21.47,5.66,27.02,7.75l.59.91c-.11.11-.19.24-.32.34-1.56,1.26-5.43,1.51-7.42,1.41-8.05-.4-14.56-4.68-19.87-10.42Z"/>
      <path class="cls-7" d="M108.23,112.81c.64-.09,1.27-.15,1.91-.21.99-.1,1.94-.19,2.93-.03,1.82.3,3.77,1.05,4.72,2.57-2.48,4.39-9.63,3.18-13.9,5.32-4.21,2.11-7.43,5.63-11.21,8.37-.05.44-.04.61-.26,1.06-.75,1.46-1.52,1.89-3.03,2.2l-.91-.95c-.15-1.53.06-2.44.64-3.87,3.21-7.84,11.78-11.46,19.1-14.46Z"/>
      <path class="cls-7" d="M176.98,103.34c.33-.04.66-.07,1-.09,6.87-.36,15.67,2.66,20.53,7.64,1.28,1.3,1.89,1.95,1.89,3.75-1.87.74-2.48.22-4.35-.37-4.98-5.77-16.49-3.72-22.78-6.81-.6-.29-.59-.84-.81-1.45,1.51-1.79,2.35-1.9,4.52-2.68Z"/>
      <path class="cls-2" d="M66.05,235.94c3.35.23,6.81,2.21,9.84,3.56,5.48,2.44,11.46,4.94,16.3,8.52,7.55,5.58,13.47,13.07,21.27,18.47,5.6,3.88,12.25,6.63,18.54,9.19.57-.28,1.12-.58,1.65-.93,3.63-2.39,11.92-11.78,12.85-15.98,3.26,2.6,5.49,9.18,6.81,13.01,3.48,10.04,8.98,42.11,4.87,50.69-7.23,1.22-13.6,3.99-20.61,5.39-14.07,2.81-31.01-.88-45-3.34.67-1.81.18-3.93-.28-5.76-2.84-11.04-14.62-14.66-23.44-19.8-.55-2.37-2-3.62-3.92-4.96,5.99-3.05,13.64-6.13,18.56-10.74l-.51-.69c-7.7.54-14.16,4.4-21.13,7.25-.08-.41-.1-.62-.34-1.02-2.77-4.47-7.73-7.49-12.48-9.35,3.48,3.82,15.56,18.15,16.06,22.45-5.05,4.24-11.93,6.05-16.92,10.84-4.55,4.36-6.54,10.65-10.64,14.93-.2.22-.43.43-.63.64-2.6-5.58-11.13-12.22-14.61-18.83-4.92-9.35-6.99-19.99-3.65-30.19,6.77-20.65,29.19-33.98,47.43-43.37Z"/>
      <path class="cls-2" d="M243.11,177.65c.17,0,.34-.02.51,0,2.25.31,29.01,17.8,30.56,20.13.21,1.73-.26,2.8-.96,4.35-10.47,22.93-29.47,41.92-48.77,57.59-4.65,3.78-10.41,8.84-16.06,10.92.21-.9.31-1.71.22-2.63-.05-.43-.1-.86-.17-1.29-.06-.43-.14-.86-.23-1.28-.09-.42-.19-.85-.3-1.27-.11-.42-.23-.84-.36-1.25-.14-.41-.28-.82-.43-1.23-.16-.41-.32-.81-.5-1.21-.17-.4-.35-.79-.54-1.18-.19-.39-.4-.77-.61-1.15s-.44-.75-.67-1.12c-.23-.37-.47-.73-.72-1.08-.25-.36-.51-.7-.78-1.05-.27-.34-.54-.68-.83-1.01-.28-.33-.58-.65-.87-.96-.3-.31-.62-.62-.93-.92-.32-.3-.64-.59-.97-.87-.33-.28-.67-.55-1.01-.82.39.54.74,1.08,1.11,1.63.32.47.4.55.69,1.06,3.02,5.37,11.88,56.66,10.09,62.31-3.45,1.58-7,2.41-10.68,3.3-10.39,5.94-25.59,2.4-37.03,3.59.1-.22.19-.44.28-.66,3.19-8.33-3.34-41.13-4.17-52.63-.28-4.02,1.41-10.14-.14-13.61,4.45,2.16,8.64,5.83,12.81,8.57,2.17,1.43,4.54,2.37,6.72,3.72l.69.43c1.93-1.15,3.52-2.26,4.89-4.07,4.05-5.34,9.63-19.71,8.63-26.45,14.93-7.17,26.14-26.97,35.33-39.94,4.82-6.79,10.1-13.32,15.2-19.91Z"/>
      <path class="cls-2" d="M153.22,361.98c.79-.08,1.6-.17,2.4-.15.51.01,2.15.04,2.56.27,2.08,1.13,4.94,5.74,6.59,7.71,2.77,3.3,6.03,5.34,8.85,8.34,7.81-.92,23.94-5.05,29.55-10.32.73.81,1.36,1.56,1.84,2.54,4.76,9.63,8.93,46.16,5.73,55.24-13.33,5.19-24.88,12.77-37.32,19.6.31-1.18.27-2.04.1-3.25-1.72-11.82-14.37-42.37-23.73-49.46,4.27-.91,7.73-1.54,10.78-4.97-5.56-.12-11.93,1.5-17.48,2.26-5.71.6-11.54.54-17.29.67.68,4.18-2.89,10.46-5.03,14-6.91,11.43-16.92,21.75-30.22,25.05-6.78,1.68-14.7,2.03-20.86-1.77-6.66-4.1-10.32-12.29-11.07-19.85-.3-3.04,0-6.06-.78-9.04-.04-.14-.08-.29-.12-.43,2.17-1.42,3.96-3.16,5.2-5.46,2.07-3.88,5.62-12.85,4.26-17.23,12.22,2.98,24.57,5.19,37.06,6.63,12.2,1.34,31.4,2.91,41.38-5.32,4.09-3.37,7.16-9.82,7.59-15.05Z"/>
      <path class="cls-2" d="M119.9,17.37c1.95-.08,3.9-.07,5.86-.07,9.54.03,28.52.24,35.5,7.27.21.29.63.83.8,1.2,1.67,3.66,4.43,30.05,3.26,32.75l-14.9-.2c-.2-1.37-1.84-3.86-2.85-4.84-3.19-3.08-9.38-3.08-13.52-2.85-6.51.36-20.9,1.61-25.78,5.73-1.75,1.48-2.01,4.42-3.65,6.12-.2.21-.41.4-.62.6-4.46,1.51-8.77,2.67-13.38,3.62-2.52,1.67-28.15,11.49-31.14,12.17.05-.27.1-.54.13-.81.45-3.75-8.78-31.29-10.93-34.17,4.83-2.81,9.02-7.26,13.87-10.33,17.16-10.89,37.33-14.95,57.36-16.19Z"/>
      <path class="cls-2" d="M76.74,348.86c2.88-.02,5.66.68,8.49,1.23,8.65,1.69,17.32,3.48,26.15,3.85,9.11.37,19.06-.71,27.98.96l.49,1.1c.19.44.42.88.59,1.33.18.45.3.96.55,1.38,1.83,3,5.47,2.3,8.3,3.31.03.27.07.53.08.79.12,3.06-3.96,8.59-6.02,10.66-4.49,4.47-9.96,4.79-15.92,4.99-20.52,2.72-52.97-3.46-71.3-12.82,1.82-2.03,3.98-7.56,4.51-10.28,5.22-1.6,11.67-3.3,16.1-6.5Z"/>
      <path class="cls-7" d="M205.42,431.19l.79.21c.5.91.51,1.75.57,2.75l.03.46,1.31.58c.89-.56.58-.28,1.18-.89,1.09-1.11,1.93-1.76,3.49-2.11,5.15-1.14,12.71,1.32,16.93,4.23,3.18,2.2,6.88,5.92,7.36,9.9.3,2.4-.69,4.49-2.25,6.26-8.1,9.18-25.12,12.02-36.74,12.71,3.16-1.76,5.93-4.11,9.18-5.75,7.36-3.73,18.57-7.06,24.72-11.97l2.29-1.39-.2-.88c-.24,0-.49-.01-.73,0-5.95.14-36.73,15.51-41.11,20.17.99.43,1.33.41,1.95,1.33-.47.38-.51.45-1.15.75-3.24,1.52-8.13,1.17-11.46,0-8.54-3.01-3.86-11.79-6.73-17.86-.06-.13-.14-.25-.2-.38,4.26-1.92,8.51-5.42,12.59-7.87,5.97-3.6,12.25-6.64,18.2-10.25Z"/>
      <path class="cls-7" d="M53.71,395.49c.92-.03,1.58.09,2.48.27-1.33,4.97-3.16,11.23-1.59,16.33,3.39,11.08,9.17,17.07,19.62,21.45,2.2.92,4.86,1.09,6.91,2.24.22.13.45.27.68.4.41.99.73,1.88.86,2.96.69,5.53-.31,12.15-3.77,16.66-2.73,3.57-5.22,4.35-9.47,4.86-3.13.03-5.71-.65-8.51-1.99-12.2-5.87-13.58-17.23-17.67-28.27l-.24-.64c-.17-.76-.02-.49-.51-1.1-.51-.61-1.01-1.23-1.51-1.84-.39-.46-.8-.89-1.08-1.44-1.79-3.53-1.73-9.94-.76-13.73,2.04-7.88,7.91-12.24,14.56-16.15Z"/>
      <path class="cls-2" d="M148.36,80.01c11.54-.47,41.22-2.76,50.89,1.61-.13.17-.25.35-.4.51-5.76,6.69-68.87,14.4-80.88,14.99-15.9,2.79-33.74,3-49.82,2.93,8.71-2.53,17.12-7.47,25.7-10.63,17.25-6.34,36.33-7.93,54.51-9.41Z"/>
      <path class="cls-12" d="M56.98,341.53l2.66-.83-.2-.61c-4.92-1.78-12.98-3.81-15.3-8.96-1-2.23-.57-4.66.4-6.81,3.17-7.05,11.55-14.67,18.87-17.13,4.91-1.65,9.94-1.05,14.49,1.37,4.6,2.44,8.27,6.57,9.8,11.59,1.42,4.68.69,9.58-1.68,13.82-.81,1.46-2.03,2.73-3.3,3.8,1.33-3.63.93-8.08-.68-11.58-.6-1.28-1.4-2.52-2.16-3.71l-.75-.07.2.77c1.63,6.38,1.35,14.85-2.16,20.61-.76,1.26-1.26,1.47-2.49,2.19-1.68-.29-1.88-.31-3.13-1.46-1.3-5.93-.37-11.04-4.76-15.73,1.33,4.72,2.4,11.5.09,16.08-.51,1.02-1.18,1.52-2.12,2.12l-.3,1.56c-1.1,1.21-1.49,2.08-3.23,2.24-5.29.48-10.72-6.77-14.43-9.95,3.43.12,6.71.99,10.17.69Z"/>
      <path class="cls-5" d="M46.81,340.84c3.43.12,6.71.99,10.17.69,2,3.06,5.88,2.56,7.8,5.46l-.3,1.56c-1.1,1.21-1.49,2.08-3.23,2.24-5.29.48-10.72-6.77-14.43-9.95Z"/>
      <path class="cls-12" d="M278.7,149.24c1.88-.07,3.26.2,5.01.93,3.13,1.31,5.69,3.41,6.89,6.66,2.05,5.62.55,12.55-1.89,17.79-3.45,7.35-8.82,14.21-16.61,17.06-3.22-3.95-21.1-14-26.7-18.32.45-3.56-.63-7.21-.42-10.78.21-3.74,1.81-5.78,4.47-8.15,6.24-.59,12.92,2.12,17.86,5.79,2.35,1.75,3.4,3.14,3.8,6.01-.63,1.77-1.32,2.48-2.75,3.67-4.53.97-8.52-3.12-12.48-4.86l-.06,1.24c1.3,2,2.74,3.64,4.82,4.88,4.72,2.81,9.38.44,14.11-.91,2.1.72,4.33,1.64,6.58,1.31,2.15-.31,3.28-1.28,4.5-2.98l-.32-.93c-1.22.59-2.72,1.48-4.05,1.78-1.92.44-2.66-.22-4.13-1.24-4.39-7.28.62-11.9,1.37-18.94Z"/>
      <path class="cls-6" d="M166.26,325.55c2.87-.26,5.49-.47,8.36-.02,2.06,1.65,2.51,3.09,2.85,5.7.89,6.8.81,18.28-3.57,23.97-4.93,3.21-14.49,2.16-20.23,2.28-2.46.09-4.62.3-6.97-.6-2.23-1.82-3.07-4.21-3.54-6.99-1-5.78,0-16.72,3.34-21.6,5.81-2.19,13.54-2.05,19.77-2.72Z"/>
      <path class="cls-3" d="M165.34,332.11c2.38-.04,3.22-.22,5.25.94,1.33,2.24,1.82,4.63,2,7.21.17,2.45-.04,7.32-1.86,9.09-2.97,2.89-13.08,2.62-17.06,2.77-1.5.06-2.11.1-3.43-.73-.53-1.05-.98-2.11-1.18-3.27-.64-3.61-.76-9.96,1.64-12.97,2.27-2.85,11.13-2.71,14.65-3.03Z"/>
      <path class="cls-11" d="M162.07,335.75c1.44-.14,2.78-.17,4.21-.13.87.7,1.63,1.34,2.01,2.44.85,2.44-.12,6.44-1.2,8.66-3.57.84-7.34,1.24-10.97,1.81-1.49.47-1.57.5-3.05.02-1.57-3.73.31-7.71-1.41-11.49,3.48-.37,6.95-.8,10.41-1.31Z"/>
      <path class="cls-11" d="M91.23,329.92c6.41-1.29,21.87,2.19,29.22,2.77,6.39.51,12.78.44,19.18.32,1.71,3.54.43,12.16.21,16.31-1.49,1.12-6.02.71-8.03.75-16.79,1.07-33.56-1.49-49.96-4.84,2.35-1.71,3.87-3.6,5.51-5.99,1.76-2.58,4.47-6.06,3.87-9.33Z"/>
      <path class="cls-2" d="M210.97,340.12c1.49.18,1.6.19,2.72,1.17,1.22,4.13,1.57,9.07.65,13.29-.12.28-.2.58-.37.84-4.55,7.17-22.74,14.17-31.04,16.19-5.54,1.34-8.58,1.83-13.57-1.17-.93-2.81-4.44-7.42-6.64-9.41,2.27-.16,4.55-.31,6.82-.61,2.97-.4,6.88-1.67,8.64-4.26,1.28-1.89,1.78-4.14,1.42-6.37,7.42-.66,25.81-4.88,31.37-9.67Z"/>
      <path class="cls-12" d="M183.18,76.07c-2.93-.02-6.4.37-8.97-1.22-1.26-1.74-1.26-1.7-.99-3.83,4.37-6.84,16.9-12.82,24.65-14.46,1.84-.39,3.19-.62,4.87.29,7.45,8.48,10.18,37.09,9.35,48.35-.15,1.94-.47,3.45-1.47,5.16-.57-3.38-3.47-5.78-6.04-7.81-2.73-5.02-11.5-9.98-16.75-12,5.21-.72,13.2-2.58,17.06-6.25l-.15-1.73c-.04-1.22-.41-1.83-.98-2.87l-.5-.81c-4.51-3.23-12.1-2.62-17.47-2.83,3.2-2.07,5.67-5.42,7.92-8.44l-.51-1.19c-3.27,2.74-6.6,7.63-10.01,9.64Z"/>
      <path class="cls-9" d="M193.19,66.43c2.34-1.17,5.29-2.25,6.73-4.55,3.17,3.85,5.16,9.86,4.8,14.87-.08,1.05-.49,2-.96,2.93l-.5-.81c-4.51-3.23-12.1-2.62-17.47-2.83,3.2-2.07,5.67-5.42,7.92-8.44l-.51-1.19Z"/>
      <path class="cls-9" d="M204.74,82.56c2.53,2.57,2.59,6.8,2.57,10.24,0,3.42-.22,7.21-2.74,9.74-2.73-5.02-11.5-9.98-16.75-12,5.21-.72,13.2-2.58,17.06-6.25l-.15-1.73Z"/>
      <path class="cls-11" d="M208.12,320.45l2.92-.43c.99.75,1.17.87,1.57,2.07,1.21,3.54,1.85,9.42.18,12.85-3.28,4.11-24.05,9.12-29.67,10.03l-1.37.29c-2.24-3.68.82-12.25-2.29-17.9,8.98-1.04,20.72-2.33,28.65-6.9Z"/>
      <path class="cls-11" d="M102.3,68.37c1.39-.17,2.03-.29,3.33.35,1.7,3.67,2.3,8.52,1.52,12.5-4.48,2.4-19.8,6.8-25.35,8.6-2.58-2.23-6.9-3.43-10.13-4.34-2.81-1.64-6.3-2.15-9.45-2.88,7.3-2.56,14.41-5.69,21.73-8.24,6.07-2.11,12.36-3.64,18.35-6Z"/>
      <path class="cls-2" d="M100.06,249.78c6.31-.45,14.19,1.6,20.52,2.35,8.25.98,16.14,1.09,24.44.81-.35,4.33-4.49,7.98-7.6,10.69-.8,3.15-3.84,5.86-6.42,7.63-4.61-3.04-10.22-4.76-14.89-7.91-5.58-3.77-10.22-9.02-15.54-13.17l-.51-.39Z"/>
      <path class="cls-6" d="M134.65,54.53c.75-.09,1.51-.16,2.26-.22,2.8-.2,5.16-.25,7.3,1.78,3.16,2.97,4.73,8.2,4.84,12.42.08,2.88-.39,5.32-2.43,7.46-1.92.83-2.38.87-4.46.65-2.87-3.76-.29-10.29-2.77-14.58-4.45-3.21-14.99-.47-20.3.38-4.33,5.3,1.34,11.87-1.76,16.66-2.04.73-2.15.85-4.17.13-1.27-1.47-1.95-2.94-2.46-4.81-.75-2.78-2.25-11.29-.54-13.73,3.14-4.48,19.01-5.39,24.47-6.15Z"/>
      <path class="cls-2" d="M186.99,240.31l.71.79c-.02.88-.04,1.66-.19,2.54-1.02,5.63-3.72,16.31-8.6,19.47-3.64-.68-7.63-4.07-10.92-5.97-1.18-2.57-5.39-5.31-7.72-6.97,9.39-2.19,18.45-4.75,26.73-9.87Z"/>
      <path class="cls-12" d="M259.35,140.5c2-.28,4.02-.59,6.04-.32,3.1.42,5.86,1.56,7.69,4.2,1.64,2.36,2.16,5.5,1.58,8.29-.48,2.32-1.58,4.57-3.59,5.88l-2.6-1.15c-.09-.19-.15-.4-.26-.58-2.85-4.64-13.46-5.44-18.34-5.94,3.78-3.46,4.75-7.47,9.48-10.38Z"/>
      <path class="cls-11" d="M150.53,63.27c4.97-.88,10.54-.38,15.59-.37.4.51.73.96.96,1.57,1.13,3,1.44,8.12.04,11-3.33,1.42-11.93.33-15.81.32.27-.47.39-.63.57-1.1,1.33-3.41.04-8.22-1.35-11.43Z"/>
      <path class="cls-11" d="M131.7,64.73l2.87-.07c1.12.79,1.34.93,1.85,2.22,1.18,3,.97,6.83-.28,9.77-3.59.9-7.62,1.05-11.31,1.48l-1.74-.11c-2-3.74-.9-8.47-3.18-12.25l11.8-1.04Z"/>
      <path class="cls-13" d="M148.97,252.69c1.3-.23,2.82-.62,4.14-.41,1.52.25,1.61.77,2.44,1.97.08,2.41-.5,4.52-1.06,6.83-.97-.33-4.48-6.93-5.52-8.4Z"/>
    </g>
  </g>
</svg>