<?xml version="1.0" encoding="UTF-8"?>
<svg id="Layer_2" data-name="Layer 2" xmlns="http://www.w3.org/2000/svg" viewBox="0 0 311.69 485.09">
  <defs>
    <style>
      .cls-1 {
        fill: #c9322f;
      }

      .cls-2 {
        fill: #fbfaf9;
      }

      .cls-3 {
        fill: #010101;
      }

      .cls-4 {
        fill: #e35b56;
      }

      .cls-5 {
        fill: #383634;
      }

      .cls-6 {
        fill: #631513;
      }

      .cls-7 {
        fill: #fcb61c;
      }

      .cls-8 {
        fill: #25639b;
      }

      .cls-9 {
        fill: #a6221f;
      }

      .cls-10 {
        fill: #f8a81d;
      }

      .cls-11 {
        fill: #300705;
      }

      .cls-12 {
        fill: #eb8479;
      }

      .cls-13 {
        fill: #264968;
      }

      .cls-14 {
        fill: #130703;
      }

      .cls-15 {
        fill: #ddd9d8;
      }

      .cls-16 {
        fill: #faa697;
      }

      .cls-17 {
        fill: #fefefd;
        stroke: #fff;
        stroke-miterlimit: 10;
        stroke-width: 25px;
      }
    </style>
  </defs>
  <g id="Layer_1-2" data-name="Layer 1">
    <g>
      <path class="cls-17" d="M287.9,290.5c-1.15-.54-2.32-1-3.52-1.41-.62-5.91-1.33-11.73-2.38-17.59,3.71-3.61,5.72-6.36,5.73-11.8.03-13.03-7.98-34.74-17.39-43.8-10.21-9.84-27.76-9.33-40.98-10.06,14.4-25.38,17.12-50.67,9.4-78.59-.72-2.57-1.47-5.12-2.25-7.67,16.07-11.67,24.51-28.51,27.59-47.91,1.45-9.1,2.96-30.56-2.26-37.68-2.33-3.18-6.31-4.71-10.12-5.12-17.12-1.84-42.66,8.12-55.35,18.84-2.37,2.04-4.59,4.25-6.64,6.61-25.21-15.36-55.27-20.76-84.1-13.74-4.63,1.13-9.11,2.73-13.59,4.35-10.14-15.93-27.76-26.89-46.08-31.09-3.08-.71-6.11-1.13-9.27-1.27-4.6,1.67-6.34,4.05-8.36,8.3-7.44,15.7-6.06,41.52-.44,57.24,2.26,6.33,5.15,11.81,9.65,16.83-6.53,12.89-9.53,25.42-13.69,39.11-1.73,5.68-4.75,10.92-6.73,16.53-4.23,11.99-3.67,27.44.31,39.35,7.04,21.08,22.87,34.69,41.66,45-8.57,5.62-34.39,24.3-36.67,34.21-.21.91-.15.85-.18,1.79-.15,5.08-3.86,8.86-5.93,13.31-5.37,11.58-5.83,26.95,3.37,36.8,5.77,6.17,12.7,7.73,20.66,9.1,1.79,2.79,3.66,5.06,5.99,7.41-.91,5.42-4.1,16.62-.22,21.22.7.83,1.63,1.46,2.51,2.09.51.37,1.02.76,1.54,1.12.04,7.89-1.19,40.75,3.17,45.26,1.74,1.81,4.53,2.86,6.79,3.9.18,6.56.52,13.2,2.08,19.6-5.72,4.19-12.86,11.17-14.25,18.49-.57,2.99.1,6.1,2.01,8.48,5.08,6.37,17.69,7.53,25.16,8.09,9.73.73,36.04-1.07,43.4-7.54,5.1-4.49,5.6-32.49,6.83-40.98,2.19-1.11,5.22-1.69,6.06-4.22.83-2.52.82-5.96,1.03-8.63,2.06,5.19,3.87,10.78,6.52,15.69,3.18.86,6.35,1.78,9.58,2.42l7.41,19.63c-1.26,7.26-3.03,15.33,1.49,21.88,2.9,4.21,7.97,6.33,12.88,7.07,2.96.45,13.12-1.24,14.42-.43,5.17,3.2,12.04,1.61,17.63.23,5.33-1.31,10.05-3.03,14.61-6.09,3.29-3.75,5.13-7.12,4.86-12.33-.29-5.52-3.26-11.07-4.37-16.51-1.45-7.12-1.24-15.27-1.54-22.56,3.21-1.85,5.84-3.22,6.98-7.02,2.22-7.46-.41-16.3-.51-23.99,17.28,1.4,37.54,1.41,51.54-10.45,2.02-1.72,3.83-3.78,5.39-5.92,6.15-2.07,13.98-4.39,17.16-10.64,4.65-9.14,2.64-47.26-.95-57.19-1.44-3.97-3.87-6.02-7.62-7.76Z"/>
      <g>
        <path class="cls-3" d="M36.2,12.75c3.16.13,6.19.56,9.27,1.27,18.32,4.2,35.94,15.16,46.08,31.09,4.48-1.62,8.96-3.22,13.59-4.35,28.83-7.02,58.89-1.62,84.1,13.74,2.05-2.36,4.27-4.57,6.64-6.61,12.7-10.73,38.23-20.68,55.35-18.84,3.81.41,7.79,1.94,10.12,5.12,5.22,7.12,3.71,28.57,2.26,37.68-3.08,19.4-11.53,36.24-27.59,47.91.78,2.54,1.53,5.1,2.25,7.67,7.71,27.92,5,53.21-9.4,78.59,13.22.73,30.77.22,40.98,10.06,9.41,9.06,17.42,30.77,17.39,43.8-.01,5.44-2.02,8.18-5.73,11.8,1.05,5.85,1.77,11.68,2.38,17.59,1.2.41,2.37.87,3.52,1.41,3.75,1.74,6.18,3.79,7.62,7.76,3.6,9.93,5.6,48.04.95,57.19-3.18,6.25-11.01,8.57-17.16,10.64-1.56,2.14-3.36,4.2-5.39,5.92-14,11.86-34.26,11.85-51.54,10.45.09,7.69,2.73,16.53.51,23.99-1.13,3.8-3.77,5.17-6.98,7.02.3,7.29.09,15.44,1.54,22.56,1.11,5.44,4.08,10.99,4.37,16.51.27,5.21-1.57,8.59-4.86,12.33-4.57,3.06-9.29,4.78-14.61,6.09-5.59,1.38-12.46,2.97-17.63-.23-1.3-.8-11.45.88-14.42.43-4.9-.75-9.97-2.86-12.88-7.07-4.52-6.55-2.76-14.62-1.49-21.88l-7.41-19.63c-3.23-.65-6.4-1.57-9.58-2.42-2.65-4.91-4.46-10.5-6.52-15.69-.21,2.68-.2,6.11-1.03,8.63-.83,2.53-3.87,3.11-6.06,4.22-1.23,8.48-1.73,36.49-6.83,40.98-7.36,6.47-33.67,8.27-43.4,7.54-7.46-.56-20.07-1.72-25.16-8.09-1.91-2.38-2.58-5.49-2.01-8.48,1.4-7.31,8.53-14.29,14.25-18.49-1.56-6.41-1.9-13.04-2.08-19.6-2.26-1.03-5.05-2.09-6.79-3.9-4.36-4.52-3.13-37.38-3.17-45.26-.52-.36-1.03-.75-1.54-1.12-.87-.64-1.8-1.27-2.51-2.09-3.88-4.6-.69-15.79.22-21.22-2.33-2.35-4.19-4.63-5.99-7.41-7.96-1.38-14.89-2.94-20.66-9.1-9.2-9.85-8.74-25.23-3.37-36.8,2.07-4.45,5.78-8.24,5.92-13.31.03-.94-.03-.88.18-1.79,2.28-9.91,28.1-28.59,36.67-34.21-18.8-10.32-34.62-23.93-41.66-45-3.98-11.91-4.54-27.36-.31-39.35,1.98-5.6,5-10.84,6.73-16.53,4.17-13.69,7.16-26.22,13.69-39.11-4.51-5.01-7.39-10.5-9.65-16.83-5.62-15.72-7-41.54.44-57.24,2.02-4.25,3.76-6.63,8.36-8.3Z"/>
        <path class="cls-16" d="M241.7,35.72c3.99-.39,10.37-1.69,13.87.7,2.79,3.82,2.82,10.1,3.16,14.73,1.52,20.7-5.14,45.43-20.72,59.7-4.15,3.8-10.77,5.88-14.22,9.88l.35,1.11c2.14,1.11,4.21.2,6.42,1.03,1.51,2.38,2.17,4.86,2.79,7.58,5.56,24.47,4.96,49.5-9.02,71.27-14.58,22.7-40.34,34.76-65.91,40.25-40.1,8.61-74.51,2.95-109.06-19.31-5.53-3.84-10.5-8.43-14.77-13.63-10.67-12.84-16.23-28.69-14.51-45.44,1.08-10.51,5.62-17.43,8.72-27.11,2.15-6.72,3.53-13.66,5.74-20.38,6.41-20.16,18.48-38.05,34.77-51.54,19.75-16.1,46.24-23.01,71.41-20.32,9.5,1.01,37.5,7.23,42.73,14.32,1.69,2.29,1.16,4.62.79,7.25-.19,1.35-.1,1.09.62,2.11,2.92-.84,9.63-11.04,12.77-13.87,12.37-11.14,27.97-15.92,44.07-18.33Z"/>
        <path class="cls-3" d="M56.12,166.84c-6.54-2.89-11.53-6.77-14.15-13.65-3.16-8.26-2.91-18.51.75-26.57,2.75-6.05,7.68-11.33,14-13.65,4.62-1.69,9.61-1.58,14.09.51,5.18,2.42,8.8,7,10.6,12.36,3.02,9,.85,18.06-2.19,26.71,13.24-1.94,25.16-.02,36.09,8.16,7.29,5.46,13.14,13.5,14.26,22.72.85,6.98-1.21,13.5-5.59,18.94-3.58,4.45-7.84,6.65-12.69,9.46,11.84.24,22.03-5.27,31.74-11.41,2.19-1.79,2.79-3.16,3.52-5.86,2.59-.46,4.63.57,6.73,2.05,1.74,1.23,2.97,2.47,3.95,4.36l-.15,1.38c-1.24-.24-2.35-.57-3.54-1.01-1.13,3.06-1.28,6.43-2.16,9.58-2.7,9.68-9,18.06-18.21,22.32-7.04,3.3-15.12,3.61-22.4.86-7.38-2.81-13.22-8.76-16.77-15.73l-.05-3.36c-3.33-2.15-9.96-1.51-13.95-2.15-12.42-1.99-25.64-10.83-28.43-23.68-1.78-8.19.71-15.22,4.54-22.37Z"/>
        <path class="cls-11" d="M143.03,200.43c.15.06.3.14.46.18,1.18.3,2.55-.1,3.73-.31,1.91.71,2.21.77,3.48,2.49.51,4.08-2.2,9.85-4.67,13.06-.16.21-.33.41-.5.62-4.49,7.56-9.74,12.94-18.48,15.22-3.14.82-6.42.77-9.65.76-.34,0-.67.01-1.01,0-5.66-.07-11.06-3.97-14.88-7.88-2.32-2.37-4.62-5.15-4.58-8.56,4.34-3.94,10.12-.94,15.04-2.93l-.69-1.25c11.84.24,22.03-5.27,31.74-11.41Z"/>
        <path class="cls-1" d="M117.41,232.45c-.18-1.58-.28-3.03.31-4.54,1.61-4.11,6.35-6.93,10.2-8.68,4.58-2.08,12.73-4.65,17.62-2.76-4.49,7.56-9.74,12.94-18.48,15.22-3.14.82-6.42.77-9.65.76Z"/>
        <path class="cls-4" d="M82.82,156.8c9.98-.5,18.53.68,27.05,6.24,6.63,4.32,12.41,10.96,14.02,18.89,1.16,5.69.28,11.81-3.07,16.64-4.91,7.09-12.95,9.51-21.01,10.96-11.01.19-21.56-.34-31.29-6.18-5.9-3.54-10.73-8.93-12.32-15.76-1.35-5.8-.19-11.73,3.04-16.71,5.22-8.06,14.5-12.21,23.57-14.08Z"/>
        <path class="cls-6" d="M101.12,175.41c2.44-.08,4.7.18,6.63,1.81,1.95,1.64,2.97,4.04,3.05,6.57.17,4.77-1.65,8-4.74,11.45-.42.06-.85.11-1.27.15-2.5.22-4.59-.22-6.45-2-1.87-1.79-2.47-4.3-2.41-6.82.13-4.62,2.01-7.95,5.18-11.15Z"/>
        <path class="cls-6" d="M71.15,172.25c2.58-.06,4.67.07,6.62,1.98,1.8,1.75,2.74,4.29,2.71,6.78-.07,4.71-1.78,7.65-5.1,10.79-2.22.15-4.58-.08-6.34-1.57-1.86-1.57-2.83-4.03-2.84-6.43-.03-4.83,1.69-8.13,4.95-11.55Z"/>
        <path class="cls-2" d="M59.96,115.74c1.88-.11,3.87-.27,5.73.07,3.93.71,7.25,2.98,9.54,6.22,3.52,4.98,5.09,10.75,4.02,16.79-2.73-2.01-3.22-6.33-6.37-8.33-2.29-1.46-5.99-2.21-8.64-1.53-2.9.75-5.18,2.84-6.68,5.37-3.5,5.88-3.75,11.46-2.14,17.95,1.49,2.68,6.78,6.29,7.27,8.19l-3.1,3c-1.22.28-1.99.62-3.22.23-4.25-1.34-8-6.59-9.88-10.43-3.42-6.97-3.36-15.27-.85-22.52,2.59-7.48,7.32-11.69,14.31-15.01Z"/>
        <path class="cls-2" d="M72.26,134.21c1-.4,2.14-.22,2.96.47.83.69,1.2,1.78.98,2.83-.22,1.05-1,1.9-2.03,2.2-1.49.44-3.07-.37-3.58-1.84-.51-1.47.22-3.08,1.67-3.67Z"/>
        <path class="cls-3" d="M150.17,118.13c4.7-.27,9.1.65,13.31,2.76,6.31,3.16,10.83,8.98,13.05,15.61,2.72,8.11,2.32,16.99-1.66,24.61-4.15,7.94-9.96,11.23-18.26,13.75-5.37.66-9.74.32-14.68-2.06-6.01-2.9-10.4-8.52-12.43-14.81-2.71-8.42-1.65-18.26,2.53-26.03,4.12-7.64,10.04-11.33,18.12-13.84Z"/>
        <path class="cls-2" d="M148.07,122.95c3.71-.49,7.43-.47,10.98.82,6.03,2.19,10.6,6.81,13.19,12.64,2.85,6.42,3.15,14.05.58,20.61-2.92,7.47-8.14,11.23-15.26,14.35-4.02.83-7.6.86-11.51-.43-5.28-1.73-9.43-5.53-11.88-10.49-3.3-6.68-3.48-14.92-.99-21.89,2.74-7.69,7.66-12.23,14.9-15.61Z"/>
        <path class="cls-3" d="M148.14,136.14c1.77-.14,3.5-.22,5.25.14,3.6.73,6.63,3.08,8.53,6.2,2.58,4.24,2.79,9.71,1.47,14.39-1.56,5.52-4.58,8.54-9.5,11.24-1.63.21-3.22.34-4.86.08-3.57-.55-6.73-2.62-8.67-5.67-2.6-4.09-2.89-9.56-1.76-14.17,1.44-5.89,4.38-9.14,9.53-12.2Z"/>
        <path class="cls-4" d="M235.86,50.1c3.49-1.16,7.93-2.77,11.43-3.5,3.72,25.16-2.32,48.55-23.11,64.35-.5-.22-1-.43-1.5-.65-5.14-9.15-10.92-18.15-17.14-26.33,5.79-15.89,14.98-26.48,30.31-33.87Z"/>
        <path class="cls-3" d="M235.86,50.1c-1.58,2.88-5.41,5.12-8.03,7.75-7.96,7.94-13.43,14.72-18.11,25.02,6.14,7.5,13.98,18.18,14.47,28.08-.5-.22-1-.43-1.5-.65-5.14-9.15-10.92-18.15-17.14-26.33,5.79-15.89,14.98-26.48,30.31-33.87Z"/>
        <path class="cls-3" d="M149.29,92.32c2.16-.27,4.45-.49,6.63-.4,5.46.22,12.13,3.37,15.65,7.58,1.72,2.05,2.24,3.47,1.94,6.05l-1.6.96c-9.51-9.56-21.93-6.73-25.43-10.32.3-2.3,1.07-2.42,2.81-3.86Z"/>
        <path class="cls-3" d="M65.47,85.92c1.99-.1,4.06-.24,6,.3,2.53.7,5.94,2.44,7.31,4.74l-1.09,1.08c-3.99,1.33-8.44.12-12.63.08l-12.95,5.78c3.71-6.16,6.69-9.22,13.37-11.98Z"/>
        <path class="cls-8" d="M216,359.57c.67,7.37.02,14.75.14,22.12.14,8.12.94,16.32,1.49,24.43-21.78,11.63-51.35,14.36-75.35,9.73-2.76-6.89-5.61-13.74-8.54-20.55-11.4-.66-22.34-3.57-33.22-6.85,2.29,2.07,4.85,3.88,7.3,5.76,6.34,2.09,12.65,3.78,19.17,5.26l-.46,11.78c-3.21.6-6.4,1.26-9.65,1.57-20.15,1.98-41.81-.31-60.33-8.88-1.17-13.03-1.1-26.5-1.18-39.59,8.33,3.26,17.15,5.94,25.88,7.91,2.72.61,11.61,2.79,13.78.5,1.35-1.43,1.41-3.2,3.21-4.34l3.4,6.6c39.67,3.39,77.59.84,114.37-15.45Z"/>
        <path class="cls-13" d="M107.82,394.21c6.34,2.09,12.65,3.78,19.17,5.26l-.46,11.78c-3.21.6-6.4,1.26-9.65,1.57.8-1.78,2.01-3.84,2.22-5.8.6-5.66-7.89-8.03-10.88-12.23-.14-.19-.27-.39-.4-.58Z"/>
        <path class="cls-2" d="M160.88,247.21l-4.47,6.3c-4.08,8.22-6.34,13.78-13.45,19.95-3.67-3.57-7.53-7.93-11.83-10.7-2.25-1.44-3.38-1.89-5.94-1.31l-.39,1.27c3.59,5.81,12.2,11.68,17.39,16.3-.65.94-1.13,1.94-1.51,3.01-.72,2.04-2.34,18.46-2.05,20.53.3,2.14,2.57,4.08,3.41,6.1,1.41,3.4.8,7.93,2.6,11.12,1.55,2.75,6.9,4.24,9.75,5.01,3.92,6.87,9.59,16.16,17.44,19.05,2.34.87,4.9.37,7.17,1.53,9.41,4.81,17.38,9.23,27.54,12.61-32.21,12.08-68.73,15.58-102.82,11.76-7.86-23.59-5.99-48.51-2.04-72.75,4.15-25.47,11.16-28.99,31.25-43.49,6.84-5.02,19.63-4.17,27.95-6.29Z"/>
        <path class="cls-15" d="M160.88,247.21l-4.47,6.3c-3.7-1.45-17.64.92-23.48,0,6.84-5.02,19.63-4.17,27.95-6.29Z"/>
        <path class="cls-3" d="M106.28,313.72c2.35-1.01,5.07.08,6.07,2.43,1,2.35-.09,5.07-2.44,6.06-2.34.99-5.05-.09-6.04-2.44-1-2.34.08-5.04,2.42-6.05Z"/>
        <path class="cls-3" d="M109.38,282.95c1.51-.76,3.31-.62,4.69.35,1.38.98,2.1,2.64,1.88,4.32-.22,1.67-1.35,3.08-2.93,3.68-2.27.84-4.8-.23-5.77-2.46-.97-2.22-.03-4.81,2.13-5.89Z"/>
        <path class="cls-3" d="M107.2,343.1c2.39-.4,4.66,1.17,5.15,3.54.48,2.38-1,4.71-3.35,5.27-1.6.39-3.29-.13-4.39-1.35-1.11-1.22-1.46-2.95-.92-4.51.54-1.56,1.89-2.69,3.52-2.96Z"/>
        <path class="cls-2" d="M79.65,243.73c4,1.7,8.48,2.71,12.65,3.94l12.76,24.73c-10.47,19.67-10.52,62.18-8.8,84.34-1.91,3.9-3.22,7.56-4.24,11.79-10.97-1.93-31.88-5.72-40.63-12.32-1.68-1.27-1.48-1.81-1.68-3.79,1.42-10.98,2.68-21.87,4.53-32.79.45-.23.89-.46,1.33-.7,10.86-5.9,10.95-23.8,13.93-34.73,1.07-3.92-1.19-7.18-3.06-10.44,1.71-5.97,4.14-11.72,6.41-17.49.27,3.42.12,9.28,2.18,12.1.71.96,1.46,1.56,2.65,1.77,3.54.63,8.29-2.57,11.02-4.61,2.38-1.78,5.45-4.03,5.89-7.09-4.62-.94-12.36,4.69-16.25,7.13-1.41-7.89-1.22-14.19,1.3-21.81Z"/>
        <path class="cls-1" d="M248.15,234.85l-.22-1.15c2.83-1.41,6.45-1.14,9.37-.12,6.16,2.15,8.42,5.69,11.11,11.44,6.43,13.76,8.88,30.24,10.58,45.25-4.14.96-8.37,1.79-12.46,2.94-1.47.31-2.93.65-4.39,1.03-5.53,1.88-11.93,3.38-14.58,9.22-1.82,4.01-1.31,8.9-1.22,13.2-3.08-.71-4.86-1.62-7.34-3.55l.65-3.38c.96-.96,1.94-1.95,2.71-3.08,4.19-6.19.06-18.62-1.33-25.3-.93-1.9-1.65-3.6-2.08-5.67-2.35-5.74-15.45-27.5-15.44-27.61.2-1.54,1.51-2.2,1.65-5.6l.82-.26c2.21,2.27,4.46,4.51,6.75,6.69l.64-2.63c1.52-3.97,3.75-9.07,7.82-11.01,2.4-1.14,3.84-.59,6.1.31l.85-.71Z"/>
        <path class="cls-1" d="M248.15,234.85l-.22-1.15c2.83-1.41,6.45-1.14,9.37-.12,6.16,2.15,8.42,5.69,11.11,11.44,6.43,13.76,8.88,30.24,10.58,45.25-4.14.96-8.37,1.79-12.46,2.94-1.47.31-2.93.65-4.39,1.03-3.42-21.32-4.15-39.18-14.85-58.68l.85-.71Z"/>
        <path class="cls-6" d="M248.15,234.85c9.66,11.43,12.96,29.35,15,43.75.55,3.84.6,9.5,1.89,13.06.31.87.74,1.13,1.5,1.55-1.47.31-2.93.65-4.39,1.03-3.42-21.32-4.15-39.18-14.85-58.68l.85-.71Z"/>
        <path class="cls-9" d="M238.95,275.66c-2.35-5.74-15.45-27.5-15.44-27.61.2-1.54,1.51-2.2,1.65-5.6l.82-.26c2.21,2.27,4.46,4.51,6.75,6.69,2.79,5.55,7.69,20.77,6.22,26.78Z"/>
        <path class="cls-11" d="M233.37,246.25c4.38,8.66,8.83,25.18,7.66,35.07-.93-1.9-1.65-3.6-2.08-5.67,1.47-6.01-3.43-21.23-6.22-26.78l.64-2.63Z"/>
        <path class="cls-5" d="M155.11,426.1v-1.95c5-2.28,21.19-.79,27.85-1.51,8.5-.92,17.49-4.52,25.89-6.55,1.09,1.07,1.05,3.15,1.28,4.67.22,4.83.27,9.75.86,14.55,2.3,6.69,6.74,16.29,3.19,23.2-1.94,3.78-5.93,5.89-9.89,6.96-5.53,1.5-11.9,2.27-17.63,2.05-.86-4.1-1.4-8.93-3.47-12.6l-1.17-.6c-1.65,1.2-1.94,2.06-2.3,4.1-.42,2.43-.06,5.87-1.76,7.77-2.43,1.29-4.24,1.65-6.93.83-4.44-1.35-8.65-4.78-10.74-8.93-2.78-5.52-.69-11.86.31-17.64-1.71-4.84-3.37-9.69-5.49-14.36Z"/>
        <path class="cls-16" d="M155.11,426.1v-1.95c5-2.28,21.19-.79,27.85-1.51,8.5-.92,17.49-4.52,25.89-6.55,1.09,1.07,1.05,3.15,1.28,4.67.22,4.83.27,9.75.86,14.55-15.71,7.43-33.5,9.25-50.39,5.15-1.71-4.84-3.37-9.69-5.49-14.36Z"/>
        <path class="cls-12" d="M155.11,426.1v-1.95c5-2.28,21.19-.79,27.85-1.51,8.5-.92,17.49-4.52,25.89-6.55,1.09,1.07,1.05,3.15,1.28,4.67-9.33,3.43-44.96,6.08-55.02,5.34Z"/>
        <path class="cls-5" d="M65.81,418.5c-.06-.19-.14-.37-.17-.57-.24-1.53-.47-3.28.51-4.46,11.53,3.55,23.66,4.99,35.66,5.56,5.66-.15,11.31-.18,16.91-1.1-.26,3.01-.1,7.13-1,9.96l-.83,7.62c-.06,5.34.52,12.17-1.38,17.2-.71,1.88-1.41,2.71-3.27,3.47-8.12,3.34-37.19,7.31-45.4,3.54-2.26-4.34,2.3-7.64,3.14-11.93l-.71-.99c-5.91.57-5.6,9.75-11.61,11.42-1.01-.35-1.79-.63-2.6-1.36-1.37-1.25-2.27-2.68-2.27-4.57,0-7.81,10.02-15.32,14.97-20.42-1.11-4.36-1.45-8.89-1.94-13.36Z"/>
        <path class="cls-16" d="M65.81,418.5c-.06-.19-.14-.37-.17-.57-.24-1.53-.47-3.28.51-4.46,11.53,3.55,23.66,4.99,35.66,5.56,5.66-.15,11.31-.18,16.91-1.1-.26,3.01-.1,7.13-1,9.96l-.83,7.62c-17.01,3.54-32.77,2.64-49.14-3.64-1.11-4.36-1.45-8.89-1.94-13.36Z"/>
        <path class="cls-12" d="M65.81,418.5c-.06-.19-.14-.37-.17-.57-.24-1.53-.47-3.28.51-4.46,11.53,3.55,23.66,4.99,35.66,5.56,1.66.94,3.08,1,4.95,1.13l2.04,2.12c-15.81.17-26.86-2.36-42.05-5.52l-.94,1.74Z"/>
        <path class="cls-4" d="M101.81,419.03c5.66-.15,11.31-.18,16.91-1.1-.26,3.01-.1,7.13-1,9.96-1.66-4.38-5.61-2.41-8.92-5.6l-2.04-2.12c-1.88-.13-3.3-.2-4.95-1.13Z"/>
        <path class="cls-16" d="M31.02,69.69c-2.7-10.31-3.45-42.51,4.72-49.64,14.68-5.49,42.57,15.75,50.65,27.65-7.18,3.37-12.14,6.75-18.66,11.13-3.42-11.72-11.25-21.65-21.83-27.73,8.32,12.84,13.88,12.75,18.65,30.54-7.78,6.49-13.92,12.71-19.77,21.13l-4.6,7.24c-3.36-4.82-4.34-6.93-6.76-12.28l-2.41-8.04Z"/>
        <path class="cls-4" d="M39.2,68.62c-1.49-7.98-5.11-35.15,3.72-38.81l2.98,1.28c8.32,12.84,13.88,12.75,18.65,30.54-7.78,6.49-13.92,12.71-19.77,21.13l-4.6,7.24c-3.36-4.82-4.34-6.93-6.76-12.28l-2.41-8.04c3,.07,5.95.6,8.18-1.06Z"/>
        <path class="cls-16" d="M41.86,76.78c.78,1.58,2.33,4.47,2.93,5.99l-4.6,7.24c-3.36-4.82-4.34-6.93-6.76-12.28,2.98-1.19,5.26-.97,8.43-.95Z"/>
        <path class="cls-12" d="M39.2,68.62c.82,2.53,1.76,5.72,2.66,8.16-3.17-.02-5.45-.24-8.43.95l-2.41-8.04c3,.07,5.95.6,8.18-1.06Z"/>
        <path class="cls-16" d="M185.06,286.84c8.36,2.69,18.08,7.06,26.69,7.92l.87-.72c-1.1-1.79-2.31-3.24-3.74-4.77,5.55-.93,14.17,2.21,18.7,5.36,3.57,2.49,6.02,5.95,6.76,10.29,1.07,6.33-1.55,13.48-5.3,18.51-4.49,6.01-11.12,9.63-18.49,10.69-13.46,1.91-26.29-4.52-37.04-11.98.24-.24.49-.46.73-.71,7.81-8.02,10.78-23.87,10.81-34.59Z"/>
        <path class="cls-5" d="M30.64,276.61l1.78.5c6.1-3.69,12.28-7.96,19.77-6.17,4.78,1.14,9.5,4.29,11.97,8.59.66,1.16.94,2.37,1.14,3.67-.77,2.03-.92,1.91-2.76,2.83-4.63.24-10.33-3.38-14.56-1.3,3.37,5.89,17.54,1.53,13.83,14.75-.25.88-.94,1.28-1.58,1.9-4.32,1.03-8.37-1.64-12.79-1.25l.06.87c3.35,1.98,8.74,4.27,10.96,7.45-.29,2.22-.42,2.75-1.73,4.54-6.22,3.64-14.61-1.34-19.79,2.63.32,2.78,1.19,5.99-.22,8.52-2.56.64-5.5-.92-7.83-2.11-3.18-1.95-5.62-4.27-7.49-7.49-4.01-6.89-4.7-15.41-2.53-23.01,1.95-6.8,5.64-11.5,11.77-14.94Z"/>
        <path class="cls-16" d="M30.64,276.61c0,.16,0,.31-.01.46-.16,3.25-1.53,6.16-2.22,9.32-2.05,9.41-1.84,19.26,4.86,26.79.87.98,1.86,1.84,2.85,2.68l.81-.23c.32,2.78,1.19,5.99-.22,8.52-2.56.64-5.5-.92-7.83-2.11-3.18-1.95-5.62-4.27-7.49-7.49-4.01-6.89-4.7-15.41-2.53-23.01,1.95-6.8,5.64-11.5,11.77-14.94Z"/>
        <path class="cls-12" d="M36.12,315.86l.81-.23c.32,2.78,1.19,5.99-.22,8.52-2.56.64-5.5-.92-7.83-2.11,2.77-1.89,5.11-3.56,7.24-6.19Z"/>
        <path class="cls-2" d="M204.38,244.09c2.83-.29,5.19-.42,7.69,1.18,16.17,10.32,23.33,36.44,27.18,54.04-6.6-8.3-13.54-11.86-23.74-14.25-9.34-.9-16.65,1.38-25.86-2-.64-3.12-1.3-6.43-2.24-9.48-.48-1.57-.53-2.23-1.99-2.96-1.9,2.7-.55,5.97-1.91,8.74l-5.86-4.15c5.94-13.81,12.6-24.69,26.72-31.12Z"/>
        <path class="cls-7" d="M266.15,362.28c-1.92.66-3.7.87-5.72.83-2.73-.06-4.57-.84-6.46-2.79-2.98-6.44-4.11-44.34-3.21-52.33l1.15-.79c2.09-.1,4.13-.33,5.88,1.03,4.49,3.5,4.53,11.92,5.24,17.18l1.54,1.56c3.77,2.92,7.08,3.34,11.68,2.8,5.59-.65,10.9-3.05,15.69-5.89.91,8.73,4.07,22.76-1.85,30.26-3.75,4.75-13.12,7.75-18.97,8.2-.92.07-1.77.09-2.66-.16l-2.31.1Z"/>
        <path class="cls-10" d="M266.15,362.28c-1.92.66-3.7.87-5.72.83-2.73-.06-4.57-.84-6.46-2.79-2.98-6.44-4.11-44.34-3.21-52.33l1.15-.79c2.09-.1,4.13-.33,5.88,1.03,4.49,3.5,4.53,11.92,5.24,17.18l1.54,1.56c-.06,8.86.15,26.55,3.51,34.31.13.3.25.61.38.9l-2.31.1Z"/>
        <path class="cls-14" d="M263.02,325.41l1.54,1.56c-.06,8.86.15,26.55,3.51,34.31.13.3.25.61.38.9l-2.31.1c-3.43-5.14-2.71-29.38-3.13-36.88Z"/>
        <path class="cls-5" d="M173.51,322.14c-6.96-.28-15.51-1.39-21.95-4.04-2.51-1.03-4.12-2.04-5.21-4.56,1.27-6.81,6.83-3.48,9.26-7.79-2.48-1.36-6.94-1.02-9.81-1.13-1.61-.88-2.34-2.2-3.32-3.68-.64-8.9,10.17-6.74,13.58-11.8-3.13-2.14-8.48,1.05-11.46-1.64-.21-1.88-.41-2.64.47-4.4,1.55-3.08,5.85-5.14,8.97-6.27,8.99-3.26,16-.96,23.39,4.71,2.08,1.6,4.25,3.91,6.67,4.94.31.13.63.25.94.38-.04,10.72-3,26.57-10.81,34.59-.24.24-.49.47-.73.71Z"/>
        <path class="cls-1" d="M239.01,313.09c2.48,1.93,4.26,2.84,7.34,3.55l.49,7.04c.5,9.42-1.35,33.87,5.37,40.32,3.73,3.59,8.54,4.19,13.44,3.87,1.89-.13,3.78-.28,5.66-.46-5.57,4.09-16.6,10.5-23.89,9.35-1.56-.24-2.48-1.02-3.36-2.27-.86-1.21-1.52-2.78-2.18-4.12l-1.51,1.83c.36,1.28.57,2.49.75,3.81l-1.4,1.31c-5.59,1.46-12.03.43-17.79.13.03-3.82-1.69-11.37-.24-14.46,2.56-1.27,5.09-.29,7.9-1.07.19-.06.37-.11.56-.17.2-.2.4-.39.6-.6,4.41-4.57,3.97-9.05,3.8-14.96-.08-.18-.17-.37-.25-.55-2.39-4.9-5.32-4.23-9.96-5.85-1.82-3.65,12.64-14.65,14.54-25.77l.16-.94Z"/>
        <path class="cls-9" d="M239.01,313.09c2.48,1.93,4.26,2.84,7.34,3.55l.49,7.04c-1,.47-1.13.36-1.72,1.37-2.48,1.05-3.69,1.2-4.8,3.79-2.18,5.1,4.57,12.26-1.75,15.31-1.4.68-2.78,1.08-4.03,2.04-.08-.18-.17-.37-.25-.55-2.39-4.9-5.32-4.23-9.96-5.85-1.82-3.65,12.64-14.65,14.54-25.77l.16-.94Z"/>
        <path class="cls-9" d="M221.92,377.46c.03-3.82-1.69-11.37-.24-14.46,2.56-1.27,5.09-.29,7.9-1.07.19-.06.37-.11.56-.17.23,3.2,1.8,7.61,4.36,9.64,1.48,1.18,2.98,1.31,4.8,1.33l1.07-.53c.36,1.28.57,2.49.75,3.81l-1.4,1.31c-5.59,1.46-12.03.43-17.79.13Z"/>
        <path class="cls-8" d="M200.22,232.04c4.33-.51,9.55,1.59,13.18,3.8,1.66,1.01,3.86,2.47,4.31,4.37-6.36-.65-11.08-2.02-17.35.38-13.35,5.1-21.43,18.98-27.06,31.35l-.95.72c-6.06-1.44-11.83-1.67-18.01-.95,10.2-31.75,20.97-25.95,45.87-39.67Z"/>
        <path class="cls-7" d="M279.89,294.42c.72-.04,1.45-.07,2.17-.04,2.69.14,4.95,1.44,6.63,3.53,3.22,4.01,4.59,9.73,3.94,14.79-.49,3.79-2.28,6.89-5.37,9.16-4.74,3.48-12.78,4.3-18.41,3.3-4.41-4.54-2.97-10.94-5.47-16.34-1.62-3.5-4.91-4.63-8.33-5.78l-.63-.21c5.58-4.92,18.25-6.56,25.47-8.41Z"/>
        <path class="cls-3" d="M279.32,315.81c1.09-.64,2.44-.61,3.51.06,1.07.67,1.67,1.88,1.57,3.14-.1,1.26-.9,2.35-2.06,2.84-1.65.7-3.55,0-4.35-1.61-.8-1.6-.22-3.54,1.33-4.44Z"/>
        <path class="cls-1" d="M235.73,211.74c.73-.06,1.46-.1,2.18-.12,9.69-.32,21.41,2,28.6,8.87,7.93,7.57,15.56,29.17,15.59,40.21,0,2.05.07,2.71-1.37,4.13-2.14-3.81-3.15-9.15-4.44-13.36-3.33-9.29-6.95-24.29-14.92-30.6-2.52-1.99-5.24-3.13-8.5-2.69-5.05.68-8.62,4.45-11.55,8.25-3.18-.59-6.37-1.18-9.52-1.88-2.65-.59-3.88-1.22-5.35-3.54.77-4.21,6.01-6.97,9.27-9.26Z"/>
        <path class="cls-1" d="M188.41,336.55c8.98,2.73,18.2,6.85,27.33,8.73,4.5.92,9.1.28,13.61,1.32,1.14,1.79,1.34,2.68,1.16,4.83-.17,2.09-.64,3.91-2.27,5.18-15.85.16-31.31-5.88-44.74-13.89,2.05-1.87,3.42-3.86,4.91-6.17Z"/>
        <path class="cls-8" d="M63.73,237.46l11.04,4.59c-5.02,9.03-9.28,18.22-13.09,27.83-4.05-2.33-8.19-3.32-12.74-4.18,3.62-10.69,7.42-19.48,14.78-28.23Z"/>
        <path class="cls-1" d="M210.83,224.87c9.77.73,18.87,1.89,28.32,4.54-3.07,3.23-5.38,6.44-7.47,10.39-.19.78-.72,1.25-1.22,1.87-1.38-.42-2.83-.88-4.09-1.61-4.35-2.49-8.26-6.17-12.56-8.88-2.08-1.31-4.65-1.82-6.52-3.33l3.54-2.96Z"/>
        <path class="cls-12" d="M101.05,253.99c-.76-1.31-2.02-2.82-1.81-4.31,3.83-.35,7.97.78,11.81,1.16,5.7.51,11.42.68,17.14.49l-7.05,4.66c-4.5,3.73-8.75,7.59-12.92,11.67-2.47-4.51-4.86-9.07-7.17-13.66Z"/>
        <path class="cls-4" d="M101.05,253.99c-.76-1.31-2.02-2.82-1.81-4.31,3.83-.35,7.97.78,11.81,1.16,5.7.51,11.42.68,17.14.49l-7.05,4.66c-.42-.25-.5-.33-1.04-.5-3.76-1.16-15.75-2.95-19.05-1.5Z"/>
        <path class="cls-2" d="M49.45,247.93l.54.74c-2.35,5.53-4.46,11.03-6.3,16.76-5.11,2.05-10.2,7.52-15.81,7.14-.45-.48-.49-.98-.66-1.61,4.68-8.77,14.44-16.99,22.23-23.03Z"/>
        <path class="cls-8" d="M159.92,324.87c6.8,1.14,18.45,3.5,22.7,9.64.81,1.16.25,2.01-.04,3.32-2.33,1.16-4.69,2.6-7.38,1.98-6.97-1.61-11.74-9.28-15.28-14.94Z"/>
        <path class="cls-9" d="M254.67,221.87c.9,0,1.82.03,2.71.19,3.16.56,5.49,2.21,7.34,4.79,1.3,1.81,3.36,5.3,3,7.48l-1.24-1.02c-4.97-3.3-11.11-4.76-15.65-8.21l.15-1.17,3.68-2.06Z"/>
        <path class="cls-8" d="M41.99,319.25c2.13.09,4.2-.09,5.97,1.24,1.08,2.64-.46,6.29-1.15,8.96l-.53.62c-2.96-2.18-3.62-7.42-4.29-10.83Z"/>
        <path class="cls-1" d="M225.65,210.13c1.15.12,2.03.44,3.11.86-1.13,3.17-5.35,5.88-7.31,9.02l-.48.77c-1.26.03-1.72-.23-2.88-.69.16-2.76,5.7-7.86,7.56-9.95Z"/>
      </g>
    </g>
  </g>
</svg>