<svg xmlns="http://www.w3.org/2000/svg" xmlns:xlink="http://www.w3.org/1999/xlink" id="Layer_2" data-name="Layer 2" viewBox="0 0 485.1 426.7"><defs><linearGradient id="linear-gradient" x1="780.2" x2="803.1" y1="4516.8" y2="4519.4" gradientTransform="matrix(.8 0 0 -.8 -450 3762)" gradientUnits="userSpaceOnUse"><stop offset="0" stop-color="#606848"/><stop offset="1" stop-color="#718154"/></linearGradient><linearGradient id="linear-gradient-2" x1="745.7" x2="787.2" y1="4547.4" y2="4546.9" gradientTransform="matrix(.8 0 0 -.8 -450 3762)" gradientUnits="userSpaceOnUse"><stop offset="0" stop-color="#66794d"/><stop offset="1" stop-color="#a29f7e"/></linearGradient><linearGradient id="linear-gradient-3" x1="847.9" x2="859.1" y1="4587" y2="4595.4" gradientTransform="matrix(.8 0 0 -.8 -450 3762)" gradientUnits="userSpaceOnUse"><stop offset="0" stop-color="#1d2316"/><stop offset="1" stop-color="#4a5334"/></linearGradient><linearGradient id="linear-gradient-4" x1="864" x2="861.4" y1="4879" y2="4858.3" gradientTransform="matrix(.8 0 0 -.8 -450 3762)" gradientUnits="userSpaceOnUse"><stop offset="0" stop-color="#756f69"/><stop offset="1" stop-color="#a39e97"/></linearGradient><linearGradient id="linear-gradient-5" x1="922" x2="911.6" y1="4857.3" y2="4883.1" gradientTransform="matrix(.8 0 0 -.8 -450 3762)" gradientUnits="userSpaceOnUse"><stop offset="0" stop-color="#4a4944"/><stop offset="1" stop-color="#626061"/></linearGradient><linearGradient id="linear-gradient-6" x1="832.8" x2="802.8" y1="4886.3" y2="4889.7" gradientTransform="matrix(.8 0 0 -.8 -450 3762)" gradientUnits="userSpaceOnUse"><stop offset="0" stop-color="#b14c48"/><stop offset="1" stop-color="#d95c55"/></linearGradient><linearGradient id="linear-gradient-7" x1="804.6" x2="808.1" y1="4713.6" y2="4761.4" gradientTransform="matrix(.8 0 0 -.8 -450 3762)" gradientUnits="userSpaceOnUse"><stop offset="0" stop-color="#282828"/><stop offset="1" stop-color="#494847"/></linearGradient><linearGradient id="linear-gradient-8" x1="909.2" x2="879.9" y1="4715.5" y2="4720.3" gradientTransform="matrix(.8 0 0 -.8 -450 3762)" gradientUnits="userSpaceOnUse"><stop offset="0" stop-color="#494847"/><stop offset="1" stop-color="#626160"/></linearGradient><linearGradient id="linear-gradient-9" x1="860.6" x2="858.4" y1="4735.2" y2="4745.3" gradientTransform="matrix(.8 0 0 -.8 -450 3762)" gradientUnits="userSpaceOnUse"><stop offset="0" stop-color="#797774"/><stop offset="1" stop-color="#948f8a"/></linearGradient><linearGradient id="linear-gradient-10" x1="1161" x2="1097.5" y1="4654.8" y2="4577.3" gradientTransform="matrix(.8 0 0 -.8 -450 3762)" gradientUnits="userSpaceOnUse"><stop offset="0" stop-color="#7b7a7d"/><stop offset="1" stop-color="#939293"/></linearGradient><linearGradient id="linear-gradient-11" x1="1125" x2="1125.6" y1="4799.2" y2="4754.9" gradientTransform="matrix(.8 0 0 -.8 -450 3762)" gradientUnits="userSpaceOnUse"><stop offset="0" stop-color="#767678"/><stop offset="1" stop-color="#8d8d8f"/></linearGradient><linearGradient id="linear-gradient-12" x1="1137.9" x2="1134.4" y1="4729" y2="4646.6" gradientTransform="matrix(.8 0 0 -.8 -450 3762)" gradientUnits="userSpaceOnUse"><stop offset="0" stop-color="#7e7e80"/><stop offset="1" stop-color="#9f9e9e"/></linearGradient><style>.cls-1{fill:#3d3d3f}.cls-3{fill:#545252}.cls-4{fill:#b8b5b4}.cls-5{fill:#322319}.cls-7{fill:#2c2c2c}.cls-9{fill:#de6860}.cls-10{fill:#606266}.cls-13{fill:#4a5d46}.cls-15{fill:#a8a7a6}.cls-17{fill:#e3cab4}.cls-20{fill:#5f7937}.cls-21{fill:#fdaca0}.cls-23{fill:#3b4832}.cls-25{fill:#050504}.cls-26{fill:#f59b8f}.cls-27{fill:#8b8a8b}.cls-28{fill:#f7f6f3}.cls-29{fill:#3a4924}.cls-32{fill:#e5867c}.cls-33{fill:#fbf4e8}.cls-35{fill:#ceccca}.cls-36{fill:#c24b42}.cls-38{fill:#161f0c}.cls-39{fill:#79797a}.cls-41{fill:#716f71}.cls-42{fill:#dddbda}.cls-43{fill:#979594}.cls-44{fill:#1e1d1d}.cls-45{fill:#33312f}.cls-48{fill:#d05c55}</style></defs><g id="Layer_1-2" data-name="Layer 1"><path d="M88 408h2v-1c5 0 22 2 26 1 4 0 12 3 15 1h4l6 1h1l1-1 43 5h78q17 0 33-2h10l5 1h15c9 0 44 0 49-2l9-2 9 1 29-1 16-3c5 3 6-2 11-3l4 1c4-1 8-7 11-10l1-1c5-6 6-67 5-77l-1-12 1-39-1-8q1-7 1-14 1-3-2-4c4-5 1-45 2-53l-1-13 1-1-1-2c-4-2-17-3-21 0l-1 3v35l-1-6-1-2q-2-7-6-13-1-4-5-9l-6 9h-2c-2-3 0-10-2-15-1-8 2-12 1-17-3-2-4-9-7-13l-13-9-2-9c0-3 1 0 4-3v-2l-2-1h-1l-2-4h-1l-1 5q-2-1-3 1v2l3 1-1 9c-9 7-23 13-21 27l1 11-11 7c-2-3 0-4-3-6l-1 1v1c-1 8-4 6-5 12l-1 4-5 3q-3 5-1 10l-1 2c-5 3-12 1-17 3l-1-1q5-22 2-45c0-13-7-18-11-28l1-2c10-13 14-32 12-48-2-11-4-29-20-26q-27 8-42 30c-16-5-26-8-43-8-9 0-23 4-31 3l-10-11c-9-7-38-24-47-11-4 7-5 24-5 33l-1 4c-4 2-9-3-13 1q-10 10-11 23l-5 1-1-2 1-25c0-7-8-19-14-23l-9-6c-1-3-2-10-1-13l3-1 1-1-1-2-3-1-1-4h-2q-1 2-1 4l-5 3 1 2h3c1 4-1 12-6 15q-15 7-18 25c-2 7 4 24-1 28l-8-9h-8l3-6c0-7-10-14-17-15l-7 3-4 6v33l-2 5c0 5-1 23 1 27l-1 10v74c1 13-2 29 1 41-2 7-1 50 0 59l-1 2v8c0 14-1 32 9 42 7 7 18 4 26 7z" style="fill:#fefefd;stroke:#fff;stroke-miterlimit:10;stroke-width:25px"/><path d="M139 94c1-10 1-27 6-34 8-13 37 4 46 11l10 11c9 1 22-3 32-3 17 0 26 3 42 8q16-23 43-29c16-4 18 14 19 25a66 66 0 0 1-13 50c5 10 11 15 12 28q1 23-3 46l-1 2 10 7q7 7 9 19v7l10 10q6 10 7 23l-2 10q-1 3-1 6l7 13q7 17 11 34l2 12 3 17c0 9 4 32 0 40l-2 1-2 1-8 2c-6 2-40 2-49 2h-15l-5-1h-2l-8 1v-1q-17 2-33 2h-78l-44-5-1 1h-1l-5-1h-5c-2 2-11-1-15-1-4 1-20 0-26-1v1l-1 1v-1H48c-9-3-19 0-26-7-11-10-9-28-10-41l1-8v-3c0-9-2-52 0-58-3-13 1-29-1-42l4-1 10 1-1-24 33-1h12l8 1h8c-3-3-2-20-2-25q-2-5 0-10 2-3 5-2h9l7 1V98c3 5 0 14 1 19h1v-17h1v21l1 1 5-1q1-13 12-23c4-4 8 1 13-1z" class="cls-25"/><path d="M59 224h11l8 1h8c3 3 1 14 1 19v13l1 1h28l1 4 5 8q-2 6 0 12l1 3-2 1c-2 6 0 20 3 25l2 2-4 8q-5 13-8 25c-4 10-14 52-11 59l3 2h1l5-1 3 2c-4 1-20 0-26-1v1l-1 1v-1H48c-9-3-19 0-26-7-11-10-9-28-9-41v-11c0-9-2-52 0-58-3-13 1-29-1-42l4-1 10 1v-24l32-1z" class="cls-39"/><path d="m13 291 1-7c4-3 11-1 16-2l8-1 9 6 2 19-1 8c5 3 9-1 11 7q3 11 2 20h19l2 1h3l29 4c-4 10-14 52-11 59l3 2h1l5-1 3 2c-4 1-20 0-26-1v1l-1 1v-1H48c-9-3-19 0-26-7-11-10-9-28-9-41v-11c0-9-2-52 0-58" class="cls-10"/><path d="M61 341h19l2 1h3l29 4c-4 10-14 52-11 59l3 2h1l5-1 3 2c-4 1-20 0-26-1v1l-1 1v-1H48c-9-3-19 0-26-7-11-10-9-28-9-41l3 4q1 10 6 15v3h1l1-1c2-1 11 1 15 1h1l4 1q1 1 2-1l2-3c1-3 13 0 16-1l4-4-1-3c-3-5 0-10-3-15q-4-6-12-7 6-3 9-8" class="cls-27"/><path d="m13 360 3 4q1 10 6 15l-3 2 4 5h6l1 7 3 4h2l6-1c6 3 0 7 14 7l1 2q3 1 6-2l9 3 15-1 2 3H48c-9-3-19 0-26-7-11-10-9-28-9-41" class="cls-4"/><path d="m95 346 2 1q4 3 4 7-3 3-7 5h-1c-3-4-5-2-8-3q4-7 10-10M76 379q5 0 8 2l2 2-1 2q-5 2-11 3h-1l-4 2-1-1c0-4 6-8 8-10M52 383h2q4 0 4 3v4q-5-1-8-3z" class="cls-41"/><path d="m13 352 4 5q2 4 6 8 3-2 7 0-1 5-1 9l5-1q2-3 3-7h4q1 7-1 16h-1c-4 0-13-2-15-1l-1 1h-1v-3q-5-5-6-15l-3-4z" class="cls-39"/><path d="M38 318h2q2 4 1 8l-4-3zM35 302l1 3-4 3q0-4 3-6" class="cls-3"/><path d="M41 326h1l-4 1-1-1z" class="cls-41"/><path d="m87 257 1 1h28l1 4 5 8q-2 6 0 12l1 3-2 1c-2 6 0 20 3 25l2 2-4 8q-2-6-5-10-5-3-11-2H87v-52" class="cls-27"/><path d="m87 257 1 1h28l1 4c-9 2-20 0-29 2l-1 2zM102 309c2-6 0-11 2-16 2 3 2 11 2 16z" class="cls-39"/><path d="M93 281h6l1 4-5 2q-2-3-2-6" class="cls-41"/><path d="m103 280 4 2-1 4h-3z" class="cls-39"/><path d="M106 309q6-1 11 2 3 4 5 10-6 12-8 25l-29-4h-3l-2-1h-1l-4-3v-3q3-2 6-1c2-2 0-18 2-24l4-1h19" class="cls-41"/><path d="m106 327 1 2v6l-2-1q-1-4 1-7" class="cls-39"/><path d="M25 263q3 1 3 3c2 4 2 12 1 15h-4l-1-2c-3-4 0-12 1-16M70 252h-2l-2-3v-6l3-2 2 1h3l2 4-2 5z" class="cls-27"/><path d="M71 242h3l2 4-2 5-4 1z" class="cls-39"/><path d="m63 281 5 1 3 5q0 4-3 6l-1 1-5-3q-1-5 1-10M68 261q3 1 6 4l-4 7h-3l-2-1q0-5 3-10M37 242h4q2 5 1 11-2 0-5-2-2-4 0-9M51 241l5 1v9l-5-1zM65 302l3 1q3 1 2 4 1 3-1 6l-4-2q-2-2-1-5zM46 262l2 1q2 6 0 11l-4-2q-1-6 2-10" class="cls-27"/><path d="m334 272 10 4q5 3 6 7l-1 2-2 1h5c12 14 19 69 20 87q-1 17-1 34 0 4 5 4c-6 2-40 2-49 2h-15l-5-1h-2l-8 1v-1q-16 3-33 2h-75l1-24q2-32 10-64 2 1 2 3l1-1q1-3 5-4 2 0 3 2 2 4 0 7 2-3 6-5l2 3v4c-2 11-5 40-2 50l1 1q2 4 6 3c9 2 34 3 41-2q5-5 4-11l-1-1q0-16 2-32-1-6 1-12v-15q4-4 9-5l-1-1v-2l4-1 2-2c12-8 21-21 34-28z" class="cls-13"/><path d="m294 345 8 14 1 28v21l2 4-8 1v-1l-3-1c-2-12 2-33 2-46v-9z" class="cls-23"/><path d="M294 345q-3-8-1-17l1-1c2 3 5 21 7 27q0-6 2-11h1l1 6c2 14 5 49 2 63h-2l-2-4v-21l-1-28zM203 328q1-3 5-4 2-1 3 2 2 3 0 7c-4 10-7 46-7 58l-1 20q1 2-2 3c-3-6 3-59 5-68l2-11-5-1-1-5z" class="cls-25"/><path d="M203 328h5v7l-5-1-1-5z" class="cls-44"/><path d="m307 345 2 6c5 11 2 49 3 62l-5-1c3-14 0-49-2-63z" class="cls-20"/><path d="M305 331v-8c2-12 9-26 19-33q12-7 25-5l-2 1q-7-1-15 3c-16 8-22 26-27 42" class="cls-25"/><path d="M269 343q0-6 2-12c0 7 2 40-1 45h-1l-1-1c-1-11 2-21 1-32" class="cls-29"/><path d="M307 345v-5q3 5 2 11z" class="cls-20"/><path d="m279 308 4-1-1 4h-2l-1-1z" class="cls-38"/><path d="M195 398q2-1 4 1a3 3 0 1 1-4-1" class="cls-25"/><path d="M197 363q3 0 4 2a2 2 0 0 1-5 2z" class="cls-44"/><path d="M158 281c0 6 4 16 8 21l3 1 1 2 2 7 1 1 1 7v1l1-1 2-4q7 6 16 8l3 1c-6 25-12 63-10 89l-44-5-1 1h-1l-5-1h-5c-2 2-11-1-15-1l-3-2c-2-30 15-81 30-107l2-3q6-9 14-15" class="cls-13"/><path d="m143 328 1 7 1 2v4l-9 67-1 1h-1c-3-9 0-24 2-34v-3q4-22 6-43z" class="cls-25"/><path d="M145 341q1-3 3-7l1 5q-3 23-6 47l-1 23-1 1h-1l-5-1 1-1z" style="fill:url(#linear-gradient)"/><path d="m131 374 5 1c-2 10-5 25-2 34h-4l-4-2v-1c-3-8 1-25 5-32M131 369l9-35-1 1 3-6q-2 21-6 43z" class="cls-23"/><path d="M145 337c3-7 1-22 7-26h1c1 7-3 21-4 28l-1-5q-2 4-3 7z" class="cls-20"/><path d="M131 374q-5-2-7-6v-1l7 2 5 3v3z" class="cls-29"/><path d="M143 328q0-5 3-10l-2 17z" class="cls-38"/><path d="M92 188h6l7 1h9l18-1q-2 15 4 28c-8 4-18 6-22 15q-3 13 2 27H88l-2-1 1-13c0-5 1-16-1-19-3-3-2-20-2-25q-2-5 0-10 2-3 5-2z" class="cls-43"/><path d="M92 188h6l7 1h9v2c-4 3-18 1-24 2l-1 1h-1q-2 8-1 15h-1l-1-9h-1q-2-5 0-10 2-2 5-2zM100 258v-4h1l1 4z" class="cls-27"/><path d="M96 222q-1 2-4 2l-2-2 1-6 2-1 4 5v2z" class="cls-15"/><path d="m104 210 2 2q1 6-2 12l-1-2q-2-6 1-12" class="cls-27"/><path d="M93 201h5l1 7-5-1z" class="cls-15"/><path d="m100 236 2 2q1 4-1 9z" class="cls-41"/><path d="m278 302 15-12c10-9 15-16 29-20l12-1c10 2 18 11 23 19 14 20 20 46 24 69l3 33 1 15 1 3-2 1-8 2q-5 0-5-4 0-17 1-34c-1-18-8-73-20-87h-5l2-1 1-2q-2-4-6-7l-10-4-15 5c-13 7-22 20-34 28l-2 2-4 1-3-4-1-1z" class="cls-23"/><path d="m275 303 3-1 5 1 2 2-2 2-4 1z" class="cls-44"/><path d="m275 303 3-1 5 1z" class="cls-38"/><path d="M105 98c3 5 0 14 1 19h1v-17h1v21l1 1 5-1q4 0 7 2c4 10-5 33 3 36 4-1 1-5 8-4q0 5 2 5l4 1-2 10q-3 9-4 17l-18 1h-9V98" class="cls-15"/><path d="M132 155q0 5 2 5l4 1-2 10c-6-3-4-10-4-16" class="cls-4"/><path d="m112 139 1 1v5l-1-1z" class="cls-27"/><path d="M139 94q1 18 13 33-11 15-14 34l-4-1q-2 0-2-5c-7-1-4 3-8 4-8-3 1-26-4-36q-1-2-6-2 2-13 12-23c4-4 8 1 13 0z" class="cls-42"/><path d="M330 216q5 6 13 10l2 5c2 6 0 12 3 18l1-1q5 1 8 7l1 1-4 12c-14-8-26-6-41-5h-1v-3h-1v-16q13-9 24-19l-5-6-1 1 1-3z" class="cls-13"/><path d="M345 231c2 6 0 12 3 18-3 2-9-1-12-1-5 0-11 5-15 7q8-9 18-16z" class="cls-23"/><path d="M122 270q6 9 16 11l8-1q-12 15-20 33l-2-2c-3-5-5-19-3-25l2-1-1-3q-3-6 0-12" class="cls-43"/><path d="m142 294 2 2-2 3c-15 26-32 77-30 107l-5 1 4-29q7-43 29-81z" style="fill:url(#linear-gradient-2)"/><path d="m142 294 2 2-2 3-2-2z" style="fill:#a6aa68"/><path d="M358 256q4 9 5 18l-1 10h-1c-1 0-13-15-18-17-12-6-25 0-36 4l4-11h1v3h1c15-1 27-3 41 5zM268 375l1 1q1 6-4 11c-7 5-32 4-41 2q-4 1-6-3l-1-1c6 1 6 0 10-2l3 4q8 0 16-3h1q3 3 7 1l5-6 4 3q2 1 4-1zM203 318l19 1-3 16v-4l-2-3q-4 2-6 5 2-3 0-7-1-2-3-2-4 1-5 4l-1 1q1-2-2-3zM275 303zl3 4v2l1 1q-5 1-9 5v15q-2 6-2 12l-1-36z" class="cls-23"/><path d="M275 303zl3 4v2l-1-2-9-1h-1z" class="cls-29"/><path d="m158 277 2-1c3 3 0 15 12 26l1 11-1-1-2-7-1-2-3-1c-4-5-8-15-8-21z" class="cls-23"/><path d="m182 311 18 7-4 7-3-1-11-8-2-4z" style="fill:url(#linear-gradient-3)"/><path d="M158 277v4q-8 6-14 15l-2-2q6-11 16-17" style="fill:#d3cea9"/><path d="m173 304 9 7-2 1 2 4 11 8q-9-2-16-8c1-3-3-9-4-12" class="cls-29"/><path d="m363 274 3 2 2-1-2 10-4-1z" class="cls-44"/><path d="m330 216 1-1q7 2 10 8l2 3q-8-4-13-10" style="fill:#8c8d4d"/><path d="M219 103q22 0 41 8 31 16 38 50l-5 4 1 22 3 1-1-6c-1-5-2-14 1-19l1 1c5 10 0 51-9 59q-3 0-7-1l-8-1c-5 4-2 3-8 3-22-1-28 25-26 40l6 7q-25 10-51 3c13 0 23-1 33-11q10-11 9-26c0-17-7-20-14-31 6 4 13 10 22 10 54 5 49-90-5-80-22 4-32 30-27 51q4 9 9 19c-11-6-17-8-30-8 11-17 16-47-4-60q-8-5-18-4-10 3-18 9l-7 14-1-1c6-20 12-32 31-43q21-10 44-10" class="cls-45"/><path d="M144 156c6-20 12-32 31-43l3 3q-18 9-26 27z" class="cls-17"/><path d="M175 113q21-10 44-10l-3 3c-11 1-17 2-27 5l-11 5z" style="fill:url(#linear-gradient-4)"/><path d="M219 103q22 0 41 8l-3 2q-20-7-41-7z" style="fill:url(#linear-gradient-5)"/><path d="M242 138q10-1 18 3 12 6 17 20 6 18-2 35-7 13-21 17-10 1-21-4-13-8-16-22-5-17 4-33 7-12 21-16" class="cls-39"/><path d="m244 143 15 3q11 8 14 19 4 16-4 31-6 10-17 13-9 0-16-4-11-6-15-19-3-16 4-29 6-11 19-14" class="cls-25"/><path d="M239 155q16-8 25 8c7 13 4 21-4 33l5-1 1 1-9 8-6 1q-10 1-17-5v-2l3-1h-1q-6-3-8-9l-1-2 2-1v-3q-3-16 10-27" class="cls-33"/><path d="M231 182c8-26 30 13 7 15h-2q-6-3-8-9l-1-2 2-1v-3z" class="cls-44"/><path d="m227 186 2-1 2 2v2l-3-1z" class="cls-7"/><path d="M229 182h2v5l-2-2z" class="cls-27"/><path d="M237 197zq4 4 9 4l8 2 2 1-6 1q-10 1-17-5v-2z" class="cls-26"/><path d="m247 201 13-5 5-1 1 1-9 8-2-1z" class="cls-21"/><path d="M239 155q16-8 25 8l-8-5q-9-3-17-3" class="cls-17"/><path d="m251 164 2 2-3 9q-2 1-2-2 0-4 3-9" class="cls-28"/><path d="M234 200c-16-16-13-52 14-53q8 1 14 6c-1 0-10-6-17-4-19 6-21 20-18 37l1 2q2 6 8 9h1l-3 1z" class="cls-9"/><path d="m286 97-6-2c-7-11 32-35 43-33 10 2 10 30 9 35q0 23-17 38l6 3 4 10-6 5q-6 5-13 6c-5 1-6-5-7-9q-7-22-25-36 5-9 12-17" class="cls-21"/><path d="M319 153c-1-7-6-14-4-18l6 3 4 10z" class="cls-32"/><path d="m317 75 2-1c9 7 2 35-2 44l-7 10-1-1q-3-3-5-7h-4q-5-4-7-11c-1-2 1-10 2-12 5-9 13-19 22-22" class="cls-48"/><path d="M317 75q-1 5-7 8v5c-4 5-6 17-7 23l6 8 1 3v6l-1-1q-3-3-5-7h-4q-5-4-7-11c-1-2 1-10 2-12 5-9 13-19 22-22" class="cls-25"/><path d="M310 83v5c-4 5-6 17-7 23l-6-5c4-11 6-15 13-23" style="fill:#a63c34"/><path d="M293 109q7 3 11 11h-4q-5-4-7-11" class="cls-32"/><path d="M303 111c1-6 3-18 7-23-7 18 7 23-1 31z" class="cls-36"/><path d="m310 122 1-2q3-2 6-2l-7 10z" class="cls-48"/><path d="M155 146c17-19 42-6 43 20q1 18-12 31-15 17-33 5c-9-8-11-33-6-42 2-7 4-9 8-14" class="cls-39"/><path d="M155 146c0 4-3 13-8 14 2-7 4-9 8-14" class="cls-4"/><path d="M169 143h10q8 3 12 12 5 13 0 28-5 14-18 19h-12q-7-3-10-11-6-16 2-33 4-11 16-15" class="cls-25"/><path d="M162 161c5-11 16-15 25-5q9 21-7 38l-3 3-3 1q-4 3-10 2-5-3-8-10l1-1 4-2q-3-6-2-14z" class="cls-33"/><path d="M169 191q-3-7-1-15 1-3 5-5l6 1 5 6a17 17 0 0 1-5 15l1 1-3 3-6-2-2-3z" class="cls-44"/><path d="M169 191q4 3 8 3l2-1 1 1-3 3-6-2-2-3z" class="cls-28"/><path d="M161 187q3 8 10 8l6 2-3 1q-4 3-10 2-5-3-9-10l2-1z" class="cls-26"/><path d="M162 161c5-11 16-15 25-5-13-5-14-1-25 5" class="cls-17"/><path d="M172 146v1l-7 4c-7 5-13 23-8 31h1l1-9q0 8 2 14l-4 2-1 1-1-2c-5-15-1-37 17-42" class="cls-9"/><path d="M172 146q4-2 7 1h-7z" style="fill:#463323"/><path d="M190 209q9-1 17 3 7 3 11 9 8 10 6 22-1 9-8 14l-2 2-12 4q-16 3-30-7-7-6-9-16-1-9 4-17l3-5q8-8 20-9" class="cls-48"/><path d="M218 221q7 10 6 22-1 9-8 14l-2 2q4-5 6-11c3-10-3-19-2-27" class="cls-36"/><path d="m167 223 3-5q8-8 20-9l-3 2c-6 1-16 11-20 12" class="cls-32"/><path d="M197 236q1-5 5-8l4-1q4 2 5 6 3 7 0 14-1 2-4 3h-6l-4-7z" class="cls-25"/><path d="m204 230 2 1q3 3 3 7 1 6-3 10l-3-2q-3-2-3-5 0-5 4-11" class="cls-5"/><path d="m186 243-1 1q-2 4-6 4-3 0-5-2-3-6-2-12 1-5 4-7l6-1q4 4 5 10z" class="cls-25"/><path d="m179 228 2 1q2 3 3 7 0 5-4 11l-5-6q-1-7 4-13" class="cls-5"/><path d="M187 236h10v7h-11z" class="cls-48"/><path d="m194 296-1-1-11-8c-4-3-16-17-16-22l2-2q9 9 20 14 18 7 37 5 12-1 22-6 5 7 14 10-10 4-18 9v1l4 1q4 0 7 3l1 1q-1 3-4 3l-2 1q-6 4-14 6l5 1c-10 2-27 4-37 2l-6-2q-11-3-19-9-13-12-13-30 6 10 16 17 6 4 13 6" class="cls-7"/><path d="M197 312q-11-3-19-9-13-12-13-30 6 10 16 17 6 5 13 6c12 8 50-1 58 3l1 1q0 3-4 5-6 4-14 6l5 1c-10 2-27 4-37 2z" class="cls-45"/><path d="M197 312q-11-3-19-9-13-12-13-30 6 10 16 17h-8v3c3 10 18 12 24 19M203 314c8-3 23-2 32-3l5 1c-10 2-27 4-37 2" class="cls-7"/><path d="M247 314c4-1 13-5 16-4l1 6 1 42-8 2c-5 4-25 3-32 4h-4v-3c-2-10 2-24 3-34l2-8 18-4c-1 6-3 16-1 22l3-15z" class="cls-45"/><path d="m226 319 18-4c-1 6-3 16-1 22v1q-3-6-1-14l-18 3zM247 314c4-1 13-5 16-4l1 6-18 6zM221 361q18 3 36-1c-5 4-25 3-32 4h-4z" class="cls-44"/><path d="M155 123c-9-13-16-45-5-61 2-5 14 0 19 2q13 5 24 16l3 5-8 4-8 8q-6-18-23-25c1 6 25 21 17 37q-9 4-13 7z" class="cls-21"/><path d="M161 116q-10-14-9-30c0-5 0-13 5-14 1 6 25 21 17 37q-9 4-13 7" style="fill:url(#linear-gradient-6)"/><path d="m193 80 3 5-8 4q0-6 5-9" class="cls-32"/><path d="M312 183q10-4 19-10a81 81 0 0 1-22 65l-6-6-8-4-2-2q2-8 6-14 4-10 4-20c1-4 6-4 8-8z" class="cls-21"/><path d="M312 183q10-4 19-10a81 81 0 0 1-22 65l-6-6c14-12 19-33 20-50-6 2-15 10-20 10 1-4 6-4 8-8z" class="cls-32"/><path d="m295 228-2-2q2-8 6-14 1 8-4 16" class="cls-9"/><path d="m298 237 3 1q4 2 6 7 2 12-4 24-7 14-20 19l-5-2q-3-2-4-6c-3-9 2-20 6-27q6-12 18-16" class="cls-7"/><path d="M290 259h-3v-1l5-4 4 2 1 6-1 2v-5l-1 1-1 2-3 4h-3l-1-1q0-4 3-6" class="cls-1"/><path d="M290 259h-3v-1l5-4 4 2 1 6-1 2v-5l-1 1-1 2-1-4q-2-1-3 1M293 272l2 1v1q-5 5-11 7l-2-1c2-3 8-5 10-8zM297 243l4 3q3 8 0 17h-1c-2-5 4-10-3-20" class="cls-25"/><path d="M278 258h3l3 4q-3 0-5-2z" class="cls-44"/><path d="M227 85q20-2 38 5l-12 13-15-3q-21-3-41 1l4-6q11-10 26-10" class="cls-21"/><path d="M266 231q7-6 15-6l17 9-9 3-4 3q-9 9-13 19c-6-4-13-4-19-9l4-8 3-4z" class="cls-1"/><path d="m281 225 17 9-9 3-4 3q-4-1-6-5v-1l1-1q-3-3-5-3l1-2z" class="cls-1"/><path d="M279 235q6-1 10 2l-4 3q-4-1-6-5M266 231q7-6 15-6v1l-5 2-1 2-5 2h-1z" class="cls-39"/><path d="M275 230q3 1 5 3l-1 1-2 1q-3 0-7-3z" class="cls-43"/><path d="m260 238 6-7 3 1-7 7z" class="cls-10"/><path d="m260 238 2 1q-2 3-5 3z" class="cls-3"/><path d="M253 250c6 5 13 5 19 9-3 11-4 17 1 27l-2-1c-7-3-18-6-21-14q-2-10 3-21" class="cls-7"/><path d="m138 251 1 3c3 4 5 12 9 15q4 1 7 3-2 2-6 3-7 3-16 1c-5-3-10-12-12-17l-2-3 10-4 2 6 1 3h2q-1-3-3-5l-1-4z" class="cls-44"/><path d="m138 251 1 3c3 4 5 12 9 15q4 1 7 3-2 2-6 3c-5-2-13-9-15-14q-1-3-3-5l-1-4z" class="cls-7"/><path d="m138 251 1 3-8 2-1-4zM129 252l2 6q-6 2-10 1l-2-3z" class="cls-7"/><path d="M265 288q10 4 21 3c-11 8-32 19-46 21l-5-1q8-2 14-6l2-1q3 0 4-3l-1-1q-3-3-7-3l-4-1q11-2 22-8" class="cls-44"/><path d="M141 183c4 17 11 28 30 27-7 7-9 10-12 19l-6-11-6-2c-2-5-7-22-7-27z" style="fill:url(#linear-gradient-7)"/><path d="M329 150q3 8 4 17l-20 11h-1l-2-16q10-4 19-12M233 234q2 14-7 25-11 11-26 12-13 0-25-8c13 4 27 7 40 0q9-4 12-15l1-9z" class="cls-7"/><path d="m151 246-2-7q-1-7 2-12h1l2 2c4 7 3 11 6 18l5 10-3 3q-4-1-6-4z" class="cls-44"/><path d="m151 246-2-7q-1-7 2-12h1l2 2-1 16z" class="cls-45"/><path d="m141 219-4 6q-3 13 1 26l-8 1q-5-12-1-25 5-6 12-8" class="cls-1"/><path d="m141 219-4 6-8 2q5-6 12-8" class="cls-17"/><path d="m118 233 3-5q2-3 6-3l1 1-2 3q-1 12 3 23l-10 4q-3-11-1-23" class="cls-1"/><path d="m118 233 3-5q2-3 6-3l1 1-2 3z" class="cls-17"/><path d="m271 91 2 5 6 2-5 5q0 5-4 8h-1q-6-4-13-6 7-9 15-14" class="cls-45"/><path d="M212 205q16 8 21 25v4l-5 5v-4l-2-6q-4-13-16-20z" style="fill:url(#linear-gradient-8)"/><path d="M233 230v4l-5 5v-4h1zM142 224q3-3 5-2l2 1v1l-2 2q-3 11 1 23l-6 2c-2-10-5-18 0-27" class="cls-1"/><path d="M142 224q3-3 5-2l2 1v1l-2 2z" class="cls-10"/><path d="M148 249q3 7 9 13l4 3v3q0 2-2 3-4-1-7-4-7-7-10-16z" class="cls-44"/><path d="M190 93q5-4 11-5l-9 14c-2 1-10 4-12 3l2-4z" class="cls-45"/><path d="M190 93c-1 2-6 8-8 8z" class="cls-39"/><path d="m178 208 8-5q14-3 26 2l-2 4c-12-4-20-4-32-1" style="fill:url(#linear-gradient-9)"/><path d="m304 162 2 1q4 9 2 17 0 3-3 5l-2-1-1-21zM239 364l5 1q2 9-1 17h-3c-3-3-1-13-1-18" class="cls-7"/><path d="m229 364 4 1q3 8 1 18l-4-2c-3-3-1-13-1-17" class="cls-45"/><path d="M249 364h4c3 3 1 12 1 17h-4c-3-3-1-13-1-17" class="cls-7"/><path d="m260 361 2 1 2 6q1 7-2 12v-1q-4-3-4-8t2-10" class="cls-45"/><path d="M221 364h4l-1 14-3 3v-1c-3-3-1-12 0-16" class="cls-1"/><path d="M247 240q5-10 15-13v1q-4 7-10 14z" class="cls-3"/><path d="M144 156zq-4 12-4 26l-1 6q-1-17 4-33" class="cls-10"/><path d="m244 248 3-8 5 2-4 8h-1z" class="cls-45"/><path d="m244 248 3 2h-1v12h-1q-3-7-1-14" class="cls-44"/><path d="m136 192 6 23h-2q-4-11-4-23" class="cls-26"/><path d="M379 171v-12c-2-14 12-20 21-26l1-10-3-1-1-1c2-3 1-1 4-2l1-5h1l1 4 1 1h2l1 2c-3 3-4 0-4 3l1 10 13 8c4 4 4 11 8 13 1 5-3 9-1 17 2 5 0 12 2 15h2q2-5 6-9 4 4 5 10l6 12v2l1 6c1-7 2-27 1-34v-4c4-2 18-2 21 0l1 2v14c0 8 2 48-1 53q3 1 2 4l-2 14 1 8v51c2 10 0 71-4 77l-2 1c-3 4-6 10-11 10h-4c-4 1-6 5-10 2q-9 2-17 3l-29 1-9-1 2-1 3-1c3-8-1-31-1-40l-3-17-2-12q-4-17-11-34-4-6-6-13-1-3 0-6l2-10q-1-13-7-23l-10-10v-7q-2-12-9-19l-10-7 1-2h1c6-2 13 0 18-3v-2q0-5 2-10l4-2 2-5c0-5 4-4 5-12v-1h1c2 1 0 2 2 5q4-3 12-6" style="fill:url(#linear-gradient-10)"/><path d="m429 305 22-1 1 1 5 1c3 5-3 18 3 20h3q2 3 3 7h3l-1-12 2-5c2 10 0 71-4 77l-2 2c-3 3-6 9-11 9h-4c-4 1-6 6-10 2q-9 2-17 3l-29 1-9-1 2-1 3-1c3-8-1-31-1-40l-3-17-2-12q8-1 16 1v-34h30" class="cls-10"/><path d="M468 333zl-1-12 2-5c2 10 0 71-4 77l-2 2c-3 3-6 9-11 9h-4c-4 1-6 5-10 2q-9 2-17 3l-29 1-9-1 2-1 3-1c3-8-1-31-1-40q1-3 3-2l5 3q3-1 4-4l1 1 1 4v7q-5 0-8 2l-1 1 2 2q6-2 11 0l8 1q6-3 9-11c4 4 2 6 3 11q1 3 3 3l6 2c3-4 0-5 0-9l12 5 3-2v-2q-5-4-11-8l9-5 12-1 5-1 2-4 1-1v-26" class="cls-39"/><path d="M468 333zl-1-12 2-5c2 10 0 71-4 77l-2 2c-3 3-6 9-11 9h-4c-4 1-6 5-10 2q-9 2-17 3l-29 1 1-3h16q3-2 8-2h1q5-1 9-5c5-4 5 0 9 1q2-5 6-7 3-2 6-1 2-3 4-7 3-3 6-4 2-3 2-7l1 3 1-7c0-4 5-7 5-12v-26" class="cls-15"/><path d="m406 381 8 1q-4 2-10 3zM385 350q-1-4 2-6 6-2 13-1l1 22-1-1q-1 3-4 4l-5-3q-2 0-3 2z" class="cls-41"/><path d="m395 360 3 1q1 3-2 6h-1q-3-1-3-4 0-2 3-3" class="cls-10"/><path d="m452 305 5 1c3 5-3 18 3 20h3q2 3 3 7h2v26l-1 1-2 4-5 1 4-2v-7q0-3-3-4l-4-1v-1l4-3q5-3 5-7 1-6-2-9-4-5-9-3c-4-4 0-15-1-20q0-2-2-3M402 369q6-4 13-5c-6 4-11 5-13 12z" class="cls-41"/><path d="m413 341 6 1 1 9-6-1q-2-4-1-9M412 320l6 1v9h-5q-2-5-1-10M429 320l4 2q2 5 1 9l-5-1q-2-5 0-10M444 320l2 1 1 4q1 4-2 7l-2-1-1-3q-1-3 2-8M448 174v-4c4-2 18-2 21 1l1 1v14c0 8 2 48-1 53q3 1 2 4l-2 14 1 8v51l-2 5 1 12h-3q-1-3-3-7h-3c-6-2 0-15-3-20l-5-1-1-1-22 1-1-21-1-1 1-4v-36c-2-2-1-18-1-22l-3-5-5-1-5-1v-11l3-1h3l3-1v-2 1l-2-3-2-3 3-3 1-1-1-1q2 0 6-1v-1l7-9q4 4 5 10l6 12v2l1 6c1-7 2-27 1-34" class="cls-39"/><path d="M448 174v-4c4-2 18-2 21 1l1 1v14c0 8 2 48-1 53q3 1 2 4-7-4-16-3v-24l-9-3-1-5 1-8v2l1 6c1-7 2-27 1-34" class="cls-15"/><path d="M448 174v-4c4-2 18-2 21 1l1 1v1z" class="cls-27"/><path d="M446 200v2l1 6v5l-2-5z" class="cls-35"/><path d="M427 218h16c-1 7 2 17-1 23l-4 1-1-2q-1-6 1-10l-1-6-2-1-1 1c-1 5 3 14-1 18l-5 1c-2-2-1-18-1-22zM426 202h16q1 6-1 11l-3 1h-8v-8z" class="cls-43"/><path d="M434 214q-1-4 2-9l1 1 1 8z" class="cls-10"/><path d="M428 267c2 5 0 13 2 17h1q0-9 1-17c3 11 1 26 1 37h18l-22 1-1-21-1-1 1-4z" class="cls-41"/><path d="M417 202h3l4 3v12l-5-2-5-1v-11z" class="cls-35"/><path d="M414 203q4 0 5 2v10l-5-1z" class="cls-43"/><path d="M435 178q4 4 5 10l-4-1q-4 0-7 4l-2 3-3 3h-3l-2-3 3-3 1-1-1-1q2 0 6-1v-1z" class="cls-27"/><path d="m422 191 5 3-3 3h-3l-2-3z" class="cls-43"/><path d="M421 197h3l1 5h1l4 4v1l-1-2h-1l-2 12 1 1v3l-3-4v-12l-4-3 3-1v-2 1z" class="cls-27"/><path d="m448 223-2-3v-1h5v7l-1 10h-2z" class="cls-43"/><path d="M455 224v2c-7 2-2 11-5 15h-2l-1-2q-2-9 1-16v13h2l1-10h2z" class="cls-27"/><path d="m435 223 2 1-1 4q-2-2-1-5" class="cls-41"/><path d="m456 277 2 3 2 1 3 6h-4q0 2-2 3h-1l-1-2q-2-5 1-11M441 280q3-1 5 1 1 4-1 7l-1 1h-1q-2-5-2-9" class="cls-10"/><path d="M442 258q2 1 2 4 1 4-2 5l-2-1q-2-2-1-5z" class="cls-43"/><path d="M448 256h1q2 1 2 4l-2 6h-1l-1-2q-1-5 1-8" class="cls-41"/><path d="m439 290 4 1q2 3 1 7l-4-1z" class="cls-27"/><path d="m457 256 2 4q1 4-1 6l-3-2q-1-6 2-8" class="cls-41"/><path d="M379 171v-12c-2-14 12-20 21-26l1-10-3-1-1-1c2-3 1-1 4-2l1-5h1l1 4 1 1h2l1 2c-3 3-4 0-4 3l1 10 13 8c4 4 4 11 8 13 1 5-3 9-1 17 2 5 0 12 2 15h2l-1 1q-4 1-6 1l1 1-1 1-3 3 2 2c-6 0-11-8-17-10-7-3-9 3-14 5h-4l-1 2q1 3-2 4l-6 2-2-1c-2-4 0-9-2-12h-1l1 5-1 1c-6-7-8-2-12-7 0-5 3-4 4-12l1-1h1c2 1 0 2 2 5q4-3 11-6" style="fill:url(#linear-gradient-11)"/><path d="M379 171v-12c-2-14 12-20 21-26l1-10-3-1-1-1c2-3 1-1 4-2l1-5h1l1 4 1 1h2l1 2c-3 3-4 0-4 3l1 10 13 8c4 4 4 11 8 13 1 5-3 9-1 17l-5-1 1-13c-7-1-32-2-37 0l-1 11z" class="cls-39"/><path d="m383 169 1-11c5-2 30-1 37 0l-1 13q-4-1-7-3 1-4-1-7h-2c-2 3 0 4-2 9h-1c-4-4 0-3-3-9l-1-1-3 3v5l-4 1-4-1h-4v1z" class="cls-4"/><path d="m392 168 1-7 1-1q3 4 2 9z" class="cls-27"/><path d="m388 169-2-7 1-1 1 1zM417 161l1 1q2 3 1 6l-2-1zM419 194l-2-7v-5q2 3 3 7h2l1 1-1 1z" class="cls-39"/><path d="M385 193q1 3-2 4l-6 2-2-1 2-3z" class="cls-15"/><path d="m413 174 9 1v1h-4l-2 1-1 3zM397 179l2 2-1 2a2 2 0 1 1-1-4" class="cls-39"/><path d="M360 185c4 5 6 0 12 7l1-1-1-5h1c2 3 0 8 2 12l2 1 6-2q3-1 2-4l1-2h4c5-2 7-8 14-5 6 2 11 10 17 11l2 3v-1 2l-3 1h-3l-3 1v11l-7-1h-22l-8 1c-2 4-2 24-1 29v1l1 7q-5 2-12 2l-4-1-10-10v-7q-1-12-9-19l-10-7 1-2h1c6-2 13 0 18-3v-2q0-5 2-10l4-2z" class="cls-43"/><path d="m378 204 8-4q6-4 13-7 11 1 18 9l-3 1v11l-7-1h-12l-6 1h-12z" class="cls-42"/><path d="M395 213q0-7 4-13l2-1q3 0 4 2 3 6 2 12z" class="cls-43"/><path d="m385 214 1-8 2-1 2 3-1 6z" class="cls-27"/><path d="M360 185c4 5 6 0 12 7l1-1-1-5h1c2 3 0 8 2 12l2 1q-3 8-4 17v-14c-4 0-14-2-17 0l-1 4 1 1-1 2v5c-5-4-1-7-3-12q-1-5 2-10l4-2z" class="cls-39"/><path d="M360 185c4 5 6 0 12 7l-1 1-13-3z" class="cls-41"/><path d="M356 207h3l1 5v1h-3q-2-1-2-4z" class="cls-15"/><path d="m360 212 1-6h1l1 4-1 2z" class="cls-41"/><path d="M365 230q2 1 2 3 1 3-1 7l-3-3z" class="cls-39"/><path d="M359 222h2v6l-3-2z" class="cls-41"/><path d="m389 214 6-1h12l7 1 5 1 5 2 3 4c0 4-1 20 1 22v36h-1l-2 1q-7 2-12-1v-1l-1-18h-13l1-6h-1 1l-1 1v-4h-1c-4-2-16-1-21 0l-1-7v-1c-1-5-1-25 1-29h12" style="fill:url(#linear-gradient-12)"/><path d="m376 244 1-27v5q3-1 2-3c3 3 2 14 2 18v12c5 0 15-1 18 2h-1c-4-2-16-1-21 0z" class="cls-39"/><path d="m427 277 1-15v17h-1l-2 1q-7 2-12-1v-1z" class="cls-27"/><path d="m402 224 3 3q0 4-1 9l-2-1-1-2q-2-4 1-9" class="cls-41"/><path d="m388 240 3 1 1 6-4-1z" class="cls-43"/><path d="m417 228 3 3-2 5-2-1-1-2zM393 229h2l1 8-3-1z" class="cls-41"/><path d="M387 229zv8h-1z" class="cls-43"/><path d="M414 284h14l1 21h-9l-5-1q-3-9-1-20" class="cls-27"/><path d="M377 251c5-1 17-2 21 0l-1 3-1 1c-9-3-21-1-31-2q7 0 12-2" class="cls-41"/><path d="m401 269 3 1q2 5 0 11l-3-2q-2-4 0-10" class="cls-27"/><path d="M382 276a4 4 0 1 1 3 6 4 4 0 0 1-3-6" class="cls-15"/><path d="m383 290 3 2q1 4-1 8l-3-3q-1-4 1-7M384 304l2 1-1 10h-1z" class="cls-41"/><path d="M396 287h5q3 1 2 4l-5-1q-2-1-2-3" class="cls-39"/><path d="M395 277zv3l-1-1z" class="cls-43"/><path d="m390 328 1 4h-1l-1-1z" class="cls-27"/><path d="m76 51 5 1q1 7-1 14c-6 6-10 4-16 11-5 7-4 15-8 19l1 3 4-1h44v91l-7-1h-9q-3 0-5 2-2 5 0 10l-1 7-6-2-6-6q-5 4-11 5v4l-1 16h-1l-33 1 1 24-10-1-4 1 1-16c0-14-2-34-1-48v-9l1-11v-27q0-3 1-5 0-16 1-33l4-6 6-3c7 1 17 8 18 15l-4 6h8c4 3 6 9 9 9 4-4-2-21 0-28q3-17 19-25c4-2 7-11 5-14l-3-1z" class="cls-4"/><path d="M35 157h9c3 5-2 17 3 18q6 0 11 2c3 4 1 9 2 14v17l-1 16h-1l-33 1 1 24-10-1-4 1 1-16c0-14-2-34-1-48v-9h3l15-1 5-1z" class="cls-43"/><path d="M35 157h9c3 5-2 17 3 18q6 0 11 2c3 4 1 9 2 14v17l-1 16h-1c-2-13-1-32-1-46-10 0-35 2-42-1v-1l15-1 5-1z" class="cls-27"/><path d="M35 157h9v19l-9-1v-18" class="cls-35"/><path d="m12 185 2 2 1 45c0 7-1 9 1 16l-4 1 1-16c0-14-2-34-1-48" class="cls-4"/><path d="M47 210zv2q2 6-1 11h-2q-2-4-3-8v-4l1-1z" class="cls-43"/><path d="m49 190 2 5-3 4-4-1q-3-1-2-3l4-2z" class="cls-39"/><path d="m48 199-4-1q-2-1-2-3l4-2z" class="cls-41"/><path d="m21 189 5 1 1 7-5-1z" class="cls-4"/><path d="m34 203 4 2-2 5h-4z" class="cls-27"/><path d="m34 188 2 1q2 3 1 7l-4-2z" class="cls-15"/><path d="m43 210 1-6h1q2 1 2 3v3z" class="cls-27"/><path d="m32 196 6 1 1 2-4 1z" class="cls-39"/><path d="m46 193-2-1-1-2 1-1 5 1z" class="cls-4"/><path d="m76 51 5 1q1 7-1 14c-6 6-10 4-16 11-5 7-4 15-8 19l1 3c2 5 1 18 1 24l-6-1-7 1c-4 6 5 30-5 29H30c0 6 0 7-2 12l2 1v10l-15 1h-3l1-11v-27q0-2 1-5 0-16 1-33l4-6 6-3c7 1 17 8 18 15l-4 6h8c4 3 6 9 9 9 4-4-2-21 0-28q4-17 19-25c4-2 7-11 5-14l-3-1z" class="cls-33"/><path d="M14 136q7-2 15-1 3 8 3 17h8-10c0 6 0 7-2 12l2 1v10l-15 1h-3l1-11v-27z" class="cls-35"/><path d="m13 138 1-2c2 11 0 17 1 26l-2 3z" class="cls-42"/><path d="M45 123q1-4 4-6 4 2 3 5z" class="cls-15"/><path d="M27 92q4 3 10 7h1q3 3 4 8c-4 6-7 4-13 7h-1l-1-4q-3-1-8-1l-3-2v-5q3-7 11-10" class="cls-42"/><path d="m80 107 3-5h2l2 5c1 19 7 8 12 16-4 6-11-1-15-4-11 6-11 6-23 6v42l-1 24c-1-5 1-10-2-14q-6-2-11-2c-5-1 0-13-3-18h-9v17l-5 1v-10l-2-1c2-5 2-6 2-12h10c10 1 1-23 5-29l7-1 6 1h2c14-3 19-1 20-16" class="cls-43"/><path d="m80 107 3-5h2l2 5q0 5-3 8h-1c-3-3-2-3-3-8" class="cls-41"/><path d="M79 135h8c3 7 2 43 2 53q-3 0-5 2-2 5 0 10l-1 7-6-2 1-3c-5-7-4-25-3-34l2-2c0-9 0-22 2-31" class="cls-43"/><path d="m77 205 1-3c-5-7-4-25-3-34l2-2c0 10-1 24 2 33 4 2 2-2 4 2v6zM57 99l4-1-1 25h-2c0-6 1-19-1-24M92 185l4-19q2 5 1 9 1 5-1 8z" class="cls-15"/><path d="M96 183h-2q-1-6 3-8 1 5-1 8" class="cls-27"/><path d="M97 175q2 7 1 13h-6v-3l4-2q2-3 1-8M79 135q1-3 4-4l4 4z" class="cls-15"/><path d="M67 131c3 3 2 15 2 20q1 7-2 12l-1-2c-2-7-1-24 1-30" class="cls-43"/><path d="m100 103 3 3q1 7-1 14h-2c-3-3-1-13 0-17" class="cls-27"/><path d="m67 164 1 1c2 4 1 19 1 24l-2-1q-2-12 0-24" class="cls-43"/><path d="m66 103 2 1q1 8-1 16l-1-1q-2-3-2-6 0-6 2-10" class="cls-27"/><path d="M94 152q2 0 3 2v9l-3-2z" class="cls-15"/><path d="m94 141 3 1 1 5-4-1z" class="cls-43"/><path d="m95 128 2 2-3 2v1l-1 1z" class="cls-15"/><path d="M395 14q10 0 18 7 6 8 5 17l9-3q9-1 15 4 5 5 5 9t-3 7c-8 9-18 3-27 4l-9 5q-5 2-10 2-8 1-16-2c-2-1-5-6-7-6-10-1-15 3-25-1q-3-1-5-5-1-5 2-11 3-7 11-9t15 3q3-6 6-14 7-6 16-7M126 37c-7 1-27 3-24-12q3-5 9-6c3-2 8 1 11 0q0-10 8-16c11-5 26-3 37 1l5 5 1 7 8-1 7 4c14-2 12 3 16 11q1-1 6-2 3 2 2 5c-2 3-24 6-29 7l-7-2c-4 3-8 9-14 8q-5 0-9-4h-3l-1 1 1 1v1l-19-1z" class="cls-42"/><path d="m172 9 1 7 8-1 7 4c14-2 12 3 16 11q2-1 6-2 3 2 2 5c-2 3-24 6-29 7l-7-2c-4 3-8 9-14 8q-5-1-9-4c17 3 14 2 22-6 1-1 32 9 26-9-3-10-10-5-14-6l-7-5-7 1q-2-3-1-8" class="cls-28"/><path d="M467 110q-6 2-13 0-5 5-15 6-6-3-12-8c-17 5-41-4-16-19 9-6 10-5 20-1 3-2 4-13 12-15q15-3 20 11v1l2-1h5c3 3 2 18 1 22l-2 4z" class="cls-35"/><path d="M465 84h5c3 3 2 18 1 22l-2 4h-2c3-4 3-4 1-8v5q0-5-1-8-1-7 1-14z" class="cls-42"/><path d="M465 84h5c3 3 2 18 1 22-1-5-1-18-3-21z" class="cls-28"/><path d="m76 51 5-3 2-4h1l1 4 4 1v2l-1 1-3 1 2 14 9 5c6 4 13 16 13 24 1 4 0 20-1 25v-21h-1v17h-1c-1-5 2-14-1-19H61l-4 1-1-3c4-4 3-12 8-19 6-7 10-5 16-11q2-7 1-14z" class="cls-27"/><path d="M250 47q-7-11 6-17c3-1 5 2 9 0h1q4-9 13-10c10-1 12 9 14 10 4 2 9-1 13 3l2 5q1 5-2 6-2 3-5 3h-1c-13-1-12 3-18 4l-6 2q-14-1-26-6" class="cls-42"/><path d="M250 47q-7-11 6-17c3-1 5 2 9 0h1q4-9 13-10c10-1 12 9 14 10 4 2 9-1 13 3l2 5q1 5-2 6-2 3-5 3h-1v-1q8-2 8-9-2-3-5-3c-3-3-13-1-14-5q-3-11-15-7c-4 2-5 8-9 10h-11q-7 5-5 11c5 3 14 4 19 4 4 8 7 4 14 4l-6 2q-14-1-26-6" class="cls-28"/><path d="M37 20q9-3 17 2 4 5 4 8c3 2 13-4 14 8q1 4-2 6-4 4-11 4l-7-1c-3 2-2 7-7 7q-4 1-8-2-2-4-7-4h-8q-2 0-3-2c-3-8 2-18 11-15l1-1q0-6 6-10" class="cls-42"/><path d="M22 48q-2 0-3-2c-3-8 2-18 11-15l-6 2c-2 3-3 12-2 15" class="cls-28"/><path d="M84 200c0 5-1 22 2 25h-8l-8-1H59l1-16v-4q6-1 11-5l6 6 6 2z" class="cls-15"/><path d="M84 200c0 5-1 22 2 25h-8q2 0 5-2v-15q-7 1-14 1l-9-1v-4q6-1 11-5l6 6 6 2z" class="cls-27"/><path d="m68 224 1-8h2l1 3-2 5z" class="cls-43"/><path d="M358 130q4 0 7 3t4 8c-1 4-4 1-6 3q1 4 4 8l-3 4c-5 4-8 0-15 0h-1l-5-1-1-3q5-6 12-7h1-4l-3-2v-5l-6 1 8-6q4-3 8-3" class="cls-42"/><path d="M357 141q3 1 5 3v1q-2 1-5-1z" class="cls-35"/><path d="m369 105 1 1c3 2 10 8 10 11q1 2-1 3t-6-1v-1l-3 2q-1 2-4 1l-7-4q-3-1-5-6l3-3c3-2 4 1 7 1z" class="cls-42"/><path d="m440 133 3 1 2 3q5 0 11-2l3 2v6h-1l-2-5-2-2q-3 5-2 10h-1l-1-6-1 1q0 2-3 3h-2l-2-8-4 7q2 2 6 4v1l-5-1v2l-2-1v-9z" class="cls-35"/><path d="M206 52q6 1 8 6 0 3-3 4l-7-6h-2zM429 121l9 4v4l-2 1-4-1q-3-3-3-8M218 52l7 7-1 2h-5l-3-3z" class="cls-42"/><path d="M44 68h2l-1 2-6 3q-2-1-2-3 4-2 7-2" class="cls-28"/><path d="m362 89 3 1-1 5-2-1z" class="cls-33"/></g></svg>